<svg xmlns="http://www.w3.org/2000/svg" xmlns:xlink="http://www.w3.org/1999/xlink" viewBox="0 0 520.27 285.76"><defs><style>.cls-1{isolation:isolate;}.cls-10,.cls-12,.cls-13,.cls-15,.cls-17,.cls-2,.cls-30,.cls-31,.cls-34,.cls-37,.cls-39,.cls-4,.cls-6,.cls-8{mix-blend-mode:multiply;}.cls-2{fill:url(#radial-gradient);}.cls-3{fill:#8a391f;}.cls-10,.cls-12,.cls-13,.cls-25,.cls-32,.cls-38,.cls-4,.cls-6{opacity:0.7;}.cls-4{fill:url(#linear-gradient);}.cls-5{fill:#762c16;}.cls-6{fill:url(#linear-gradient-2);}.cls-7{fill:#aa502b;}.cls-8{fill:url(#radial-gradient-2);}.cls-9{fill:#ad3f2a;}.cls-10{fill:url(#radial-gradient-3);}.cls-11{fill:#541c1b;}.cls-12{fill:url(#linear-gradient-3);}.cls-13{fill:url(#linear-gradient-4);}.cls-14{fill:#434343;}.cls-15{fill:url(#radial-gradient-4);}.cls-16,.cls-20,.cls-25,.cls-32,.cls-35,.cls-38{mix-blend-mode:screen;}.cls-16{fill:url(#radial-gradient-5);}.cls-18{fill:url(#radial-gradient-6);}.cls-19{fill:url(#radial-gradient-7);}.cls-21{fill:url(#radial-gradient-8);}.cls-22{fill:#a13322;}.cls-23{fill:url(#linear-gradient-5);}.cls-24{fill:url(#linear-gradient-6);}.cls-26{fill:url(#radial-gradient-9);}.cls-27{fill:url(#radial-gradient-10);}.cls-28{fill:url(#radial-gradient-11);}.cls-29{fill:#f0cc19;}.cls-30,.cls-35{opacity:0.5;}.cls-30{fill:url(#radial-gradient-12);}.cls-31{opacity:0.3;fill:url(#radial-gradient-13);}.cls-32{fill:url(#radial-gradient-14);}.cls-33{fill:#e5c72d;}.cls-34{fill:url(#radial-gradient-15);}.cls-35{fill:url(#radial-gradient-16);}.cls-36{fill:#ffd740;}.cls-37{fill:url(#radial-gradient-17);}.cls-38{fill:url(#radial-gradient-18);}.cls-39{fill:url(#radial-gradient-19);}</style><radialGradient id="radial-gradient" cx="1065.72" cy="2994.9" fx="1095.4181654781396" r="33.81" gradientTransform="translate(-3054.17 -411.33) scale(3.02 0.22)" gradientUnits="userSpaceOnUse"><stop offset="0" stop-color="#344253"/><stop offset="0.26" stop-color="#8a97a5" stop-opacity="0.48"/><stop offset="0.47" stop-color="#c4d0dc" stop-opacity="0.13"/><stop offset="0.59" stop-color="#dae6f1" stop-opacity="0"/><stop offset="0.64" stop-color="#e5edf5" stop-opacity="0"/><stop offset="1" stop-color="#fff" stop-opacity="0"/></radialGradient><linearGradient id="linear-gradient" x1="1605.02" y1="-105.83" x2="1671.51" y2="-97.01" gradientTransform="matrix(-0.71, 0.7, 0.7, 0.71, 1363.46, -957.21)" gradientUnits="userSpaceOnUse"><stop offset="0" stop-color="#702f1a"/><stop offset="0.15" stop-color="#72301a" stop-opacity="0.92"/><stop offset="0.4" stop-color="#78321b" stop-opacity="0.7"/><stop offset="0.71" stop-color="#81361d" stop-opacity="0.35"/><stop offset="0.97" stop-color="#8a391f" stop-opacity="0"/></linearGradient><linearGradient id="linear-gradient-2" x1="1525.57" y1="-105.45" x2="1590.35" y2="-82.65" gradientTransform="matrix(-0.71, 0.7, 0.7, 0.71, 1363.46, -957.21)" gradientUnits="userSpaceOnUse"><stop offset="0" stop-color="#762c16"/><stop offset="0.15" stop-color="#762c16" stop-opacity="0.92"/><stop offset="0.39" stop-color="#762c16" stop-opacity="0.72"/><stop offset="0.7" stop-color="#762c16" stop-opacity="0.38"/><stop offset="1" stop-color="#762c16" stop-opacity="0"/></linearGradient><radialGradient id="radial-gradient-2" cx="1679.03" cy="-71.35" r="91.27" gradientTransform="matrix(0.49, 0.87, 0.77, -0.43, -651.73, -1329.1)" gradientUnits="userSpaceOnUse"><stop offset="0" stop-color="#974626"/><stop offset="0.12" stop-color="#984726" stop-opacity="0.94"/><stop offset="0.32" stop-color="#9b4827" stop-opacity="0.78"/><stop offset="0.57" stop-color="#a04b28" stop-opacity="0.51"/><stop offset="0.86" stop-color="#a74f2a" stop-opacity="0.15"/><stop offset="0.97" stop-color="#aa502b" stop-opacity="0"/></radialGradient><radialGradient id="radial-gradient-3" cx="1767.94" cy="-102.97" r="39.91" gradientTransform="matrix(-0.42, 0.91, 0.5, 0.23, 822.01, -1374.61)" gradientUnits="userSpaceOnUse"><stop offset="0" stop-color="#903326"/><stop offset="0.13" stop-color="#923426" stop-opacity="0.94"/><stop offset="0.34" stop-color="#973627" stop-opacity="0.77"/><stop offset="0.6" stop-color="#9f3928" stop-opacity="0.49"/><stop offset="0.91" stop-color="#aa3e2a" stop-opacity="0.11"/><stop offset="0.99" stop-color="#ad3f2a" stop-opacity="0"/></radialGradient><linearGradient id="linear-gradient-3" x1="1494.09" y1="-94.42" x2="1460.92" y2="-70.06" gradientTransform="matrix(-0.71, 0.7, 0.7, 0.71, 1363.46, -957.21)" gradientUnits="userSpaceOnUse"><stop offset="0" stop-color="#541c1b"/><stop offset="0.19" stop-color="#541c1b" stop-opacity="0.89"/><stop offset="0.5" stop-color="#541c1b" stop-opacity="0.6"/><stop offset="0.9" stop-color="#541c1b" stop-opacity="0.13"/><stop offset="0.99" stop-color="#541c1b" stop-opacity="0"/></linearGradient><linearGradient id="linear-gradient-4" x1="1642.13" y1="-122.97" x2="1642.13" y2="-66.48" gradientTransform="matrix(-0.72, 0.69, 0.69, 0.72, 1371.42, -954.61)" xlink:href="#linear-gradient-3"/><radialGradient id="radial-gradient-4" cx="1641.53" cy="-98.52" r="61.22" gradientTransform="matrix(1, 0, 0, -0.6, -1469.5, 179.99)" gradientUnits="userSpaceOnUse"><stop offset="0" stop-color="#434343"/><stop offset="0.22" stop-color="#434343" stop-opacity="0.87"/><stop offset="0.59" stop-color="#434343" stop-opacity="0.5"/><stop offset="0.98" stop-color="#434343" stop-opacity="0"/></radialGradient><radialGradient id="radial-gradient-5" cx="1641.7" cy="-18.19" r="58.39" gradientTransform="matrix(0, -1, -0.03, 0, 171.64, 1800.9)" gradientUnits="userSpaceOnUse"><stop offset="0" stop-color="#817d7d"/><stop offset="0.14" stop-color="#7d7979" stop-opacity="0.93"/><stop offset="0.36" stop-color="#716e6e" stop-opacity="0.74"/><stop offset="0.65" stop-color="#5e5c5c" stop-opacity="0.43"/><stop offset="0.98" stop-color="#434343" stop-opacity="0"/><stop offset="0.98" stop-color="#434343" stop-opacity="0"/></radialGradient><radialGradient id="radial-gradient-6" cx="1636.75" cy="53.63" r="4.6" gradientTransform="matrix(-1, 0, 0, 1, 1867.57, 169.12)" xlink:href="#radial-gradient-4"/><radialGradient id="radial-gradient-7" cx="267.38" cy="53.04" r="5.25" gradientTransform="translate(-45.91 169.26)" xlink:href="#radial-gradient-4"/><radialGradient id="radial-gradient-8" cx="271.98" cy="53.17" r="8.67" gradientTransform="matrix(0, 1, -0.3, 0, 242.02, -49.55)" gradientUnits="userSpaceOnUse"><stop offset="0" stop-color="#b9b9b9"/><stop offset="0.11" stop-color="#b5b5b5" stop-opacity="0.97"/><stop offset="0.26" stop-color="#ababab" stop-opacity="0.88"/><stop offset="0.43" stop-color="#9a9a9a" stop-opacity="0.74"/><stop offset="0.61" stop-color="#828282" stop-opacity="0.53"/><stop offset="0.8" stop-color="#646464" stop-opacity="0.28"/><stop offset="0.98" stop-color="#434343" stop-opacity="0"/></radialGradient><linearGradient id="linear-gradient-5" x1="1636" y1="77.27" x2="1640.27" y2="77.27" gradientTransform="matrix(-1, 0, 0, 1, 1884.2, 162.45)" gradientUnits="userSpaceOnUse"><stop offset="0" stop-color="#8e2d1d"/><stop offset="0.94" stop-color="#a13322" stop-opacity="0"/></linearGradient><linearGradient id="linear-gradient-6" x1="266.75" y1="77.13" x2="271.03" y2="77.13" gradientTransform="matrix(1, 0, 0, 1, -29.28, 162.55)" xlink:href="#linear-gradient-5"/><radialGradient id="radial-gradient-9" cx="272.5" cy="74.48" r="34.73" gradientTransform="matrix(0, 1, -0.1, 0, 250.67, -35.46)" gradientUnits="userSpaceOnUse"><stop offset="0" stop-color="#be7058"/><stop offset="0.94" stop-color="#a13322" stop-opacity="0"/></radialGradient><radialGradient id="radial-gradient-10" cx="1641.75" cy="-167.38" r="3.54" gradientTransform="matrix(0.69, 0.72, 0.3, -0.29, -1015.42, -1167.53)" xlink:href="#radial-gradient-5"/><radialGradient id="radial-gradient-11" cx="1641.53" cy="-174.53" r="5.88" gradientTransform="matrix(0.69, 0.72, 0.22, -0.21, -1033.03, -1160.19)" xlink:href="#radial-gradient-5"/><radialGradient id="radial-gradient-12" cx="1712.72" cy="-141.82" r="109.59" gradientTransform="matrix(0.28, 0.96, 0.3, -0.09, -389.38, -1518.71)" gradientUnits="userSpaceOnUse"><stop offset="0.05" stop-color="#c5a92e"/><stop offset="0.15" stop-color="#c7ab2d" stop-opacity="0.95"/><stop offset="0.31" stop-color="#ccaf2a" stop-opacity="0.83"/><stop offset="0.51" stop-color="#d5b626" stop-opacity="0.63"/><stop offset="0.74" stop-color="#e1c020" stop-opacity="0.34"/><stop offset="0.99" stop-color="#f0cc19" stop-opacity="0"/></radialGradient><radialGradient id="radial-gradient-13" cx="1607" cy="-111.59" r="87.04" gradientTransform="matrix(0.87, 0.49, 0.19, -0.33, -1241.16, -739.85)" xlink:href="#radial-gradient-12"/><radialGradient id="radial-gradient-14" cx="1570.72" cy="-152.54" r="87.04" gradientTransform="matrix(0.94, 0.35, 0.09, -0.23, -1321.5, -557.76)" gradientUnits="userSpaceOnUse"><stop offset="0.05" stop-color="#f0d651"/><stop offset="0.19" stop-color="#f0d448" stop-opacity="0.84"/><stop offset="0.59" stop-color="#f0d02f" stop-opacity="0.39"/><stop offset="0.86" stop-color="#f0cd1f" stop-opacity="0.11"/><stop offset="0.99" stop-color="#f0cc19" stop-opacity="0"/></radialGradient><radialGradient id="radial-gradient-15" cx="1513.19" cy="-85.33" r="105.61" gradientTransform="matrix(-0.77, 0.63, 0.41, 0.51, 1428.45, -875.34)" gradientUnits="userSpaceOnUse"><stop offset="0" stop-color="#b9a230"/><stop offset="0.1" stop-color="#bba430" stop-opacity="0.95"/><stop offset="0.28" stop-color="#c1a92f" stop-opacity="0.82"/><stop offset="0.49" stop-color="#cbb12f" stop-opacity="0.6"/><stop offset="0.74" stop-color="#d8bc2e" stop-opacity="0.31"/><stop offset="0.97" stop-color="#e5c72d" stop-opacity="0"/></radialGradient><radialGradient id="radial-gradient-16" cx="1523.04" cy="-147.01" r="79.73" gradientTransform="matrix(0.96, -0.27, -0.07, -0.25, -1302.96, 383.4)" gradientUnits="userSpaceOnUse"><stop offset="0" stop-color="#d8c879"/><stop offset="0.25" stop-color="#dbc865" stop-opacity="0.73"/><stop offset="0.75" stop-color="#e2c73d" stop-opacity="0.21"/><stop offset="0.97" stop-color="#e5c72d" stop-opacity="0"/></radialGradient><radialGradient id="radial-gradient-17" cx="1778.54" cy="-77.58" r="103.09" gradientTransform="matrix(-0.78, 0.63, 0.38, 0.47, 1451.64, -849.15)" gradientUnits="userSpaceOnUse"><stop offset="0" stop-color="#d1af32"/><stop offset="0.1" stop-color="#d3b133" stop-opacity="0.96"/><stop offset="0.26" stop-color="#d8b534" stop-opacity="0.84"/><stop offset="0.46" stop-color="#e1bd37" stop-opacity="0.65"/><stop offset="0.7" stop-color="#edc83b" stop-opacity="0.38"/><stop offset="0.96" stop-color="#fdd53f" stop-opacity="0.05"/><stop offset="1" stop-color="#ffd740" stop-opacity="0"/></radialGradient><radialGradient id="radial-gradient-18" cx="1706.5" cy="-138.72" r="59.23" gradientTransform="matrix(0.24, 0.97, 0.21, -0.05, -339.5, -1524.76)" gradientUnits="userSpaceOnUse"><stop offset="0" stop-color="#feeda7"/><stop offset="0.4" stop-color="#fee47b" stop-opacity="0.58"/><stop offset="0.81" stop-color="#ffdb51" stop-opacity="0.16"/><stop offset="1" stop-color="#ffd740" stop-opacity="0"/></radialGradient><radialGradient id="radial-gradient-19" cx="2361.4" cy="-4807.08" fx="2467.156179662965" r="105.76" gradientTransform="matrix(-2.44, -0.02, 0, -0.25, 6034.52, -876.24)" gradientUnits="userSpaceOnUse"><stop offset="0" stop-color="#415265"/><stop offset="0.08" stop-color="#566678" stop-opacity="0.86"/><stop offset="0.35" stop-color="#9dabb9" stop-opacity="0.4"/><stop offset="0.57" stop-color="#c9d6e2" stop-opacity="0.11"/><stop offset="0.69" stop-color="#dae6f1" stop-opacity="0"/><stop offset="0.73" stop-color="#e5edf5" stop-opacity="0"/><stop offset="1" stop-color="#fff" stop-opacity="0"/></radialGradient></defs><g class="cls-1"><g id="Layer_2" data-name="Layer 2"><g id="Layer_1-2" data-name="Layer 1"><path class="cls-2" d="M264.64,258c0,5.19-45.7,9.41-102.06,9.41S60.52,263.22,60.52,258s45.69-9.41,102.06-9.41S264.64,252.83,264.64,258Z"/><path class="cls-3" d="M266.36,3s-20.44,15.17-6.16,28.27c0,0-41.59,28.15-60.37,72.17,0,0-52.62,31.21-80.73,79.05,0,0-45.66,20.53-77.36,61.24,0,0-20.68-8.77-37,12.07l5.84-55.52L75.92,84.07l35.55-34.81,61.22-36.73L228.1,5.41Z"/><path class="cls-4" d="M266.36,3s-20.44,15.17-6.16,28.27c0,0-41.59,28.15-60.37,72.17,0,0-52.62,31.21-80.73,79.05,0,0-45.66,20.53-77.36,61.24,0,0-20.68-8.77-37,12.07l5.84-55.52L75.92,84.07l35.55-34.81,61.22-36.73L228.1,5.41Z"/><path class="cls-5" d="M127.45,62.13l97.08-35s19.82,1.33,35.67,4.18c0,0-41.59,28.15-60.37,72.17,0,0-28.15-16.16-40.57-21.55Z"/><path class="cls-6" d="M127.45,62.13l97.08-35s19.82,1.33,35.67,4.18c0,0-41.59,28.15-60.37,72.17,0,0-28.15-16.16-40.57-21.55Z"/><path class="cls-7" d="M44.43,185.25l48.78-43c6.31,11.39,25.89,40.26,25.89,40.26S73.44,203,41.74,243.74c-5.94-16-7.59-36.41-7.59-36.41Z"/><path class="cls-8" d="M44.43,185.25l48.78-43c6.31,11.39,25.89,40.26,25.89,40.26S73.44,203,41.74,243.74c-5.94-16-7.59-36.41-7.59-36.41Z"/><path class="cls-9" d="M4.72,255.81l2.74-26,26.69-22.44c1.16,15.23,7.59,36.41,7.59,36.41S21.06,235,4.72,255.81Z"/><path class="cls-10" d="M4.72,255.81l2.74-26,26.69-22.44c1.16,15.23,7.59,36.41,7.59,36.41S21.06,235,4.72,255.81Z"/><path class="cls-11" d="M224.53,27.1,235.65,4.94,266.36,3s-20.44,15.17-6.16,28.27C252.19,29.7,224.53,27.1,224.53,27.1Z"/><path class="cls-12" d="M224.53,27.1,235.65,4.94,266.36,3s-20.44,15.17-6.16,28.27C252.19,29.7,224.53,27.1,224.53,27.1Z"/><path class="cls-13" d="M7.46,229.77h0l3.1-29.48L75.92,84.07l35.55-34.81,61.22-36.73L228.1,5.41l7.55-.47h0L266.36,3s-20.44,15.17-6.16,28.27c0,0-41.59,28.15-60.37,72.17,0,0-52.62,31.21-80.73,79.05,0,0-45.66,20.53-77.36,61.24a20.9,20.9,0,0,0-2.71-.86c-.49-.12-1-.25-1.64-.37-.91-.18-1.93-.34-3-.45-.75-.07-1.55-.12-2.38-.14-.42,0-.84,0-1.27,0A30.82,30.82,0,0,0,14.2,247c-.53.34-1.06.71-1.6,1.1a35.63,35.63,0,0,0-3.19,2.64c-.53.48-1.06,1-1.58,1.54a44.72,44.72,0,0,0-3.11,3.57Z"/><rect class="cls-14" x="170.01" y="90.61" width="3.71" height="150.81" transform="translate(410.82 166.35) rotate(136.07)"/><rect class="cls-15" x="170.01" y="90.61" width="3.71" height="150.81" transform="translate(410.82 166.35) rotate(136.07)"/><rect class="cls-16" x="170.01" y="90.61" width="3.71" height="150.81" transform="translate(410.82 166.35) rotate(136.07)"/><rect class="cls-14" x="221.67" y="219.51" width="9.07" height="5.83" rx="1.55" transform="translate(-91.02 219.14) rotate(-43.92)"/><g class="cls-17"><rect class="cls-18" x="221.67" y="219.51" width="9.07" height="5.83" rx="1.55" transform="translate(-91.02 219.14) rotate(-43.92)"/></g><g class="cls-17"><rect class="cls-19" x="221.67" y="219.51" width="9.07" height="5.83" rx="1.55" transform="translate(-91.02 219.14) rotate(-43.92)"/></g><g class="cls-20"><rect class="cls-21" x="221.67" y="219.51" width="9.07" height="5.83" rx="1.55" transform="translate(-91.02 219.14) rotate(-43.92)"/></g><rect class="cls-22" x="237.97" y="218.63" width="9.71" height="42.11" rx="1.49" transform="translate(-98.34 235.52) rotate(-43.93)"/><g class="cls-17"><rect class="cls-23" x="237.97" y="218.63" width="9.71" height="42.11" rx="1.49" transform="translate(-98.34 235.52) rotate(-43.93)"/></g><g class="cls-17"><rect class="cls-24" x="237.97" y="218.63" width="9.71" height="42.11" rx="1.49" transform="translate(-98.34 235.52) rotate(-43.93)"/></g><g class="cls-25"><rect class="cls-26" x="237.97" y="218.63" width="9.71" height="42.11" rx="1.49" transform="translate(-98.34 235.52) rotate(-43.93)"/></g><path class="cls-14" d="M69.75,66.71c.69.72,2.75-.15,4.61-1.94s2.8-3.81,2.1-4.53-2.75.15-4.61,1.94S69.06,66,69.75,66.71Z"/><path class="cls-27" d="M69.75,66.71c.69.72,2.75-.15,4.61-1.94s2.8-3.81,2.1-4.53-2.75.15-4.61,1.94S69.06,66,69.75,66.71Z"/><path class="cls-14" d="M70.36,64.12l-8-9.77a1.41,1.41,0,0,1,.11-1.9h0a1.4,1.4,0,0,1,1.91,0l9.46,8.35Z"/><g class="cls-20"><path class="cls-28" d="M70.36,64.12l-8-9.77a1.41,1.41,0,0,1,.11-1.9h0a1.4,1.4,0,0,1,1.91,0l9.46,8.35Z"/></g><path class="cls-29" d="M74.18,63S142.28-3.72,228.28.16L266.36,3s-41.94,15.92-78.79,57.8c0,0-69.14,45.94-128.81,120.81,0,0-35.74,29.67-54,74.19C4.72,255.81-27,162.14,74.18,63Z"/><path class="cls-30" d="M74.18,63S142.28-3.72,228.28.16L266.36,3s-41.94,15.92-78.79,57.8c0,0-69.14,45.94-128.81,120.81,0,0-35.74,29.67-54,74.19C4.72,255.81-27,162.14,74.18,63Z"/><path class="cls-31" d="M74.18,63S142.28-3.72,228.28.16L266.36,3s-41.94,15.92-78.79,57.8c0,0-69.14,45.94-128.81,120.81,0,0-35.74,29.67-54,74.19C4.72,255.81-27,162.14,74.18,63Z"/><path class="cls-32" d="M74.18,63S142.28-3.72,228.28.16L266.36,3s-41.94,15.92-78.79,57.8c0,0-69.14,45.94-128.81,120.81,0,0-35.74,29.67-54,74.19C4.72,255.81-27,162.14,74.18,63Z"/><path class="cls-33" d="M108.14,36.83C136.23,18.61,179.35-2,228.28.16L266.36,3s-41.94,15.92-78.79,57.8C187.57,60.81,136.24,32.3,108.14,36.83Z"/><path class="cls-34" d="M108.14,36.83C136.23,18.61,179.35-2,228.28.16L266.36,3s-41.94,15.92-78.79,57.8C187.57,60.81,136.24,32.3,108.14,36.83Z"/><path class="cls-35" d="M108.14,36.83C136.23,18.61,179.35-2,228.28.16L266.36,3s-41.94,15.92-78.79,57.8C187.57,60.81,136.24,32.3,108.14,36.83Z"/><path class="cls-36" d="M4.72,255.81s-24.14-71.24,36.82-155.2c0,.22-1,35.27,17.22,81C58.76,181.62,23,211.29,4.72,255.81Z"/><path class="cls-37" d="M4.72,255.81s-24.14-71.24,36.82-155.2c0,.22-1,35.27,17.22,81C58.76,181.62,23,211.29,4.72,255.81Z"/><path class="cls-38" d="M4.72,255.81s-24.14-71.24,36.82-155.2c0,.22-1,35.27,17.22,81C58.76,181.62,23,211.29,4.72,255.81Z"/><path class="cls-39" d="M4,257.75c.11-14.34,115.77-25.08,258.34-24s258.05,13.6,257.94,27.94-115.77,25.08-258.34,24S3.88,272.09,4,257.75Z"/></g></g></g></svg>