<svg xmlns="http://www.w3.org/2000/svg" viewBox="0 0 403.4 403.19"><defs><style>.cls-1{fill:#f8b64c;}.cls-2{fill:#ffd15c;}</style></defs><g id="Layer_2" data-name="Layer 2"><g id="Capa_1" data-name="Capa 1"><path class="cls-1" d="M301.33,179.34a7.64,7.64,0,0,0-4.2-13l-57.7-8.4a7.52,7.52,0,0,1-5.7-4.2l-25.8-52.3a7.63,7.63,0,0,0-13.7,0l-25.7,52.3a7.94,7.94,0,0,1-5.7,4.2l-57.7,8.4a7.64,7.64,0,0,0-4.2,13l41.7,40.7a7.7,7.7,0,0,1,2.2,6.7l-9.8,57.4a7.62,7.62,0,0,0,11.1,8l51.6-27.1a7.45,7.45,0,0,1,7.1,0l51.6,27.1a7.66,7.66,0,0,0,11.1-8l-9.9-57.4a7.52,7.52,0,0,1,2.2-6.7Z"/><path class="cls-2" d="M12.48,131.5A201.94,201.94,0,0,0,55.66,340.61l38.66-37.07A146.34,146.34,0,0,1,62.18,149.91Z"/><path class="cls-2" d="M345.21,201.49A145.69,145.69,0,0,1,305,302.21l41.9,39.29a201.9,201.9,0,0,0,42.85-213.13L335.49,149A145.78,145.78,0,0,1,345.21,201.49Z"/><path class="cls-2" d="M294.85,311.9a146.21,146.21,0,0,1-190.2,1.26l-35.1,40.71a201.69,201.69,0,0,0,263.16,1Z"/><path class="cls-2" d="M209.27,55.66a146.21,146.21,0,0,1,120.67,80.75l51.94-25.64A201.73,201.73,0,0,0,212,.05Z"/><path class="cls-2" d="M67.68,137.2A146.2,146.2,0,0,1,195.4,55.34L192.82,0a201.72,201.72,0,0,0-173,114.12Z"/></g></g></svg>