<svg xmlns="http://www.w3.org/2000/svg" viewBox="0 0 283.24 293"><defs><style>.cls-1{fill:#f8b64c;}.cls-2{fill:#ffd15c;}</style></defs><g id="Layer_2" data-name="Layer 2"><g id="Capa_1" data-name="Capa 1"><path class="cls-1" d="M202.69,179.28a7.64,7.64,0,0,0-4.2-13l-57.7-8.4a7.52,7.52,0,0,1-5.7-4.2l-25.8-52.3a7.63,7.63,0,0,0-13.7,0l-25.7,52.3a7.94,7.94,0,0,1-5.7,4.2l-57.7,8.4a7.64,7.64,0,0,0-4.2,13L44,220a7.7,7.7,0,0,1,2.2,6.7l-9.8,57.4a7.62,7.62,0,0,0,11.1,8L99.09,265a7.45,7.45,0,0,1,7.1,0l51.6,27.1a7.66,7.66,0,0,0,11.1-8l-9.9-57.4a7.52,7.52,0,0,1,2.2-6.7Z"/><path class="cls-2" d="M110.63,55.61a146.24,146.24,0,0,1,120.68,80.75l51.93-25.65A201.74,201.74,0,0,0,113.33,0Z"/></g></g></svg>