<svg xmlns="http://www.w3.org/2000/svg" viewBox="0 0 333.85 403.14"><defs><style>.cls-1{fill:#f8b64c;}.cls-2{fill:#ffd15c;}</style></defs><g id="Layer_2" data-name="Layer 2"><g id="Capa_1" data-name="Capa 1"><path class="cls-1" d="M231.78,179.28a7.64,7.64,0,0,0-4.2-13l-57.7-8.4a7.52,7.52,0,0,1-5.7-4.2l-25.8-52.3a7.63,7.63,0,0,0-13.7,0L99,153.68a7.94,7.94,0,0,1-5.7,4.2l-57.7,8.4a7.64,7.64,0,0,0-4.2,13L73.08,220a7.7,7.7,0,0,1,2.2,6.7l-9.8,57.4a7.62,7.62,0,0,0,11.1,8l51.6-27.1a7.45,7.45,0,0,1,7.1,0l51.6,27.1a7.66,7.66,0,0,0,11.1-8l-9.9-57.4a7.52,7.52,0,0,1,2.2-6.7Z"/><path class="cls-2" d="M275.66,201.44a145.74,145.74,0,0,1-40.23,100.72l41.9,39.29a201.92,201.92,0,0,0,42.85-213.14L265.94,149A145.88,145.88,0,0,1,275.66,201.44Z"/><path class="cls-2" d="M225.3,311.84a146.19,146.19,0,0,1-190.2,1.27L0,353.82a201.69,201.69,0,0,0,263.16,1Z"/><path class="cls-2" d="M139.72,55.61a146.21,146.21,0,0,1,120.67,80.75l51.94-25.65A201.74,201.74,0,0,0,142.42,0Z"/></g></g></svg>