<svg xmlns="http://www.w3.org/2000/svg" xmlns:xlink="http://www.w3.org/1999/xlink" viewBox="0 0 320.01 384.17"><defs><style>.cls-1{fill:none;}.cls-2{clip-path:url(#clip-path);}</style><clipPath id="clip-path" transform="translate(-1)"><rect class="cls-1" width="322" height="384"/></clipPath></defs><g id="Layer_2" data-name="Layer 2"><g id="Capa_1" data-name="Capa 1"><g class="cls-2"><path d="M277.32,114.31l23-23L277.69,68.68l-24.6,24.6A159,159,0,0,0,177,64.8V32h32V0H113V32h32V64.8A159,159,0,0,0,68.91,93.28l-24.6-24.6L21.69,91.32l23,23a160,160,0,1,0,232.64,0ZM161,352A128,128,0,1,1,289,224,128,128,0,0,1,161,352Z" transform="translate(-1)"/></g><path d="M164,222.65,227.8,152.6C208.9,137,188.35,129.37,163.65,128v95h.69Z" transform="translate(-1)"/><path d="M167.43,225.34l94.66-4.42c-2.32-24.41-11.48-44.31-28-62.75l-67.18,67.17.49.49Z" transform="translate(-1)"/></g></g></svg>