<svg xmlns="http://www.w3.org/2000/svg" viewBox="0 0 70.07 43.36"><defs><style>.cls-1,.cls-2{fill:none;stroke-linecap:round;stroke-linejoin:round;stroke-width:2.5px;}.cls-1{stroke:#112639;}.cls-2{stroke:#0dbcc0;}</style></defs><g id="Layer_2" data-name="Layer 2"><g id="Layer_1-2" data-name="Layer 1"><path class="cls-1" d="M67.46,32.79A5.84,5.84,0,0,0,68.82,29V24.58A6.61,6.61,0,0,0,64,18.22L52.3,14.63,44.28,4a6.78,6.78,0,0,0-5.43-2.72h-11a8.64,8.64,0,0,0-7.24,3.93l-5.79,8.89-9.74,4.1a6.65,6.65,0,0,0-3.83,6v5.7a5,5,0,0,0,5,5"/><line class="cls-1" x1="30.5" y1="34.88" x2="42.14" y2="34.88"/><circle class="cls-2" cx="54.13" cy="34.3" r="7.81"/><circle class="cls-2" cx="18.17" cy="34.3" r="7.81"/></g></g></svg>