<svg xmlns="http://www.w3.org/2000/svg" viewBox="0 0 68.7 40.8"><defs><style>.cls-1,.cls-2{fill:none;stroke-linecap:round;stroke-linejoin:round;stroke-width:2.5px;}.cls-1{stroke:#0dbcc0;}.cls-2{stroke:#112639;}</style></defs><g id="Layer_2" data-name="Layer 2"><g id="Layer_1-2" data-name="Layer 1"><circle class="cls-1" cx="57.31" cy="29.41" r="10.14"/><circle class="cls-1" cx="11.39" cy="29.41" r="10.14"/><path class="cls-2" d="M26.63,33.94a16.16,16.16,0,0,0,.65-4.53,15.91,15.91,0,0,0-19-15.59L7.17,10.64l-2-5.75S22.29,9,30,11.6c2.34-6.22,8.28-6,13-4.55"/><path class="cls-2" d="M47.17,8.8l2.06-7.43C50.62.53,63.17,4.14,63.17,9.21a9.18,9.18,0,0,1-1.44,4.94A15.89,15.89,0,0,0,42.07,33.94h-10"/></g></g></svg>