<svg xmlns="http://www.w3.org/2000/svg" viewBox="0 0 372 216"><defs><style>.cls-1{fill:#a2cafd;}.cls-2{fill:#ccd1d9;}.cls-3{fill:#c0d9fb;}.cls-4{fill:#aab2bd;}</style></defs><g id="Layer_2" data-name="Layer 2"><g id="Layer_1-2" data-name="Layer 1"><path class="cls-1" d="M222,78v24H12a6,6,0,0,1-6-6V84a6,6,0,0,1,6-6Z"/><path class="cls-1" d="M222,102v72H138a36,36,0,0,0-72,0H30a12,12,0,0,1-12-12V150H48l.87-20.23L18,126V102Z"/><path class="cls-1" d="M366,144v18a12,12,0,0,1-12,12H330a35.91,35.91,0,0,0-12-26.82V66l-5.82-31.08A6,6,0,0,0,306.3,30H252a6,6,0,0,0-6,6V174H222V30A24.06,24.06,0,0,1,246,6h63.66a24,24,0,0,1,23.7,20L342,78l10.74,5.34A24.12,24.12,0,0,1,366,104.82V114H342v18Z"/><path class="cls-1" d="M318,90v57.18A36,36,0,0,0,258,174H246V90Z"/><path class="cls-1" d="M318,147.18A36,36,0,1,1,294,138a35.91,35.91,0,0,1,24,9.18Z"/><path class="cls-1" d="M102,138a36,36,0,1,1-36,36,36,36,0,0,1,36-36Z"/><path class="cls-2" d="M306,174a12,12,0,1,1-12-12,12,12,0,0,1,12,12Z"/><path class="cls-2" d="M114,174a12,12,0,1,1-12-12,12,12,0,0,1,12,12Z"/><path class="cls-3" d="M282,72a18,18,0,0,0,18,18H246V36a6,6,0,0,1,6-6h54.3a6,6,0,0,1,5.88,4.92L318,66H288a6,6,0,0,0-6,6Z"/><path class="cls-4" d="M318,66V90H300a18,18,0,0,1-18-18,6,6,0,0,1,6-6Z"/><rect class="cls-3" x="18" y="18" width="72" height="60"/><rect class="cls-3" x="90" y="18" width="72" height="60"/><rect class="cls-3" x="162" y="18" width="72" height="60"/><line class="cls-3" x1="126" y1="18" x2="54" y2="18"/><line class="cls-3" x1="198" y1="18" x2="126" y2="18"/><path class="cls-1" d="M198,18h27.24A23.94,23.94,0,0,0,222,30V42H186V18Z"/><rect class="cls-1" x="114" y="18" width="24" height="24"/><rect class="cls-1" x="42" y="18" width="24" height="24"/><path d="M294,156a18,18,0,1,0,18,18,18,18,0,0,0-18-18Zm0,24a6,6,0,1,1,6-6,6,6,0,0,1-6,6Z"/><path d="M102,156a18,18,0,1,0,18,18,18,18,0,0,0-18-18Zm0,24a6,6,0,1,1,6-6,6,6,0,0,1-6,6Z"/><path d="M48,12H12V72A12,12,0,0,0,0,84V96a12,12,0,0,0,12,12v54a18,18,0,0,0,18,18H60.48a41.94,41.94,0,0,0,83,0h109a41.94,41.94,0,0,0,83,0H354a18,18,0,0,0,18-18V104.83A29.85,29.85,0,0,0,355.41,78h0l-8-4-8.15-48.93A29.91,29.91,0,0,0,309.66,0H246a29.85,29.85,0,0,0-23.84,12H204M360,130.15l-9.2-.46a5,5,0,0,1-2.8-4.53V123.9a3.91,3.91,0,0,1,3.9-3.9H360ZM120,24h12V36H120Zm24,24V24h12V72H96V24h12V48Zm72,24H168V24h12V48h36Zm0-42v6H192V24h24.6a30.45,30.45,0,0,0-.6,6ZM192,12H132m-12,0H60M48,24H60V36H48ZM24,24H36V48H72V24H84V72H24ZM12,84H216V96H12Zm12,48H39.42a5.38,5.38,0,0,1,5.22,6.68h0c.39,3.44-2.66,5.57-6.81,5.32H24Zm0,30v-6H41.83a13.9,13.9,0,0,0,13.49-10.54h0A20.49,20.49,0,0,0,35.44,120H24V108H216v60H143.52a41.94,41.94,0,0,0-83,0H30a6,6,0,0,1-6-6Zm78,42a30,30,0,1,1,30-30,30,30,0,0,1-30,30ZM288,72h24V84H300a12,12,0,0,1-12-12Zm0-12a12,12,0,0,0-12,12,23.71,23.71,0,0,0,3.34,12H252V36h54.28l4.49,24ZM252,96h60v40.11A41.84,41.84,0,0,0,252.48,168H252Zm42,108a30,30,0,1,1,30-30,30,30,0,0,1-30,30Zm60-36H335.52A41.9,41.9,0,0,0,324,144.66V66l-5.92-32.2a12,12,0,0,0-11.8-9.8H252a12,12,0,0,0-12,12V168H228V30a18,18,0,0,1,18-18h63.66a18,18,0,0,1,17.76,15l9.16,55,13.47,6.73a17.92,17.92,0,0,1,9.95,16.1V108H348.74A12.74,12.74,0,0,0,336,120.74V126a15.59,15.59,0,0,0,3.6,10,11.89,11.89,0,0,0,8.44,4.22l12,.76v21a6,6,0,0,1-6,6Z"/></g></g></svg>