<svg xmlns="http://www.w3.org/2000/svg" viewBox="0 0 70.07 43.39"><defs><style>.cls-1,.cls-2{fill:#fff;stroke-linecap:round;stroke-linejoin:round;stroke-width:2.5px;}.cls-1{stroke:#1b3660;}.cls-2{stroke:#f39728;}</style></defs><g id="Layer_2" data-name="Layer 2"><g id="Layer_1-2" data-name="Layer 1"><path class="cls-1" d="M67.46,32.82a5.82,5.82,0,0,0,1.36-3.75V24.61A6.6,6.6,0,0,0,64,18.25l-11.7-3.59L44.28,4a6.8,6.8,0,0,0-5.43-2.72h-11a8.64,8.64,0,0,0-7.24,3.93l-5.79,8.89-9.74,4.1a6.64,6.64,0,0,0-3.83,6v5.7a5,5,0,0,0,5,5"/><line class="cls-1" x1="30.5" y1="34.91" x2="42.14" y2="34.91"/><circle class="cls-2" cx="54.13" cy="34.33" r="7.81"/><circle class="cls-2" cx="18.17" cy="34.33" r="7.81"/></g></g></svg>