<svg xmlns="http://www.w3.org/2000/svg" viewBox="0 0 56.45 56.13"><defs><style>.cls-1,.cls-2{fill:none;stroke-linecap:round;stroke-linejoin:round;stroke-width:2.5px;}.cls-1{stroke:#1b3660;}.cls-2{stroke:#f39728;}</style></defs><g id="Layer_2" data-name="Layer 2"><g id="Layer_1-2" data-name="Layer 1"><path class="cls-1" d="M45.21,8.6h3.12A6.87,6.87,0,0,1,55.18,16l-2.4,32.55a6.86,6.86,0,0,1-6.85,6.36H10.52a6.86,6.86,0,0,1-6.85-6.36L1.27,16A6.87,6.87,0,0,1,8.12,8.6h3.11"/><polyline class="cls-2" points="34.97 20.33 28.23 27.62 35.45 43.51 28.23 49.51"/><polyline class="cls-2" points="21.48 20.33 28.23 27.62 21 43.51 28.23 49.51"/><polygon class="cls-1" points="40.9 1.25 28.23 15.58 38.12 22.55 45.22 8.6 40.9 1.25"/><polygon class="cls-1" points="15.55 1.25 28.23 15.58 18.34 22.55 11.24 8.6 15.55 1.25"/><line class="cls-1" x1="40.9" y1="1.25" x2="15.55" y2="1.25"/></g></g></svg>