<svg xmlns="http://www.w3.org/2000/svg" viewBox="0 0 59.37 59.74"><defs><style>.cls-1,.cls-2{fill:#fff;stroke-linecap:round;stroke-linejoin:round;stroke-width:2.5px;}.cls-1{stroke:#1b3660;}.cls-2{stroke:#f39728;}</style></defs><g id="Layer_2" data-name="Layer 2"><g id="Layer_1-2" data-name="Layer 1"><g id="Iconly_Light_Home" data-name="Iconly Light Home"><g id="Home-5"><path id="Home-6" class="cls-1" d="M38.36,49.38v5.45A3.66,3.66,0,0,0,42,58.49h10a6.2,6.2,0,0,0,6.21-6.2V24.71A7.32,7.32,0,0,0,55.24,19L35.54,3.3a9.52,9.52,0,0,0-11.8,0L4.13,19a7.25,7.25,0,0,0-2.88,5.7V52.29a6.2,6.2,0,0,0,6.21,6.2h10a3.7,3.7,0,0,0,3.72-3.67h0"/><path id="Home-6-2" data-name="Home-6" class="cls-1" d="M21.17,54.82V41.89a4.29,4.29,0,0,1,3.08-4.08"/></g></g><path class="cls-2" d="M33,26.2s.23,8.23,5.54,8.28c-2.44-7.71.92-13.33,6.52-16.3C44.82,28.53,48.28,30,48.28,35.46A9.27,9.27,0,0,1,39,44.73c-5.12,0-10.26-3-10.26-9.27A11.75,11.75,0,0,1,33,26.2Z"/></g></g></svg>