<svg xmlns="http://www.w3.org/2000/svg" viewBox="0 0 68.7 40.8"><defs><style>.cls-1,.cls-2{fill:#fff;stroke-linecap:round;stroke-linejoin:round;stroke-width:2.5px;}.cls-1{stroke:#f39728;}.cls-2{stroke:#1b3660;}</style></defs><g id="Layer_2" data-name="Layer 2"><g id="Layer_1-2" data-name="Layer 1"><circle class="cls-1" cx="57.31" cy="29.41" r="10.14"/><circle class="cls-1" cx="11.39" cy="29.41" r="10.14"/><path class="cls-2" d="M26.63,33.94a16.16,16.16,0,0,0,.65-4.53A15.92,15.92,0,0,0,11.39,13.52a15.64,15.64,0,0,0-3.09.3L7.17,10.64l-2-5.75S22.29,9,30,11.6c2.34-6.22,8.28-6,13-4.55"/><path class="cls-2" d="M47.17,8.8l2.06-7.43C50.62.53,63.17,4.14,63.17,9.21a9.16,9.16,0,0,1-1.44,4.94,15.74,15.74,0,0,0-4.42-.63A15.89,15.89,0,0,0,42.07,33.94h-10"/></g></g></svg>