<svg xmlns="http://www.w3.org/2000/svg" viewBox="0 0 104.17 104.17"><defs><style>.cls-1{fill:#e7eced;}.cls-2{fill:#06628f;}</style></defs><g id="Layer_2" data-name="Layer 2"><g id="Layer_1-2" data-name="Layer 1"><path class="cls-1" d="M36.58,81.67,21,90.15a14.36,14.36,0,0,0-2.49,1.77,52.06,52.06,0,0,0,66.88.18,13.54,13.54,0,0,0-2.74-1.84L66.05,81.94a6.35,6.35,0,0,1-3.51-5.68V69.73a23.35,23.35,0,0,0,1.57-2,38.22,38.22,0,0,0,5.18-10.43,5.22,5.22,0,0,0,3.7-5v-7a5.2,5.2,0,0,0-1.74-3.86V31.4s2.07-15.67-19.16-15.67S32.92,31.4,32.92,31.4V41.48a5.2,5.2,0,0,0-1.74,3.86v7a5.25,5.25,0,0,0,2.41,4.39,34.51,34.51,0,0,0,6.3,13V76.1A6.34,6.34,0,0,1,36.58,81.67Z"/><path class="cls-2" d="M53,0a52.05,52.05,0,0,0-34.41,91.9A14,14,0,0,1,21,90.15l15.54-8.48a6.34,6.34,0,0,0,3.31-5.57V69.73a34.51,34.51,0,0,1-6.3-13,5.25,5.25,0,0,1-2.41-4.39v-7a5.2,5.2,0,0,1,1.74-3.86V31.4S30.85,15.72,52.08,15.72,71.25,31.4,71.25,31.4V41.48A5.2,5.2,0,0,1,73,45.34v7a5.22,5.22,0,0,1-3.71,5,38.33,38.33,0,0,1-5.17,10.43,23.25,23.25,0,0,1-1.58,2v6.53A6.35,6.35,0,0,0,66,81.94l16.65,8.32a14.16,14.16,0,0,1,2.73,1.83A52.07,52.07,0,0,0,53,0Z"/></g></g></svg>