<svg xmlns="http://www.w3.org/2000/svg" viewBox="0 0 63.26 47.63"><defs><style>.cls-1,.cls-2{fill:none;stroke-linecap:round;stroke-linejoin:round;stroke-width:2.5px;}.cls-1{stroke:#1b3660;}.cls-2{stroke:#f39728;}</style></defs><g id="Layer_2" data-name="Layer 2"><g id="Layer_1-2" data-name="Layer 1"><path class="cls-1" d="M35.13,1.25H15.83a4.36,4.36,0,0,0-4,2.63L9,10.51"/><path class="cls-1" d="M3.51,40.33v1.24A3.08,3.08,0,0,0,6.6,44.65h3.69a3.08,3.08,0,0,0,3.09-3.08V40.33"/><path class="cls-1" d="M24.78,36H6.08a4.83,4.83,0,0,1-4.83-4.83v-9A7.81,7.81,0,0,1,9.06,14.4H30.82"/><circle class="cls-1" cx="11.71" cy="24.9" r="4.05"/><circle id="Ellipse_736" data-name="Ellipse 736" class="cls-2" cx="45.7" cy="11" r="9.69"/><path class="cls-2" d="M54.89,45.44a29.53,29.53,0,0,1-4.75.75c-1.48.12-3,.2-4.44.19s-3-.07-4.43-.19a29.35,29.35,0,0,1-4.75-.75c-5.08-1.33-8.13-5.74-6.81-11.56A9.18,9.18,0,0,1,32.49,29a7.44,7.44,0,0,1,4-1.73,29.31,29.31,0,0,1,4.75-.73,44.81,44.81,0,0,1,8.87,0,29.48,29.48,0,0,1,4.75.73,7.44,7.44,0,0,1,4,1.73,9.24,9.24,0,0,1,2.78,4.93C63,39.7,60,44.11,54.89,45.44Z"/></g></g></svg>