<svg xmlns="http://www.w3.org/2000/svg" viewBox="0 0 384 143.52"><defs><style>.cls-1{fill:#c0d9fb;}.cls-2{fill:#a2cafd;}.cls-3{font-size:41px;font-family:ArialRoundedMTBold, Arial Rounded MT Bold;}</style></defs><g id="Layer_2" data-name="Layer 2"><g id="Layer_1-2" data-name="Layer 1"><path class="cls-1" d="M370.65,64.94c-10.14-7.12-31.44-17.23-70.43-17.23h-6L217.32,11.83a66.06,66.06,0,0,0-28-6.21H122.48A42,42,0,0,0,105.9,9L36.48,38.78A36.14,36.14,0,0,1,22.27,41.7H17.65a12,12,0,0,0-12,12V91.78a12,12,0,0,0,9.88,11.83l56.26,10.23v6H366.35a12,12,0,0,0,12-12V79.75a18,18,0,0,0-7.72-14.81Z"/><path class="cls-2" d="M114.79,22.54l-17.63,8a7.4,7.4,0,0,0,3,14.14h69.18V20.65H123.5a21,21,0,0,0-8.71,1.89Z"/><path class="cls-2" d="M372.71,95.81a12.39,12.39,0,0,1-10.94-7,42.07,42.07,0,0,0-75,0,12.39,12.39,0,0,1-10.94,7H155.93v-24H98.4A19.05,19.05,0,0,1,90,70a41.37,41.37,0,0,0-36.53,0,19.08,19.08,0,0,1-8.41,1.76H5.62v20a11.72,11.72,0,0,0,.19,2.07,12.57,12.57,0,0,0,.51,1.94v0a12,12,0,0,0,9.17,7.8l56.26,10.23,12,6H366.35a12,12,0,0,0,12-12v-12Z"/><path class="cls-1" d="M155.93,71.76H131.88L146.31,91a12,12,0,0,0,9.62,4.81h24L165.55,76.57a12,12,0,0,0-9.62-4.81Z"/><path class="cls-1" d="M354.33,107.83a30.06,30.06,0,1,1-30.06-30.06,30.06,30.06,0,0,1,30.06,30.06Z"/><path class="cls-1" d="M101.82,107.83A30.06,30.06,0,1,1,71.76,77.77a30.06,30.06,0,0,1,30.06,30.06Z"/><path class="cls-2" d="M150.53,41.41a18,18,0,0,0,13.69,6.3h130L217.32,11.83a66.27,66.27,0,0,0-20.4-5.76H120.24Z"/><path class="cls-1" d="M217.32,11.83a66.27,66.27,0,0,0-20.4-5.76H120.24l15.07,17.59H242.67Z"/><path d="M373.91,60.35c-21.52-15.1-52-18.26-73.69-18.26h-4.77L219.7,6.73A72.15,72.15,0,0,0,189.35,0H122.48a47.41,47.41,0,0,0-18.79,3.86L34.26,33.61a30.3,30.3,0,0,1-12,2.46H17.65A17.67,17.67,0,0,0,0,53.72V91.91a17.68,17.68,0,0,0,14.28,17.32l22.26,4.33a35.66,35.66,0,0,0,66.21,11.92H293.27a35.65,35.65,0,0,0,62,0h11.09A17.67,17.67,0,0,0,384,107.83V79.75a23.72,23.72,0,0,0-10.09-19.4Zm-159-43.42,53.91,25.16H188.57L162.15,11.25h27.2a60.81,60.81,0,0,1,25.59,5.68Zm-67.61-5.68,26.43,30.84h-9.54a12.42,12.42,0,0,1-9.42-4.34l-22.71-26.5Zm-40.47,103a35.89,35.89,0,0,0-.13-13.53,5.63,5.63,0,1,0-11,2.24,24.44,24.44,0,1,1-48.38,4.89A24.47,24.47,0,0,1,71.76,83.39a24.22,24.22,0,0,1,9.8,2,5.63,5.63,0,0,0,4.52-10.31,35.7,35.7,0,0,0-49.54,27L16.43,98.19a6.41,6.41,0,0,1-5.18-6.28V71.37h6.4a5.63,5.63,0,0,0,0-11.25h-6.4v-6.4a6.41,6.41,0,0,1,6.4-6.4h4.62A41.35,41.35,0,0,0,38.69,44L108.12,14.2a36,36,0,0,1,9.44-2.61l28.7,33.48a23.64,23.64,0,0,0,18,8.27h136c15,0,41.85,1.75,61.72,12.79h-1.6a5.63,5.63,0,1,0,0,11.25h12.18a12.53,12.53,0,0,1,.23,2.37V90.18H355.26a35.65,35.65,0,0,0-62,0H282.18a5.63,5.63,0,0,0,0,11.25h7a35,35,0,0,0,0,12.8Zm217.41,18a24.44,24.44,0,1,1,24.43-24.43,24.45,24.45,0,0,1-24.43,24.43Zm42.08-18h-7a35.6,35.6,0,0,0,0-12.8h13.38v6.4a6.41,6.41,0,0,1-6.4,6.4Z"/><path d="M71.76,96.19a11.64,11.64,0,1,0,11.63,11.64A11.65,11.65,0,0,0,71.76,96.19Z"/><path d="M324.27,96.19a11.64,11.64,0,1,0,11.63,11.64,11.65,11.65,0,0,0-11.63-11.64Z"/><text class="cls-3" transform="translate(143.52 98.43)">TAXI</text></g></g></svg>