<svg xmlns="http://www.w3.org/2000/svg" viewBox="0 0 384 186.26"><defs><style>.cls-1{fill:#c0d9fb;}.cls-2{fill:#a2cafd;}.cls-3{font-size:41px;font-family:ArialRoundedMTBold, Arial Rounded MT Bold;}</style></defs><g id="Layer_2" data-name="Layer 2"><g id="Layer_1-2" data-name="Layer 1"><path class="cls-1" d="M370.65,107.68c-10.14-7.11-31.44-17.22-70.43-17.22h-6L217.32,54.57a66.2,66.2,0,0,0-28-6.2H122.48a42.18,42.18,0,0,0-16.58,3.4L35.33,69.64a36.13,36.13,0,0,1-14.21,2.91H16.5c-6.64,0-10.88,17.27-10.88,23.92v38.06a12,12,0,0,0,9.88,11.83l56.26,10.23v6H366.35a12,12,0,0,0,12-12V122.5a18.05,18.05,0,0,0-7.73-14.82Z"/><path class="cls-2" d="M91.19,68.29,49.78,78.86A7.4,7.4,0,0,0,52.84,93l93-2.55v-24H99.9a21,21,0,0,0-8.71,1.88Z"/><path class="cls-2" d="M372.71,138.55a12.38,12.38,0,0,1-10.94-7,42.06,42.06,0,0,0-75,0,12.38,12.38,0,0,1-10.94,7H155.93V114.5H98.4A19,19,0,0,1,90,112.75a41.29,41.29,0,0,0-36.53,0,19.07,19.07,0,0,1-8.41,1.75H5.62v20a11.6,11.6,0,0,0,.19,2.06,12.69,12.69,0,0,0,.51,1.95,0,0,0,0,0,0,0,12,12,0,0,0,9.17,7.81l56.26,10.23,12,6H366.35a12,12,0,0,0,12-12v-12Z"/><path class="cls-1" d="M155.93,114.5H131.88l14.43,19.24a12,12,0,0,0,9.62,4.81h24l-14.43-19.24a12.07,12.07,0,0,0-9.62-4.81Z"/><path class="cls-1" d="M354.33,150.57a30.06,30.06,0,1,1-30.06-30,30.06,30.06,0,0,1,30.06,30.05Z"/><path class="cls-1" d="M101.82,150.57a30.06,30.06,0,1,1-30.06-30,30.06,30.06,0,0,1,30.06,30.05Z"/><path class="cls-2" d="M150.53,84.16a18.07,18.07,0,0,0,13.69,6.3h130L217.32,54.57a66.25,66.25,0,0,0-20.4-5.75H120.24Z"/><path class="cls-1" d="M217.32,54.57a66.25,66.25,0,0,0-20.4-5.75H120.24l15.07,17.59H242.67Z"/><path d="M373.91,103.09C352.39,88,322,84.83,300.22,84.83h-4.77L219.7,49.48a72.15,72.15,0,0,0-30.35-6.73H122.48a47.4,47.4,0,0,0-18.79,3.85l-62,16.8c-3.81,1.63-15,1.89-19.13,1.89L1.74,66.41A285.38,285.38,0,0,0,0,96.47v38.18A17.69,17.69,0,0,0,14.28,152l22.26,4.33a35.67,35.67,0,0,0,66.21,11.91H293.27a35.65,35.65,0,0,0,62,0h11.09A17.67,17.67,0,0,0,384,150.57V122.5a23.74,23.74,0,0,0-10.09-19.41Zm-159-43.42,53.91,25.16H188.57L162.15,54h27.2a61,61,0,0,1,25.59,5.67ZM147.33,54l26.43,30.83h-9.54a12.41,12.41,0,0,1-9.42-4.33L132.09,54ZM106.86,157a35.84,35.84,0,0,0-.13-13.52,5.63,5.63,0,0,0-11,2.23,24.39,24.39,0,1,1-14.14-17.5,5.62,5.62,0,0,0,4.52-10.3,35.7,35.7,0,0,0-49.54,27l-20.11-3.91a6.41,6.41,0,0,1-5.18-6.28V95.41h6.4a5.63,5.63,0,0,0,0-11.25h-6.4l-.32-2.34a6.41,6.41,0,0,1,6.4-6.4l11.76-.58c5.68,0,11.93.11,17.15-2.13l61.88-15.77a36,36,0,0,1,9.44-2.6l28.7,33.48a23.63,23.63,0,0,0,18,8.26h136c15,0,41.85,1.76,61.72,12.8h-1.6a5.63,5.63,0,1,0,0,11.25h12.18a12.37,12.37,0,0,1,.23,2.37v10.43H355.26a35.65,35.65,0,0,0-62,0H282.18a5.63,5.63,0,0,0,0,11.25h7a35,35,0,0,0,0,12.79Zm217.41,18a24.44,24.44,0,1,1,24.43-24.44A24.46,24.46,0,0,1,324.27,175Zm42.08-18h-7a35.55,35.55,0,0,0,0-12.79h13.38v6.39a6.41,6.41,0,0,1-6.4,6.4Z"/><path d="M71.76,138.94a11.64,11.64,0,1,0,11.63,11.63,11.65,11.65,0,0,0-11.63-11.63Z"/><path d="M324.27,138.94a11.64,11.64,0,1,0,11.63,11.63,11.65,11.65,0,0,0-11.63-11.63Z"/><text class="cls-3" transform="translate(143.52 141.18)">TAXI</text><path d="M148.26,12.38H92.52A6.19,6.19,0,1,1,92.52,0h55.74a6.19,6.19,0,0,1,0,12.38Z"/><path d="M129.68,31H43a6.19,6.19,0,1,1,0-12.38h86.71a6.19,6.19,0,0,1,0,12.38Z"/></g></g></svg>