<svg xmlns="http://www.w3.org/2000/svg" xmlns:xlink="http://www.w3.org/1999/xlink" viewBox="0 0 384 300.25"><defs><style>.cls-1{fill:none;}.cls-2{fill:#8b9ba9;}.cls-3{fill:#c0d9fb;}.cls-4{fill:#a2cafd;}.cls-5{fill:#e9e3d5;}.cls-6{clip-path:url(#clip-path);}</style><clipPath id="clip-path" transform="translate(0 0)"><rect class="cls-1" width="384" height="301"/></clipPath></defs><g id="Layer_2" data-name="Layer 2"><g id="Layer_1-2" data-name="Layer 1"><path class="cls-2" d="M192,46.43a18.79,18.79,0,0,0-14.39-18.24,5.62,5.62,0,0,1-4.36-5.47V11.26a5.62,5.62,0,0,1,6.48-5.57A41.32,41.32,0,0,1,214.5,46.43v15H192Z" transform="translate(0 0)"/><path class="cls-3" d="M16.88,215.88A11.25,11.25,0,0,0,5.63,227.13V244a11.24,11.24,0,0,0,11.25,11.25H372V176.5a15,15,0,0,0-15-15H319.5L307.7,109a22.51,22.51,0,0,0-21.95-17.57H274.5a39.37,39.37,0,0,0-39.37-39.37H192V215.88Z" transform="translate(0 0)"/><path class="cls-4" d="M5.63,232.75V244a11.24,11.24,0,0,0,11.25,11.25h314.7v-22.5h-80.2c7.54-19.23,25.77-33.82,46.4-38.09V161.5H233.22v71.25H214.5V91.43h60a39.21,39.21,0,0,0-7.07-22.5H214.5V52.06H192V232.75Z" transform="translate(0 0)"/><path class="cls-3" d="M372.75,255.25a5.62,5.62,0,0,0,5.63-5.62V238.38a5.63,5.63,0,0,0-5.63-5.63H331.58v22.5Z" transform="translate(0 0)"/><path class="cls-3" d="M309,294.63a39.38,39.38,0,1,1,39.38-39.38A39.42,39.42,0,0,1,309,294.63Z" transform="translate(0 0)"/><path class="cls-4" d="M301,216.71a39.38,39.38,0,1,0,46.59,46.59,22.51,22.51,0,0,0-26.61,3.89l-23.86-23.87A22.51,22.51,0,0,0,301,216.71Z" transform="translate(0 0)"/><path class="cls-5" d="M292.13,255.25A16.88,16.88,0,1,1,309,272.13a16.87,16.87,0,0,1-16.87-16.88Z" transform="translate(0 0)"/><path class="cls-3" d="M138.75,294.63a39.38,39.38,0,1,1,39.38-39.38,39.42,39.42,0,0,1-39.38,39.38Z" transform="translate(0 0)"/><path class="cls-4" d="M130.7,216.71a39.38,39.38,0,1,0,46.6,46.59,22.52,22.52,0,0,0-26.62,3.89l-23.86-23.87a22.51,22.51,0,0,0,3.88-26.61Z" transform="translate(0 0)"/><path class="cls-5" d="M121.88,255.25a16.88,16.88,0,1,1,16.87,16.88,16.87,16.87,0,0,1-16.87-16.88Z" transform="translate(0 0)"/><path class="cls-3" d="M60,294.63a39.38,39.38,0,1,1,39.38-39.38A39.42,39.42,0,0,1,60,294.63Z" transform="translate(0 0)"/><path class="cls-4" d="M52,216.71a39.38,39.38,0,1,0,46.6,46.59,22.52,22.52,0,0,0-26.62,3.89L48.07,243.32A22.51,22.51,0,0,0,52,216.71Z" transform="translate(0 0)"/><path class="cls-5" d="M43.13,255.25A16.88,16.88,0,1,1,60,272.13a16.87,16.87,0,0,1-16.87-16.88Z" transform="translate(0 0)"/><path class="cls-4" d="M233.22,161.5h64.56l-10.69-47.57H233.22Z" transform="translate(0 0)"/><path class="cls-4" d="M254.38,113.93H233.22V161.5h64.56L292.72,139H254.38Z" transform="translate(0 0)"/><path d="M292.59,245.65a5.61,5.61,0,0,0-5.46,4.3A22.5,22.5,0,1,0,309,232.75,5.63,5.63,0,0,0,309,244a11.27,11.27,0,1,1-10.93,8.6,5.64,5.64,0,0,0-5.48-6.95Z" transform="translate(0 0)"/><path d="M123.67,245.8a5.62,5.62,0,0,0-6.79,4.16,22.49,22.49,0,1,0,21.87-17.21,5.63,5.63,0,0,0,0,11.25,11.25,11.25,0,1,1-11.25,11.25,11.18,11.18,0,0,1,.32-2.65,5.66,5.66,0,0,0-4.15-6.8Z" transform="translate(0 0)"/><g class="cls-6"><path d="M44.92,245.8A5.62,5.62,0,0,0,38.13,250,22.5,22.5,0,1,0,60,232.75,5.63,5.63,0,0,0,60,244a11.25,11.25,0,1,1-11.25,11.25,11.18,11.18,0,0,1,.32-2.65,5.66,5.66,0,0,0-4.15-6.8Z" transform="translate(0 0)"/><path d="M16.88,210.25A16.9,16.9,0,0,0,0,227.13V244a16.9,16.9,0,0,0,15.36,16.81,45,45,0,0,0,84,16.2,45,45,0,0,0,84-16.13h81a45,45,0,0,0,89.28,0h19.11A11.26,11.26,0,0,0,384,249.63V238.38a11.26,11.26,0,0,0-6.37-10.12V176.5A20.65,20.65,0,0,0,357,155.87H324l-10.82-48.1a28,28,0,0,0-27.43-22h-6a45.07,45.07,0,0,0-44.65-39.38h-15A47,47,0,0,0,180.61.14a11.13,11.13,0,0,0-9,2.55,11.27,11.27,0,0,0-4,8.57V22.72a11.25,11.25,0,0,0,8.67,11,13.09,13.09,0,0,1,10.08,12.76V210.25Zm162-199a35.87,35.87,0,0,1,30,35.17H197.63a24.3,24.3,0,0,0-18.71-23.7l0-11.47ZM353.65,249.63a44.53,44.53,0,0,0-2.94-11.25h22v11.25ZM309,289a33.75,33.75,0,1,1,33.75-33.75A33.79,33.79,0,0,1,309,289ZM183.39,249.63a45,45,0,0,0-14.92-28.13H192a5.62,5.62,0,0,0,5.63-5.62V97.07H252a5.63,5.63,0,1,0,0-11.26H197.63V57.68h37.5a33.79,33.79,0,0,1,33.75,33.75,5.65,5.65,0,0,0,5.62,5.64h11.25a16.79,16.79,0,0,1,16.46,13.17l11.8,52.5a5.63,5.63,0,0,0,5.49,4.39H357a9.39,9.39,0,0,1,9.38,9.38v50.63H344.09a45,45,0,0,0-79.73,22.5ZM138.75,289a33.75,33.75,0,0,1,0-67.5h0a33.75,33.75,0,0,1,0,67.5ZM99.38,233.5a45.47,45.47,0,0,0-9.66-12H109a45.07,45.07,0,0,0-9.66,12ZM60,289a33.75,33.75,0,0,1,0-67.5h0A33.75,33.75,0,0,1,60,289ZM11.25,227.13a5.64,5.64,0,0,1,5.63-5.63H30.29a45,45,0,0,0-14.9,27.93A5.65,5.65,0,0,1,11.25,244Z" transform="translate(0 0)"/></g><path d="M207,227.13a5.63,5.63,0,0,0,0,11.25h44.38a5.65,5.65,0,0,0,5.23-3.57,56.82,56.82,0,0,1,41-34.63,5.65,5.65,0,0,0,4.48-5.52V184a5.63,5.63,0,0,0-11.25,0v6.24a67.74,67.74,0,0,0-43.15,36.89h-8.81v-60h58.93a5.61,5.61,0,0,0,5.49-6.85l-10.7-47.57a5.61,5.61,0,0,0-5.48-4.39H233.22a5.63,5.63,0,0,0-5.63,5.62v113.2Zm31.84-107.57h43.75l8.16,36.31H238.84Z" transform="translate(0 0)"/></g></g></svg>