<svg xmlns="http://www.w3.org/2000/svg" viewBox="0 0 372 282"><defs><style>.cls-1{fill:#a2cafd;}</style></defs><g id="Layer_2" data-name="Layer 2"><g id="Layer_1-2" data-name="Layer 1"><path class="cls-1" d="M108,240H84a12,12,0,0,0-24,0H36a36,36,0,0,1,72,0Z"/><path class="cls-1" d="M336,240H312a12,12,0,0,0-24,0H264a36,36,0,0,1,72,0Z"/><path class="cls-1" d="M366,144H264V78h59.57Z"/><path class="cls-1" d="M348,168h18v24H348a12,12,0,0,1,0-24Z"/><path class="cls-1" d="M72,204a36,36,0,1,0,36,36,36,36,0,0,0-36-36Zm0,48a12,12,0,1,1,12-12,12,12,0,0,1-12,12Z"/><path class="cls-1" d="M300,204a36,36,0,1,0,36,36,36,36,0,0,0-36-36Zm0,48a12,12,0,1,1,12-12,12,12,0,0,1-12,12Z"/><path class="cls-1" d="M234,21V168H6V21A15,15,0,0,1,21,6H219a15,15,0,0,1,15,15Z"/><path class="cls-1" d="M366,144H264V78h59.57Z"/><path class="cls-1" d="M366,168v24H348a12,12,0,0,1,0-24Z"/><path d="M72,222a18,18,0,1,0,18,18,18,18,0,0,0-18-18Zm0,24a6,6,0,1,1,6-6,6,6,0,0,1-6,6Z"/><path d="M300,222a18,18,0,1,0,18,18,18,18,0,0,0-18-18Zm0,24a6,6,0,1,1,6-6,6,6,0,0,1-6,6Z"/><path d="M368.78,137.23,317.05,56.75A6,6,0,0,0,312,54H240V21A21,21,0,0,0,219,0H21A21,21,0,0,0,0,21V240a6,6,0,0,0,6,6H30.43a42,42,0,0,0,83.14,0H258.43a42,42,0,0,0,83.14,0H366a6,6,0,0,0,6-6V148.19a20.28,20.28,0,0,0-3.22-11ZM72,270a30,30,0,1,1,30-30,30,30,0,0,1-30,30Zm156-36H113.57a42,42,0,0,0-83.14,0H12V174H228Zm0-72H12V21a9,9,0,0,1,9-9H219a9,9,0,0,1,9,9Zm95.06-73.7L355,138H270V84h45.19A9.36,9.36,0,0,1,323.06,88.3ZM300,270a30,30,0,1,1,30-30,30,30,0,0,1-30,30Zm60-84H348a6,6,0,0,1,0-12h12Zm-6.16-24h-5.41c-9.76,0-18.07,7.59-18.42,17.34A18,18,0,0,0,348,198h12v36H341.57a42,42,0,0,0-83.14,0H240V66h66.12a4.76,4.76,0,0,1,4,2.19l.68,1a1.79,1.79,0,0,1-1.5,2.76H264a6,6,0,0,0-6,6v66a6,6,0,0,0,6,6h90.81a5.19,5.19,0,0,1,5.19,5.19v.65A6.16,6.16,0,0,1,353.84,162Z"/><path d="M282,162H264a6,6,0,0,0,0,12h18a6,6,0,0,0,0-12Z"/><path d="M156,198h48a6,6,0,0,0,0-12H156a6,6,0,0,0,0,12Z"/><path d="M204,204H186a6,6,0,0,0,0,12h18a6,6,0,0,0,0-12Z"/></g></g></svg>