<svg xmlns="http://www.w3.org/2000/svg" viewBox="0 0 384 247.74"><defs><style>.cls-1{fill:#a2cafd;}.cls-2{fill:#c0d9fb;}.cls-3{fill:#b5a19c;}</style></defs><g id="Layer_2" data-name="Layer 2"><g id="Layer_1-2" data-name="Layer 1"><path class="cls-1" d="M31.89,61.93H213.64A54.68,54.68,0,0,1,251.1,76.77l56.76,53.29h10.71a59.23,59.23,0,0,1,59.23,59.23,21.28,21.28,0,0,1-21.28,21.29H34.28A28.09,28.09,0,0,1,6.19,182.49V87.62a25.7,25.7,0,0,1,25.7-25.69Z"/><path d="M356.52,216.77H34.28A34.32,34.32,0,0,1,0,182.49V87.62A31.92,31.92,0,0,1,31.89,55.74H213.64a60.7,60.7,0,0,1,41.7,16.51l55,51.62h8.26A65.49,65.49,0,0,1,384,189.29a27.5,27.5,0,0,1-27.48,27.48ZM31.89,68.13a19.51,19.51,0,0,0-19.5,19.49v94.87a21.92,21.92,0,0,0,21.89,21.89H356.52a15.1,15.1,0,0,0,15.09-15.09,53.1,53.1,0,0,0-53-53H307.86a6.14,6.14,0,0,1-4.24-1.68L246.86,81.28a48.38,48.38,0,0,0-33.22-13.15Z"/><path d="M266.32,173.41H123.87a6.19,6.19,0,0,1,0-12.38H266.32a6.19,6.19,0,1,1,0,12.38Z"/><rect class="cls-2" x="30.97" y="80.64" width="136.26" height="55.61"/><path d="M167.23,142.45H31a6.19,6.19,0,0,1-6.19-6.2V80.64A6.19,6.19,0,0,1,31,74.45H167.23a6.19,6.19,0,0,1,6.19,6.19v55.61a6.2,6.2,0,0,1-6.19,6.2ZM37.16,130.06H161V86.83H37.16Z"/><path class="cls-2" d="M284.29,136.25H192V80.64h18a37.76,37.76,0,0,1,25.79,10.19Z"/><path d="M284.29,142.45H192a6.19,6.19,0,0,1-6.19-6.2V80.64A6.19,6.19,0,0,1,192,74.45h18a43.79,43.79,0,0,1,30,11.86l48.51,45.43a6.19,6.19,0,0,1-4.24,10.71Zm-86.1-12.39h70.43L231.55,95.35A31.45,31.45,0,0,0,210,86.83h-11.8Z"/><path class="cls-2" d="M109.79,206.28A35.27,35.27,0,1,1,74.52,171a35.27,35.27,0,0,1,35.27,35.27Z"/><path d="M74.52,247.74A41.46,41.46,0,1,1,116,206.28a41.5,41.5,0,0,1-41.46,41.46Zm0-70.54a29.08,29.08,0,1,0,29.08,29.08A29.1,29.1,0,0,0,74.52,177.2Z"/><path class="cls-3" d="M89.48,206.28a15,15,0,1,1-15-15,15,15,0,0,1,15,15Z"/><path d="M74.52,227.44a21.16,21.16,0,1,1,21.16-21.16,21.18,21.18,0,0,1-21.16,21.16Zm0-29.93a8.77,8.77,0,1,0,8.77,8.77,8.77,8.77,0,0,0-8.77-8.77Z"/><path class="cls-2" d="M356.66,206.28A35.27,35.27,0,1,1,321.39,171a35.27,35.27,0,0,1,35.27,35.27Z"/><path d="M321.39,247.74a41.46,41.46,0,1,1,41.46-41.46,41.51,41.51,0,0,1-41.46,41.46Zm0-70.54a29.08,29.08,0,1,0,29.07,29.08,29.1,29.1,0,0,0-29.07-29.08Z"/><path class="cls-3" d="M336.35,206.28a15,15,0,1,1-15-15,15,15,0,0,1,15,15Z"/><path d="M321.39,227.44a21.16,21.16,0,1,1,21.16-21.16,21.18,21.18,0,0,1-21.16,21.16Zm0-29.93a8.77,8.77,0,1,0,8.77,8.77,8.77,8.77,0,0,0-8.77-8.77Z"/><path d="M366.93,161H353a6.2,6.2,0,1,1,0-12.39h13.89a6.2,6.2,0,0,1,0,12.39Z"/><path d="M20.09,192H6.19a6.2,6.2,0,0,1,0-12.39h13.9a6.2,6.2,0,0,1,0,12.39Z"/><path d="M173.42,12.38H117.68a6.19,6.19,0,1,1,0-12.38h55.74a6.19,6.19,0,1,1,0,12.38Z"/><path d="M154.84,31H68.13a6.19,6.19,0,1,1,0-12.38h86.71a6.19,6.19,0,0,1,0,12.38Z"/></g></g></svg>