<svg xmlns="http://www.w3.org/2000/svg" xmlns:xlink="http://www.w3.org/1999/xlink" viewBox="0 0 556.77 381.68"><defs><style>.cls-1{opacity:0.07;fill:url(#linear-gradient);}</style><linearGradient id="linear-gradient" y1="190.84" x2="556.77" y2="190.84" gradientUnits="userSpaceOnUse"><stop offset="0" stop-color="#2b98a0"/><stop offset="1" stop-color="#1cb3be"/></linearGradient></defs><g id="Layer_2" data-name="Layer 2"><g id="Layer_1-2" data-name="Layer 1"><path class="cls-1" d="M550.9,5.19a18.76,18.76,0,0,0-13-5.19H473c-1.51.71-3,1.46-4.5,2.29-27,14-50,33-66,59-22,35-27,74-42,110-14,33-44,64-80,66-84,6-181,3-236,80C28.42,338.68,18.2,364.16,0,381.68H537.91a18.86,18.86,0,0,0,18.86-18.86v-344A18.79,18.79,0,0,0,550.9,5.19Z"/></g></g></svg>