<svg xmlns="http://www.w3.org/2000/svg" viewBox="0 0 59.96 60.24"><defs><style>.cls-1,.cls-2{fill:none;stroke-linecap:round;stroke-linejoin:round;}.cls-1{stroke:#112639;stroke-width:3px;}.cls-2{stroke:#0dbcc0;stroke-width:2.5px;}</style></defs><g id="Layer_2" data-name="Layer 2"><g id="Layer_1-2" data-name="Layer 1"><g id="Iconly_Light_Home" data-name="Iconly Light Home"><g id="Home-5"><path id="Home-6" class="cls-1" d="M38.61,49.63v5.45a3.66,3.66,0,0,0,3.64,3.66h10a6.21,6.21,0,0,0,6.21-6.19h0V25a7.33,7.33,0,0,0-3-5.71L35.79,3.55a9.52,9.52,0,0,0-11.8,0L4.38,19.25A7.26,7.26,0,0,0,1.5,25V52.54a6.21,6.21,0,0,0,6.2,6.2h10a3.7,3.7,0,0,0,3.72-3.67h0"/><path id="Home-6-2" class="cls-1" d="M21.42,55.07V42.14a4.3,4.3,0,0,1,3.08-4.08"/></g></g><path class="cls-2" d="M33.25,26.45s.23,8.23,5.54,8.28c-2.44-7.71.92-13.33,6.52-16.3-.24,10.35,3.22,11.82,3.22,17.28A9.27,9.27,0,0,1,39.26,45h0C34.13,45,29,42,29,35.71A11.77,11.77,0,0,1,33.25,26.45Z"/></g></g></svg>