<svg xmlns="http://www.w3.org/2000/svg" viewBox="0 0 53.75 46.55"><defs><style>.cls-1,.cls-2{fill:none;stroke-linecap:round;stroke-linejoin:round;stroke-width:2.5px;}.cls-1{stroke:#112639;}.cls-2{stroke:#0dbcc0;}</style></defs><g id="Layer_2" data-name="Layer 2"><g id="Layer_1-2" data-name="Layer 1"><path class="cls-1" d="M41.87,1.25h-26a4.35,4.35,0,0,0-4,2.63L9,10.51"/><path class="cls-1" d="M3.51,40.33v1.24a3.08,3.08,0,0,0,3.08,3.08h3.7a3.08,3.08,0,0,0,3.09-3.07h0V40.33"/><path class="cls-1" d="M18.29,36H6.08a4.83,4.83,0,0,1-4.83-4.83v-9A7.81,7.81,0,0,1,9.06,14.4H23.18"/><circle class="cls-1" cx="11.71" cy="24.9" r="4.05"/><path class="cls-2" d="M27.86,15.43s.37,13.27,8.94,13.35C32.86,16.35,38.28,7.28,47.31,2.5c-.39,16.68,5.19,19.05,5.19,27.86a14.94,14.94,0,0,1-15,14.94h0C29.28,45.3,21,40.47,21,30.36A18.9,18.9,0,0,1,27.86,15.43Z"/></g></g></svg>