<svg xmlns="http://www.w3.org/2000/svg" viewBox="0 0 396.36 91.93"><defs><style>.cls-1{fill:#08bcc0;}.cls-2,.cls-3{fill:#112639;}.cls-3{stroke:#112639;stroke-miterlimit:10;stroke-width:2.59px;}</style></defs><g id="Layer_2" data-name="Layer 2"><g id="Layer_1-2" data-name="Layer 1"><path class="cls-1" d="M395.12,46.86a17,17,0,0,1,.94,9.48v0a46.14,46.14,0,0,1-20.71,28.76,53.94,53.94,0,0,1-6.45,3.3,45.92,45.92,0,0,1-16.27,3.48c.7-11.62,6.16-16.82,11.92-22.31,3.47-3.3,7.06-6.72,9.62-11.56,5.13-9.72,8.38-23.31-1.4-36.7A50.62,50.62,0,0,1,390,37,49.8,49.8,0,0,1,395.12,46.86Z"/><path class="cls-2" d="M357.19.39C351.67,3.46,348,9.64,346.3,14.3a2.38,2.38,0,0,0-.49.34c-6,2.85-10.41,5.09-13.09,6.66a18.22,18.22,0,0,0-6.35,6.3c-1.26,2-4.13,4.65-8.08,7.37a8.52,8.52,0,0,0-2.8,10.64l3.19,6.56a2.5,2.5,0,0,0,3.11,1.25c5.06-1.88,10.31-2.33,10.91-1.38a3.08,3.08,0,0,1-.15,3.31,2.86,2.86,0,0,1-2.67,1.44c-4-.51-7-1.13-7-1.14a2.5,2.5,0,0,0-3,2.12c0,.27-.82,6.63,3,10.89,2.16,2.4,5.22,3.62,9.1,3.62h.4c1.69,0,3.28-.11,4.8-.24,0,7.52,4.06,14.8,7.24,19.41A46,46,0,0,1,351.28,0,48,48,0,0,1,357.19.39Z"/><path class="cls-1" d="M395.89,37.07c-.58-1-1.18-2-1.82-2.88-7.72-11.08-18.83-19-29.77-21.24a34.29,34.29,0,0,0-11.82-.21c2.43-4.65,7.36-11.13,15.23-8.72C383.91,8.94,393,23.17,395.89,37.07Z"/><path class="cls-1" d="M348,47.42c-.61.78-1.22,1.54-1.84,2.3-3.44,4.18-7,8.51-8.5,17.25a52.62,52.62,0,0,1-5.4.31c-2.6.06-4.46-.58-5.69-1.93a7.82,7.82,0,0,1-1.74-4.26c1.21.2,2.71.43,4.38.65a7.74,7.74,0,0,0,7.5-3.67,8,8,0,0,0,.21-8.65c-2.7-4.35-10.4-2.75-14.73-1.41L320,43.44a3.5,3.5,0,0,1,1.15-4.36c4.63-3.19,7.82-6.17,9.49-8.86a13.38,13.38,0,0,1,4.61-4.61c1.88-1.1,4.67-2.56,8.34-4.35l.12.09A16.78,16.78,0,0,1,351,30.61,18.38,18.38,0,0,1,348,47.42Z"/><path class="cls-1" d="M369.75,55.73c-2.18,4.11-5.33,7.11-8.66,10.28C355.72,71.13,349.74,76.82,348,87.9c-3-4.49-6.53-11.32-5.78-17.74,1.07-9.09,4.33-13.07,7.78-17.28.65-.79,1.31-1.58,1.94-2.41a23.34,23.34,0,0,0,3.75-21.38,21.74,21.74,0,0,0-7-10.3l.35-.16,0,0a29.39,29.39,0,0,1,13.59-.86C375,28.57,377.33,41.35,369.75,55.73Z"/><path class="cls-3" d="M16.26,67.9a23.83,23.83,0,0,1-3.35-.26,12,12,0,0,1-3.53-1.12A12.78,12.78,0,0,1,6,64.08a13.24,13.24,0,0,1-2.75-4.22,20.59,20.59,0,0,1-.73-2.08,25.26,25.26,0,0,1-.64-2.73q-.28-1.56-.45-3.54c-.11-1.32-.17-2.83-.17-4.53,0-1.07,0-2.2.1-3.38A25.25,25.25,0,0,1,1.82,40a23,23,0,0,1,1-3.5,13.49,13.49,0,0,1,1.67-3.22A11.93,11.93,0,0,1,7.77,30a15.59,15.59,0,0,1,3.76-1.81,16.12,16.12,0,0,1,3.63-.73c1.16-.09,2.14-.13,2.94-.13h12V22.62h9V61h8.12V67.9Zm-4.6-11.49a6.79,6.79,0,0,0,1.67,2.43,7.56,7.56,0,0,0,2.11,1.39,8.62,8.62,0,0,0,2.26.64,16.71,16.71,0,0,0,2.16.15H30.07c0-.35,0-.72,0-1.11s0-.74,0-1.07V34.18H19.86a18.52,18.52,0,0,0-1.91.11,8.21,8.21,0,0,0-2,.51A7.9,7.9,0,0,0,14,35.9a6.93,6.93,0,0,0-1.65,1.88,10.16,10.16,0,0,0-.65,1.32A11.38,11.38,0,0,0,11.12,41a25,25,0,0,0-.4,2.68c-.1,1-.15,2.22-.15,3.59,0,1.6,0,2.94.14,4s.18,2,.3,2.68a11.42,11.42,0,0,0,.35,1.61C11.49,56,11.59,56.24,11.66,56.41Z"/><path class="cls-3" d="M79,68.35c-1.23,0-2.56,0-4-.11a32.65,32.65,0,0,1-4.36-.54,22,22,0,0,1-4.26-1.3A12.89,12.89,0,0,1,62.59,64a3.14,3.14,0,0,1-.33-.3,11.19,11.19,0,0,1-2.79,2.17,15.07,15.07,0,0,1-3.11,1.27,17.68,17.68,0,0,1-3.2.6c-1.07.1-2.09.15-3.07.15h-4V61h1.5c.6,0,1.28,0,2.06-.08A8.85,8.85,0,0,0,52,60.47a7.65,7.65,0,0,0,2.27-1.23,6.67,6.67,0,0,0,1.83-2.38,13.67,13.67,0,0,0,.75-2.17,20.8,20.8,0,0,0,.56-4.34c0-.5,0-1,0-1.39V47.73c0-1.12,0-2.42.15-3.89a26.61,26.61,0,0,1,.7-4.49,22.34,22.34,0,0,1,1.57-4.46,12,12,0,0,1,2.82-3.78,12.81,12.81,0,0,1,3.77-2.43,21.28,21.28,0,0,1,4.26-1.27A32.56,32.56,0,0,1,75,26.9c1.45-.06,2.78-.09,4-.09s2.55,0,4,.09a32.46,32.46,0,0,1,4.34.51,22,22,0,0,1,4.29,1.27,12.86,12.86,0,0,1,3.78,2.43,12,12,0,0,1,2.82,3.78,21.73,21.73,0,0,1,1.56,4.44,28.12,28.12,0,0,1,.67,4.4c.1,1.42.15,2.65.15,3.7a35,35,0,0,1-.79,8A20.41,20.41,0,0,1,97.7,61h7.18V67.9h-14ZM69.18,37a8.93,8.93,0,0,0-1.66,3.11,17.43,17.43,0,0,0-.68,3.48,32.68,32.68,0,0,0-.13,3.55c0,1.18,0,2.29,0,3.33a20.31,20.31,0,0,0,.64,4,9.41,9.41,0,0,0,2,3.67,9.07,9.07,0,0,0,2.18,1.79,10.08,10.08,0,0,0,2.44,1,13.72,13.72,0,0,0,2.56.45c.87.08,1.72.11,2.55.11s1.7,0,2.56-.11a13.55,13.55,0,0,0,2.53-.45,9.74,9.74,0,0,0,2.39-1,9.23,9.23,0,0,0,2.17-1.79,8.76,8.76,0,0,0,1.55-2.38,12.44,12.44,0,0,0,.81-2.6,17.81,17.81,0,0,0,.3-2.73c0-.93,0-1.84,0-2.73V45.22a19.48,19.48,0,0,0-.12-2.11,13.2,13.2,0,0,0-.41-2.21,11.62,11.62,0,0,0-.8-2.11A7.62,7.62,0,0,0,88.72,37a8.73,8.73,0,0,0-2.19-1.72,11.36,11.36,0,0,0-2.45-1,13.4,13.4,0,0,0-2.57-.43c-.86-.06-1.7-.1-2.52-.1s-1.53,0-2.42.1a14.59,14.59,0,0,0-2.66.43,12,12,0,0,0-2.56,1A7.18,7.18,0,0,0,69.18,37Z"/><path class="cls-3" d="M104.25,67.86V61h.9a11.77,11.77,0,0,0,4-.56,5.43,5.43,0,0,0,2.47-1.87A7.86,7.86,0,0,0,113,55.36a22.89,22.89,0,0,0,.35-3.7,4.29,4.29,0,0,1,0-.49v-.52h0V27.26h9V50.65l.18,5.54a5.59,5.59,0,0,0,1.43,2.56,6.82,6.82,0,0,0,2.2,1.46,9.6,9.6,0,0,0,2.62.66,24.53,24.53,0,0,0,2.62.15h1V67.9h-3.67c-.87,0-1.77,0-2.68-.09a19,19,0,0,1-2.75-.4,12.53,12.53,0,0,1-2.71-.91A9.79,9.79,0,0,1,118,64.83a10.55,10.55,0,0,1-2.49,1.65,14,14,0,0,1-2.67.92,16.72,16.72,0,0,1-2.85.39c-1,0-2,.07-3,.07Z"/><path class="cls-3" d="M131.49,67.86V61h4.38a11.73,11.73,0,0,0,4-.56,5.38,5.38,0,0,0,2.47-1.87,7.47,7.47,0,0,0,1.39-3.34,24.44,24.44,0,0,0,.3-3.89V27.26H153V54a19.24,19.24,0,0,1-.32,3.74,13.79,13.79,0,0,1-.86,2.92,10.15,10.15,0,0,1-1.27,2.23A12.94,12.94,0,0,1,149,64.57a11.32,11.32,0,0,1-2.57,1.78,12.39,12.39,0,0,1-2.75,1,17.57,17.57,0,0,1-2.92.43c-1,.06-2,.09-3.1.09Zm6.85,13.4V74.11h8.94v7.15Zm-20.08-.21V73.9h8.95v7.15Zm-14,0V73.9h8.94v7.15Z"/><path class="cls-3" d="M221.57,67.9a26.58,26.58,0,0,1-4.16-.34,7.64,7.64,0,0,1-4-2,10.58,10.58,0,0,1-1.13-1.34,9.82,9.82,0,0,1-1-1.89,14.1,14.1,0,0,1-.73-2.53,17.31,17.31,0,0,1-.28-3.22V50.31c0-1.39,0-3.15,0-5.26s0-4.68,0-7.72a1.86,1.86,0,0,0,0-.58,6.45,6.45,0,0,0-.11-.73,3.91,3.91,0,0,0-.21-.71,1.48,1.48,0,0,0-.31-.53,1.93,1.93,0,0,0-1.22-.52c-.51,0-1-.08-1.37-.08H206a5.16,5.16,0,0,0-2,.38,3.89,3.89,0,0,0-1.48,1,3.94,3.94,0,0,0-.82,2,18.17,18.17,0,0,0-.15,2.24l-.07,13c0,1.24-.06,2.43-.17,3.55a15.52,15.52,0,0,1-.64,3.16,12.14,12.14,0,0,1-1.27,2.79,10.75,10.75,0,0,1-2.08,2.44,11.17,11.17,0,0,1-4.54,2.43,24.85,24.85,0,0,1-6,.63h-7.75a24.71,24.71,0,0,1-6-.63,11.14,11.14,0,0,1-4.55-2.43,10.75,10.75,0,0,1-2.08-2.44,12.58,12.58,0,0,1-1.27-2.79,16.22,16.22,0,0,1-.64-3.16c-.11-1.12-.17-2.31-.17-3.55V40.66h9V51.25a23.8,23.8,0,0,0,.31,4.32,7,7,0,0,0,1.18,2.79,5.56,5.56,0,0,0,3,2.13,16.23,16.23,0,0,0,4.27.49H184a16.15,16.15,0,0,0,4.26-.49,5.55,5.55,0,0,0,3-2.13,6.83,6.83,0,0,0,1.17-2.79,22.8,22.8,0,0,0,.32-4.32l-.11-11.94c0-.72,0-1.5.11-2.32a24.61,24.61,0,0,1,.38-2.55,8.73,8.73,0,0,1,2.5-4.64A9.48,9.48,0,0,1,198.35,28a10.17,10.17,0,0,1,4.24-.77l9.73.08h1.15a7.58,7.58,0,0,1,1.32.17,8.79,8.79,0,0,1,1.35.43,4.28,4.28,0,0,1,1.24.81A5.22,5.22,0,0,1,219,31.9c.1.62.17,1.17.21,1.63s.06.85.06,1.18V55.48a7.68,7.68,0,0,0,.41,2.82,4.26,4.26,0,0,0,1,1.56,3.45,3.45,0,0,0,2,1,15.25,15.25,0,0,0,2.24.17H226V67.9Z"/><path class="cls-3" d="M225.27,67.86V61h.9a11.84,11.84,0,0,0,4-.56,5.48,5.48,0,0,0,2.47-1.87A7.84,7.84,0,0,0,234,55.36a22.87,22.87,0,0,0,.36-3.7s0-.16,0-.34,0-.62,0-1.34V40.21q0-4.12,0-10.44t0-15.5h8.94V50.65l.19,5.54a5.58,5.58,0,0,0,1.42,2.56,6.86,6.86,0,0,0,2.21,1.46,9.51,9.51,0,0,0,2.62.66,24.39,24.39,0,0,0,2.62.15h1V67.9h-3.66c-.88,0-1.77,0-2.68-.09a18.8,18.8,0,0,1-2.75-.4,12.35,12.35,0,0,1-2.71-.91A9.79,9.79,0,0,1,239,64.83a10.55,10.55,0,0,1-2.49,1.65,13.9,13.9,0,0,1-2.68.92,16.6,16.6,0,0,1-2.84.39c-1,0-2,.07-3,.07Z"/><path class="cls-3" d="M252.33,61h7.3a14,14,0,0,1-1.26-2.85,22,22,0,0,1-.71-3.11,31.9,31.9,0,0,1-.31-3.33c-.05-1.14-.08-2.34-.08-3.59s0-2.55.08-4a26.07,26.07,0,0,1,.52-4.35,21.51,21.51,0,0,1,1.38-4.3,13.57,13.57,0,0,1,2.62-3.87,15.63,15.63,0,0,1,1.59-1.35A13.21,13.21,0,0,1,266,28.87a17.59,17.59,0,0,1,3.56-1.12,22.61,22.61,0,0,1,4.79-.45h17.4v6.88H277.22a13.63,13.63,0,0,0-4,.53,9.66,9.66,0,0,0-2.9,1.4,7.81,7.81,0,0,0-2,2.06,8.92,8.92,0,0,0-1.14,2.45,13.7,13.7,0,0,0-.36,2c-.09.74-.16,1.49-.21,2.22s-.08,1.42-.09,2.06,0,1.12,0,1.44c0,.6,0,1.27.06,2s.1,1.51.19,2.28a16,16,0,0,0,.39,2.25,8.14,8.14,0,0,0,.67,1.87A6.94,6.94,0,0,0,269.81,59a8.65,8.65,0,0,0,2.52,1.31,12.27,12.27,0,0,0,2.83.58c1,.09,1.93.14,2.88.14H292.6V67.9H252.33Z"/></g></g></svg>