<svg xmlns="http://www.w3.org/2000/svg" viewBox="0 0 336.83 94.11"><defs><style>.cls-1{fill:#08bcc0;}.cls-2,.cls-3{fill:#112639;}.cls-3{stroke:#112639;stroke-miterlimit:10;stroke-width:2px;}</style></defs><g id="Layer_2" data-name="Layer 2"><g id="Layer_1-2" data-name="Layer 1"><path class="cls-1" d="M335.58,46.86a16.9,16.9,0,0,1,.95,9.48v0a46.14,46.14,0,0,1-20.71,28.76,54,54,0,0,1-6.46,3.3,45.82,45.82,0,0,1-16.26,3.48c.7-11.62,6.16-16.82,11.91-22.31,3.47-3.3,7.06-6.72,9.63-11.56,5.12-9.72,8.38-23.31-1.4-36.7A50.62,50.62,0,0,1,330.44,37,49.78,49.78,0,0,1,335.58,46.86Z"/><path class="cls-2" d="M297.66.39c-5.53,3.07-9.18,9.25-10.89,13.91a2.76,2.76,0,0,0-.5.34c-6,2.85-10.4,5.09-13.09,6.66a18.11,18.11,0,0,0-6.34,6.3c-1.26,2-4.13,4.65-8.08,7.37A8.52,8.52,0,0,0,256,45.61l3.19,6.56a2.48,2.48,0,0,0,3.1,1.25c5.07-1.88,10.32-2.33,10.91-1.38a3.1,3.1,0,0,1-.14,3.31,2.87,2.87,0,0,1-2.68,1.44c-4-.51-7-1.13-7-1.14a2.48,2.48,0,0,0-3,2.12c0,.27-.83,6.63,3,10.89,2.16,2.4,5.23,3.62,9.1,3.62h.41q2.52,0,4.8-.24c0,7.52,4.05,14.8,7.23,19.41A46,46,0,0,1,291.75,0,48.21,48.21,0,0,1,297.66.39Z"/><path class="cls-1" d="M336.36,37.07c-.59-1-1.19-2-1.82-2.88-7.72-11.08-18.84-19-29.77-21.24A34.29,34.29,0,0,0,293,12.74c2.43-4.65,7.36-11.13,15.23-8.72C324.38,8.94,333.45,23.17,336.36,37.07Z"/><path class="cls-1" d="M288.49,47.42c-.61.78-1.23,1.54-1.85,2.3-3.43,4.18-7,8.51-8.49,17.25a52.66,52.66,0,0,1-5.41.31c-2.59.06-4.45-.58-5.68-1.93a7.82,7.82,0,0,1-1.74-4.26c1.2.2,2.7.43,4.37.65a7.76,7.76,0,0,0,7.51-3.67,8,8,0,0,0,.21-8.65c-2.7-4.35-10.41-2.75-14.74-1.41l-2.22-4.57a3.48,3.48,0,0,1,1.14-4.36c4.64-3.19,7.83-6.17,9.49-8.86a13.32,13.32,0,0,1,4.62-4.61c1.88-1.1,4.67-2.56,8.34-4.35l.12.09a16.76,16.76,0,0,1,7.27,9.26A18.35,18.35,0,0,1,288.49,47.42Z"/><path class="cls-1" d="M310.21,55.73c-2.18,4.11-5.32,7.11-8.65,10.28-5.37,5.12-11.35,10.81-13.06,21.89-3-4.49-6.54-11.32-5.78-17.74,1.07-9.09,4.33-13.07,7.78-17.28.65-.79,1.3-1.58,1.94-2.41a23.37,23.37,0,0,0,3.75-21.38,21.74,21.74,0,0,0-7-10.3l.35-.16,0,0a29.38,29.38,0,0,1,13.59-.86C315.42,28.57,317.8,41.35,310.21,55.73Z"/><path class="cls-2" d="M11.33,85.35h.46v1.56h-.46a4.4,4.4,0,0,1-3.84-2.23l-1.56.25-1.22.2a3.26,3.26,0,0,1-2.34-.61,3.79,3.79,0,0,1-1.53-2,3.66,3.66,0,0,1,.22-2.88A3.47,3.47,0,0,1,3.2,77.79l3.67-1.2V75.41H8.28v6.94a2.87,2.87,0,0,0,.89,2.12A2.93,2.93,0,0,0,11.33,85.35ZM4.61,83.57c.42-.09,1.19-.22,2.33-.38a4.92,4.92,0,0,1-.07-.84V78.12L3.65,79.23a2.26,2.26,0,0,0-1.33,1.1A2.13,2.13,0,0,0,2.16,82a2.25,2.25,0,0,0,.94,1.23A1.94,1.94,0,0,0,4.61,83.57Z"/><path class="cls-2" d="M22.4,82.71a2.65,2.65,0,0,0,.68,1.93,2.54,2.54,0,0,0,1.91.71v1.56a3.49,3.49,0,0,1-3.15-1.63,4.39,4.39,0,0,1-.19.4,2.43,2.43,0,0,1-1.33,1.19,2.38,2.38,0,0,1-1.91-.11l-3.22-1.65a3.93,3.93,0,0,1-3.38,1.8h-.26V85.35h.26a2.67,2.67,0,0,0,2.55-1.51l1.75-3.36A3.16,3.16,0,0,1,18,78.82a3,3,0,0,1,2.46.24A3.87,3.87,0,0,1,22.4,82.71Zm-1.88,2.35a4.78,4.78,0,0,0,.6-2.77A2.27,2.27,0,0,0,20,80.4a1.83,1.83,0,0,0-1.55-.12,2.29,2.29,0,0,0-1.26,1.18l-1.22,2.35,3.26,1.68a1,1,0,0,0,.82.05A1.15,1.15,0,0,0,20.52,85.06Z"/><path class="cls-2" d="M32,83.14a2.66,2.66,0,0,0,.65,1.7,2.43,2.43,0,0,0,1.73.51v1.56a3.45,3.45,0,0,1-3-1.3,3.66,3.66,0,0,1-3.12,1.3H24.75V85.35h3.48a2.77,2.77,0,0,0,1.86-.52,1.7,1.7,0,0,0,.49-1.52v-.07l-.27-3,1.42-.12.26,3Zm-6.62,7.22,1.27-1.27,1.27,1.27-1.27,1.28Zm4,0,1.27-1.27,1.27,1.27L30.6,91.64Z"/><path class="cls-2" d="M40.44,81.6A5.73,5.73,0,0,1,40.6,84a3.08,3.08,0,0,1-.82,1.66,3.94,3.94,0,0,1-1.5,1,5.64,5.64,0,0,1-1.87.31H34.13V85.35h2.28a3.28,3.28,0,0,0,2.34-.77c.54-.51.64-1.38.32-2.59l-1-3.58L39.48,78Zm-5,8.67,1.41-1.44,1.44,1.44-1.44,1.41Z"/><path class="cls-2" d="M59.81,85.35h.7v1.56h-.68a2.66,2.66,0,0,1-1.68-.53.83.83,0,0,0,0,.13,1,1,0,0,0,0,.11,6,6,0,0,1-.06,2.17,3.87,3.87,0,0,1-.69,1.53,4.14,4.14,0,0,1-1.32,1,9.75,9.75,0,0,1-1.6.71c-.5.16-1.13.33-1.9.5a7.48,7.48,0,0,1-4.06-.06,4.62,4.62,0,0,1-2.62-2.09,8,8,0,0,1-1-3.72,12.85,12.85,0,0,1,.88-5l1.37.53Q45.56,86.9,47,89.42T52.3,91a15.05,15.05,0,0,0,3.14-1,2.84,2.84,0,0,0,1.35-3.19c0-.3-.18-1.32-.44-3l-.45-3.08-.07-.46L57.22,80q.09.67.24,1.56a8.91,8.91,0,0,0,.81,2.94A1.66,1.66,0,0,0,59.81,85.35Zm-6.94-4.83L51.43,82,50,80.52l1.41-1.44Z"/><path class="cls-2" d="M68.11,81.68A5.59,5.59,0,0,1,68.27,84a3,3,0,0,1-.83,1.62A4.26,4.26,0,0,1,66,86.6a5.42,5.42,0,0,1-1.84.31H60.27V85.35h3.84a3.2,3.2,0,0,0,2.32-.77c.53-.51.63-1.38.29-2.59l-.93-3.58L67.15,78Zm-7.63,8.66,1.27-1.27L63,90.34l-1.28,1.27Zm4,0,1.27-1.27L67,90.34l-1.28,1.27Z"/><path class="cls-2" d="M73,83.64l-1.4.29L69.75,72.41l1.39-.29Zm9.62,1.71h.48v1.56h-.48a3.42,3.42,0,0,1-3-1.47,3.57,3.57,0,0,1-3.17,1.47H70.73V85.35h5.76a2.31,2.31,0,0,0,1.9-.65,2.35,2.35,0,0,0,.48-1.51l-.46-11.86,1.39-.07L80.26,83A2.36,2.36,0,0,0,81,84.8,2.53,2.53,0,0,0,82.61,85.35Z"/><path class="cls-2" d="M82.85,86.91V85.35h1.9a3.28,3.28,0,0,0,2.34-.77c.53-.51.64-1.38.32-2.59l-1-3.58L87.79,78l1,3.57A5.73,5.73,0,0,1,88.91,84a3.08,3.08,0,0,1-.82,1.66,4,4,0,0,1-1.48,1,5.58,5.58,0,0,1-1.86.31Zm3.34-10.73-1.44-1.42,1.44-1.44,1.44,1.44Z"/><path class="cls-2" d="M89.19,73.18v-.36a1.77,1.77,0,0,1,.64-1.49A2,2,0,0,1,91.49,71l2.42.45a1.32,1.32,0,0,0,1-.14.94.94,0,0,0,.38-.82v-.17l.79,0v.36a1.76,1.76,0,0,1-.65,1.48,2,2,0,0,1-1.68.32L91.35,72a1.33,1.33,0,0,0-1,.17A.92.92,0,0,0,90,73v.17ZM92.43,87,91.92,73.8l1.42-.07.5,13.15Z"/><path class="cls-2" d="M111.58,85.35h1.17v1.56h-1.17A2.83,2.83,0,0,1,109,85.44q-1.08,1.47-4,1.47h-.74a5.44,5.44,0,0,1-2.77-.61,2.29,2.29,0,0,1-1.15-1.7l-.12-1.6h1.3a6.16,6.16,0,0,0,.12,1.29c.16.71,1,1.06,2.4,1.06h1.13a3.51,3.51,0,0,0,2.46-.64,1.69,1.69,0,0,0,.37-1.71.2.2,0,0,0,0-.08l-1.79-7.08,1.39-.38,1.8,7.1a10.36,10.36,0,0,0,.3,1.08,4.91,4.91,0,0,0,.37.84,1.5,1.5,0,0,0,.6.66A1.75,1.75,0,0,0,111.58,85.35Z"/><path class="cls-2" d="M113,91.61l-1.27-1.27L113,89.07l1.27,1.27Zm-.46-4.7V85.35H116a4.22,4.22,0,0,0,1.23-.16,2.54,2.54,0,0,0,1-.54,1.61,1.61,0,0,0,.53-1,4.92,4.92,0,0,0-.14-1.63l-.93-3.58L119,78l1,3.65a5.73,5.73,0,0,1,.15,2.35,2.94,2.94,0,0,1-.83,1.62,4.22,4.22,0,0,1-1.48.95,5.48,5.48,0,0,1-1.85.31Zm4.42,4.7-1.27-1.27,1.27-1.27,1.27,1.27Z"/><path class="cls-2" d="M128.26,85.35h.16v1.56h-.16a3.6,3.6,0,0,1-1.44-.24l0,.33a5.27,5.27,0,0,1-.15,2.55,3.41,3.41,0,0,1-1.43,1.73,10.92,10.92,0,0,1-1.94,1c-.6.23-1.46.49-2.6.8l-.36-1.52a29.3,29.3,0,0,0,3.36-1,2.8,2.8,0,0,0,1.78-2.64,5.43,5.43,0,0,0,0-.67l-1-6.92,1.42-.21.38,2.85a4.39,4.39,0,0,0,.63,2A1.61,1.61,0,0,0,128.26,85.35Z"/><path class="cls-2" d="M136.25,78.6l6.14,3.77-.21,1.83-7.06,2a16.46,16.46,0,0,1-2.48.51c-.89.11-1.58.17-2.08.18h-2.38V85.35h.12a25.14,25.14,0,0,0,6.46-.65l6-1.66L135.58,80a2.84,2.84,0,0,0-2.36-.33,3.32,3.32,0,0,0-1.92,1.56l-.4.76-1.23-.74.43-.82a4.68,4.68,0,0,1,2.73-2.29A4.16,4.16,0,0,1,136.25,78.6Zm-.89-4.15-1.42,1.44-1.44-1.44L133.94,73Z"/><path class="cls-2" d="M155.66,87a5.63,5.63,0,0,1-.13,2.1,3.94,3.94,0,0,1-.74,1.46,4.22,4.22,0,0,1-1.59,1.06,15.32,15.32,0,0,1-2.19.75c-.74.2-1.76.42-3.07.68l-.29-1.54A23.75,23.75,0,0,0,153.22,90c.81-.47,1.16-1.39,1-2.76l-.07-.6a17.41,17.41,0,0,1-3.29.31,3.67,3.67,0,0,1-2.63-1,3.77,3.77,0,0,1-1.16-2.59A4.89,4.89,0,0,1,148,80a3.46,3.46,0,0,1,2.84-1.57,3.62,3.62,0,0,1,3,1.21,6,6,0,0,1,1.44,3.49Zm-4.77-1.68A18,18,0,0,0,154,85l-.17-1.66a4.31,4.31,0,0,0-1-2.51,2.4,2.4,0,0,0-2-.85,2.21,2.21,0,0,0-1.85,1,3.36,3.36,0,0,0-.55,2.17,2.24,2.24,0,0,0,.71,1.56A2.36,2.36,0,0,0,150.89,85.35Z"/><path class="cls-2" d="M168,79a3.69,3.69,0,0,1,1.86,2.74,6.06,6.06,0,0,1-.66,3.9,2.43,2.43,0,0,1-1.38,1.22,2.33,2.33,0,0,1-1.86-.14l-4.56-2.37.4,9.67-1.41,0-.41-11,1-.63,1.32.7,1.42-2.76A3.16,3.16,0,0,1,168,79Zm.07,6a5,5,0,0,0,.6-2.78,2.27,2.27,0,0,0-1.18-1.88,1.81,1.81,0,0,0-1.56-.11,2.26,2.26,0,0,0-1.25,1.17l-1.2,2.37,3.22,1.66a1,1,0,0,0,.79.07A1,1,0,0,0,168.05,85Z"/><path class="cls-2" d="M174.55,83.64l-1.39.29-1.85-11.52,1.39-.29Zm9.63,1.71h.48v1.56h-.48a3.44,3.44,0,0,1-3-1.47,3.55,3.55,0,0,1-3.16,1.47h-5.77V85.35h5.77A2.29,2.29,0,0,0,180,84.7a2.24,2.24,0,0,0,.48-1.51L180,71.33l1.39-.07L181.82,83a2.39,2.39,0,0,0,.72,1.83A2.56,2.56,0,0,0,184.18,85.35Z"/><path class="cls-2" d="M196.82,85.35v1.56a40.7,40.7,0,0,1-4.34-.16,4.46,4.46,0,0,1-2.23-.8,16.84,16.84,0,0,1-5.4,1h-.43V85.35h.43a18.46,18.46,0,0,0,4.39-.51l-3.19-4.29.38-1.23,5.81-.84a2.6,2.6,0,0,1,2.63,1.12,2.76,2.76,0,0,1,.34,2.89,5.89,5.89,0,0,1-3.07,2.69A37.83,37.83,0,0,0,196.82,85.35Zm-9-4.8,3,3.84c1.84-.67,2.93-1.56,3.28-2.67a1.27,1.27,0,0,0-.15-1.35,1.23,1.23,0,0,0-1.24-.49Z"/><path class="cls-2" d="M203.83,83.14a2.66,2.66,0,0,0,.65,1.7,2.43,2.43,0,0,0,1.73.51v1.56a3.48,3.48,0,0,1-3-1.3,3.64,3.64,0,0,1-3.12,1.3h-3.48V85.35h3.48a2.74,2.74,0,0,0,1.86-.52,1.67,1.67,0,0,0,.5-1.52v-.07l-.27-3,1.42-.12.26,3Zm-3.31-6.6-1.27,1.27L198,76.54l1.27-1.27Zm4,0-1.27,1.27-1.27-1.27,1.27-1.27Z"/><path class="cls-2" d="M222.55,81.6a4.69,4.69,0,0,1,0,3,3.49,3.49,0,0,1-1.45,1.75,4.12,4.12,0,0,1-2.16.57,3.38,3.38,0,0,1-2.92-1.42,3.4,3.4,0,0,1-3,1.42,3.35,3.35,0,0,1-2.93-1.44,3.41,3.41,0,0,1-3,1.44H206V85.35h1.12c1.51,0,2.3-.67,2.38-2V80.19h1.32v3.17a1.86,1.86,0,0,0,.6,1.45,2.39,2.39,0,0,0,1.66.54c1.57,0,2.35-.73,2.35-2.19v-3h1.34v3.17a1.86,1.86,0,0,0,.6,1.45,2.36,2.36,0,0,0,1.63.54,2.6,2.6,0,0,0,2-.77c.47-.51.54-1.38.22-2.59l-1-3.58,1.37-.38Z"/><path class="cls-2" d="M225.58,87,225,71.33l1.41-.07.6,15.62Z"/><path class="cls-3" d="M12.57,52.78a17.16,17.16,0,0,1-2.59-.2,8.86,8.86,0,0,1-2.73-.87,9.75,9.75,0,0,1-2.59-1.88,10.41,10.41,0,0,1-2.13-3.27A16.19,16.19,0,0,1,2,45a19,19,0,0,1-.49-2.11c-.15-.8-.26-1.71-.35-2.74S1,37.93,1,36.61c0-.82,0-1.7.07-2.61a21.48,21.48,0,0,1,.33-2.75,18.43,18.43,0,0,1,.74-2.71,10.64,10.64,0,0,1,1.29-2.48A9.32,9.32,0,0,1,6,23.47a11.73,11.73,0,0,1,2.91-1.4,12.41,12.41,0,0,1,2.81-.57c.89-.07,1.65-.1,2.27-.1h9.28V17.79h6.94V47.46h6.28v5.32ZM9,43.9a5.48,5.48,0,0,0,1.29,1.88,5.74,5.74,0,0,0,1.63,1.07,6.67,6.67,0,0,0,1.75.5,14.31,14.31,0,0,0,1.67.11h7.89c0-.27,0-.55,0-.85s0-.58,0-.83V26.72H15.35a12.89,12.89,0,0,0-1.48.09,6.37,6.37,0,0,0-1.56.39,6.26,6.26,0,0,0-1.5.85A5.19,5.19,0,0,0,9.53,29.5a7.64,7.64,0,0,0-.5,1A8.16,8.16,0,0,0,8.59,32q-.18.89-.3,2.07c-.08.79-.12,1.72-.12,2.78,0,1.23,0,2.27.1,3.11s.15,1.52.24,2.06a7.4,7.4,0,0,0,.27,1.25C8.88,43.56,9,43.77,9,43.9Z"/><path class="cls-3" d="M61.05,53.13c-.95,0-2,0-3.1-.09a23,23,0,0,1-3.37-.42,17.4,17.4,0,0,1-3.3-1,9.77,9.77,0,0,1-2.9-1.86,1.13,1.13,0,0,1-.26-.23A8.52,8.52,0,0,1,46,51.22a11.22,11.22,0,0,1-2.4,1,13.28,13.28,0,0,1-2.47.47c-.83.07-1.62.11-2.37.11h-3.1V47.46h1.16q.69,0,1.59-.06A7.35,7.35,0,0,0,40.18,47a6,6,0,0,0,1.75-.95,5.09,5.09,0,0,0,1.41-1.84,10.76,10.76,0,0,0,.58-1.68,16.62,16.62,0,0,0,.44-3.35c0-.39,0-.74,0-1.07v-1c0-.86,0-1.87.11-3A21.67,21.67,0,0,1,45,30.71a17.61,17.61,0,0,1,1.21-3.44,9.08,9.08,0,0,1,2.19-2.92,9.45,9.45,0,0,1,2.9-1.88,16.67,16.67,0,0,1,3.3-1A24.34,24.34,0,0,1,58,21.1c1.12-.05,2.15-.08,3.1-.08s2,0,3.08.08a24.42,24.42,0,0,1,3.35.39,17,17,0,0,1,3.31,1,9.43,9.43,0,0,1,2.92,1.88,9.08,9.08,0,0,1,2.19,2.92,16.85,16.85,0,0,1,1.2,3.43,22.27,22.27,0,0,1,.52,3.4c.08,1.1.11,2,.11,2.86a27.6,27.6,0,0,1-.6,6.19,16,16,0,0,1-1.62,4.31h5.55v5.32H70.21ZM53.47,28.86a7,7,0,0,0-1.29,2.4A14.22,14.22,0,0,0,51.66,34a23.21,23.21,0,0,0-.1,2.75q0,1.36,0,2.58A15.54,15.54,0,0,0,52,42.37a7.09,7.09,0,0,0,1.51,2.83,6.62,6.62,0,0,0,1.69,1.39,7.48,7.48,0,0,0,1.88.78,10.79,10.79,0,0,0,2,.35c.67.06,1.33.09,2,.09s1.31,0,2-.09a10.78,10.78,0,0,0,2-.35,7.44,7.44,0,0,0,1.85-.78,7.33,7.33,0,0,0,2.88-3.22,10.16,10.16,0,0,0,.62-2,13.62,13.62,0,0,0,.23-2.11c0-.72,0-1.42,0-2.11V35.26a15.58,15.58,0,0,0-.09-1.64,10.25,10.25,0,0,0-.31-1.71,9.47,9.47,0,0,0-.63-1.63,6,6,0,0,0-1-1.42,6.78,6.78,0,0,0-1.7-1.33A8.76,8.76,0,0,0,65,26.78a11.37,11.37,0,0,0-2-.33c-.67-.05-1.32-.07-2-.07s-1.19,0-1.87.07a12.15,12.15,0,0,0-2,.33,9.57,9.57,0,0,0-2,.75A5.61,5.61,0,0,0,53.47,28.86Z"/><path class="cls-3" d="M80.57,52.75V47.43h.69a9.05,9.05,0,0,0,3.1-.43,4.13,4.13,0,0,0,1.91-1.45,6,6,0,0,0,1-2.46,17.33,17.33,0,0,0,.28-2.86,2.53,2.53,0,0,1,0-.38v-.4h0V21.37h6.91V39.45l.15,4.28a4.31,4.31,0,0,0,1.09,2,5.36,5.36,0,0,0,1.71,1.13,7.56,7.56,0,0,0,2,.51c.71.07,1.38.11,2,.11h.75v5.32H99.4c-.68,0-1.37,0-2.07-.07a16,16,0,0,1-2.13-.3,10.11,10.11,0,0,1-2.09-.71,7.75,7.75,0,0,1-1.93-1.29,7.61,7.61,0,0,1-1.92,1.27,9.92,9.92,0,0,1-2.07.71,12.15,12.15,0,0,1-2.2.31c-.75,0-1.53,0-2.34,0Z"/><path class="cls-3" d="M101.63,52.75V47.43H105A9,9,0,0,0,108.1,47,4.08,4.08,0,0,0,110,45.55,5.71,5.71,0,0,0,111.08,43a18.45,18.45,0,0,0,.23-3V21.37h6.92V42.05a14.74,14.74,0,0,1-.25,2.89,10.79,10.79,0,0,1-.66,2.26,7.68,7.68,0,0,1-1,1.72,9.18,9.18,0,0,1-1.17,1.29,8.29,8.29,0,0,1-2,1.37,9.52,9.52,0,0,1-2.13.77,13.86,13.86,0,0,1-2.25.33c-.77,0-1.57.07-2.4.07Zm5.29,10.36V57.58h6.91v5.53ZM91.4,62.94V57.42h6.91v5.52Zm-10.83,0V57.42h6.91v5.52Z"/><path class="cls-3" d="M171.24,52.78a20.2,20.2,0,0,1-3.21-.26A5.91,5.91,0,0,1,165,51a8.68,8.68,0,0,1-.87-1,7.12,7.12,0,0,1-.78-1.46,11.3,11.3,0,0,1-.57-2,13.46,13.46,0,0,1-.21-2.49V39.19c0-1.08,0-2.44,0-4.07s0-3.62,0-6a3.32,3.32,0,0,0,0-.45c0-.18,0-.37-.09-.56a3.19,3.19,0,0,0-.16-.55,1.1,1.1,0,0,0-.25-.4,1.44,1.44,0,0,0-.94-.41,10.39,10.39,0,0,0-1-.06h-.84a4,4,0,0,0-1.52.29,3.2,3.2,0,0,0-1.14.78,3,3,0,0,0-.64,1.56,13.54,13.54,0,0,0-.11,1.74l-.06,10.07a26.5,26.5,0,0,1-.13,2.74,12.36,12.36,0,0,1-.49,2.45,9.32,9.32,0,0,1-1,2.15,8.25,8.25,0,0,1-1.6,1.88A8.44,8.44,0,0,1,149,52.26a18.86,18.86,0,0,1-4.64.49h-6a18.86,18.86,0,0,1-4.64-.49,8.47,8.47,0,0,1-3.51-1.88,8.3,8.3,0,0,1-1.61-1.88,9.73,9.73,0,0,1-1-2.15,11.69,11.69,0,0,1-.49-2.45,26.5,26.5,0,0,1-.13-2.74V31.73H134v8.18a18.55,18.55,0,0,0,.24,3.34,5.28,5.28,0,0,0,.92,2.16,4.24,4.24,0,0,0,2.34,1.65,12.72,12.72,0,0,0,3.3.37h1.38a12.72,12.72,0,0,0,3.3-.37,4.24,4.24,0,0,0,2.34-1.65,5.28,5.28,0,0,0,.92-2.16,18.55,18.55,0,0,0,.24-3.34l-.09-9.22q0-.84.09-1.8c.06-.63.16-1.29.29-2a6.73,6.73,0,0,1,1.94-3.59,7.06,7.06,0,0,1,2.1-1.4,7.75,7.75,0,0,1,3.28-.6l7.52.06H165a6.21,6.21,0,0,1,1,.14,5.43,5.43,0,0,1,1,.33,3.05,3.05,0,0,1,.95.62A4.09,4.09,0,0,1,169.28,25c.07.48.13.9.15,1.26s0,.66,0,.91V43.18a5.83,5.83,0,0,0,.32,2.18,3.26,3.26,0,0,0,.75,1.2,2.59,2.59,0,0,0,1.5.77,11.32,11.32,0,0,0,1.74.13h.87v5.32Z"/><path class="cls-3" d="M174.11,52.75V47.43h.69a9.09,9.09,0,0,0,3.1-.43,4.11,4.11,0,0,0,1.9-1.45,6,6,0,0,0,1-2.46,18.48,18.48,0,0,0,.28-2.86s0-.12,0-.26,0-.48,0-1V31.38q0-3.18,0-8.07t0-12H188V39.45l.14,4.28a4.33,4.33,0,0,0,1.1,2A5.25,5.25,0,0,0,191,46.84a7.49,7.49,0,0,0,2,.51c.72.07,1.39.11,2,.11h.75v5.32h-2.83c-.68,0-1.37,0-2.07-.07a15.59,15.59,0,0,1-2.13-.3,10.4,10.4,0,0,1-2.1-.71,7.89,7.89,0,0,1-1.92-1.29,8,8,0,0,1-1.92,1.27,10.34,10.34,0,0,1-2.07.71,12.28,12.28,0,0,1-2.2.31c-.75,0-1.53,0-2.34,0Z"/><path class="cls-3" d="M195,47.46h5.64a10.29,10.29,0,0,1-1-2.2,15.52,15.52,0,0,1-.55-2.4,23.31,23.31,0,0,1-.25-2.57c0-.89,0-1.81,0-2.78s0-2,0-3.08a20.3,20.3,0,0,1,.41-3.35,16.34,16.34,0,0,1,1.07-3.33,10.38,10.38,0,0,1,2-3,12.53,12.53,0,0,1,1.23-1.05,9.75,9.75,0,0,1,1.93-1.09,13.61,13.61,0,0,1,2.74-.87A17.65,17.65,0,0,1,212,21.4h13.45v5.32h-11.2a10.54,10.54,0,0,0-3.08.41,7.53,7.53,0,0,0-2.24,1.08,6.35,6.35,0,0,0-1.52,1.59,7.25,7.25,0,0,0-.88,1.9,9.85,9.85,0,0,0-.28,1.5c-.06.58-.12,1.15-.15,1.72S206,36,206,36.51s0,.87,0,1.12c0,.46,0,1,0,1.56s.08,1.17.15,1.76a13.73,13.73,0,0,0,.3,1.74,6.5,6.5,0,0,0,.52,1.44,5.38,5.38,0,0,0,1.51,1.77,6.7,6.7,0,0,0,1.95,1,9.93,9.93,0,0,0,2.18.45c.75.07,1.5.1,2.23.1h11.25v5.32H195Z"/></g></g></svg>