<svg xmlns="http://www.w3.org/2000/svg" viewBox="0 0 293.89 69.58"><defs><style>.cls-1{fill:#112639;stroke:#112639;stroke-miterlimit:10;stroke-width:2.59px;}</style></defs><g id="Layer_2" data-name="Layer 2"><g id="Layer_1-2" data-name="Layer 1"><path class="cls-1" d="M16.26,54.92a22.42,22.42,0,0,1-3.35-.26,12,12,0,0,1-3.53-1.12A13,13,0,0,1,6,51.11a13.41,13.41,0,0,1-2.75-4.23,19.75,19.75,0,0,1-.73-2.08,25.26,25.26,0,0,1-.64-2.73q-.28-1.56-.45-3.54c-.11-1.32-.17-2.83-.17-4.53,0-1.07,0-2.2.1-3.38a25.43,25.43,0,0,1,.43-3.56,23,23,0,0,1,1-3.5,13.49,13.49,0,0,1,1.67-3.22A11.93,11.93,0,0,1,7.77,17a15.59,15.59,0,0,1,3.76-1.81,16.12,16.12,0,0,1,3.63-.73c1.16-.09,2.14-.13,2.94-.13h12V9.64h9V48h8.12v6.88Zm-4.6-11.49a6.92,6.92,0,0,0,1.67,2.44,7.75,7.75,0,0,0,2.11,1.38,8.25,8.25,0,0,0,2.26.64,16.71,16.71,0,0,0,2.16.15H30.07c0-.35,0-.72,0-1.11s0-.74,0-1.06V21.2H19.86a16.18,16.18,0,0,0-1.91.12,7.76,7.76,0,0,0-2,.5A7.9,7.9,0,0,0,14,22.92a6.93,6.93,0,0,0-1.65,1.88,9.73,9.73,0,0,0-.65,1.33,11,11,0,0,0-.56,1.9,25.34,25.34,0,0,0-.4,2.68c-.1,1-.15,2.22-.15,3.59,0,1.6,0,2.94.14,4s.18,2,.3,2.67a11.1,11.1,0,0,0,.35,1.61C11.49,43,11.59,43.26,11.66,43.43Z"/><path class="cls-1" d="M79,55.37c-1.23,0-2.56,0-4-.11a32.65,32.65,0,0,1-4.36-.54,22.74,22.74,0,0,1-4.26-1.29A13.13,13.13,0,0,1,62.59,51a3.14,3.14,0,0,1-.33-.3,11.19,11.19,0,0,1-2.79,2.17,15.07,15.07,0,0,1-3.11,1.27,17.68,17.68,0,0,1-3.2.6c-1.07.1-2.09.15-3.07.15h-4V48h1.5c.6,0,1.28,0,2.06-.08A8.85,8.85,0,0,0,52,47.49a7.65,7.65,0,0,0,2.27-1.23,6.58,6.58,0,0,0,1.83-2.38,13.67,13.67,0,0,0,.75-2.17,20.8,20.8,0,0,0,.56-4.34c0-.5,0-1,0-1.38V34.75c0-1.12,0-2.42.15-3.89a26.61,26.61,0,0,1,.7-4.49,22.34,22.34,0,0,1,1.57-4.46,12,12,0,0,1,2.82-3.78,12.81,12.81,0,0,1,3.77-2.43,21.28,21.28,0,0,1,4.26-1.27A32.56,32.56,0,0,1,75,13.92c1.45-.06,2.78-.09,4-.09s2.55,0,4,.09a32.46,32.46,0,0,1,4.34.51A22,22,0,0,1,91.6,15.7a12.86,12.86,0,0,1,3.78,2.43,12,12,0,0,1,2.82,3.78,21.73,21.73,0,0,1,1.56,4.44,28.12,28.12,0,0,1,.67,4.4c.1,1.42.15,2.65.15,3.7a35,35,0,0,1-.79,8A20.41,20.41,0,0,1,97.7,48h7.18v6.88h-14ZM69.18,24a8.93,8.93,0,0,0-1.66,3.11,17.43,17.43,0,0,0-.68,3.48,32.68,32.68,0,0,0-.13,3.55c0,1.18,0,2.29,0,3.34a20.33,20.33,0,0,0,.64,4,9.41,9.41,0,0,0,2,3.67,8.84,8.84,0,0,0,2.18,1.79,10.08,10.08,0,0,0,2.44,1,13.72,13.72,0,0,0,2.56.45q1.31.12,2.55.12c.84,0,1.7,0,2.56-.12a13.55,13.55,0,0,0,2.53-.45,9.74,9.74,0,0,0,2.39-1,9,9,0,0,0,2.17-1.79,8.76,8.76,0,0,0,1.55-2.38,12.26,12.26,0,0,0,.81-2.6,17.81,17.81,0,0,0,.3-2.73c0-.92,0-1.84,0-2.73V32.24a19.62,19.62,0,0,0-.12-2.11,13.2,13.2,0,0,0-.41-2.21,11.91,11.91,0,0,0-.8-2.11A7.62,7.62,0,0,0,88.72,24a9,9,0,0,0-2.19-1.72,11.36,11.36,0,0,0-2.45-1,13.4,13.4,0,0,0-2.57-.43c-.86-.06-1.7-.1-2.52-.1s-1.53,0-2.42.1a14.59,14.59,0,0,0-2.66.43,12,12,0,0,0-2.56,1A7.34,7.34,0,0,0,69.18,24Z"/><path class="cls-1" d="M104.25,54.88V48h.9a11.77,11.77,0,0,0,4-.56,5.43,5.43,0,0,0,2.47-1.87A7.87,7.87,0,0,0,113,42.39a23.12,23.12,0,0,0,.35-3.71,4.29,4.29,0,0,1,0-.49v-.52h0V14.28h9V37.67l.18,5.54a5.59,5.59,0,0,0,1.43,2.56,6.82,6.82,0,0,0,2.2,1.46,9.6,9.6,0,0,0,2.62.66,24.53,24.53,0,0,0,2.62.15h1v6.88h-3.67c-.87,0-1.77,0-2.68-.09a19,19,0,0,1-2.75-.39,13.13,13.13,0,0,1-2.71-.92A9.79,9.79,0,0,1,118,51.85a10.55,10.55,0,0,1-2.49,1.65,13.38,13.38,0,0,1-2.67.92,16.72,16.72,0,0,1-2.85.39c-1,0-2,.07-3,.07Z"/><path class="cls-1" d="M131.49,54.88V48h4.38a11.73,11.73,0,0,0,4-.56,5.38,5.38,0,0,0,2.47-1.87,7.48,7.48,0,0,0,1.39-3.33,24.66,24.66,0,0,0,.3-3.9V14.28H153V41a19.17,19.17,0,0,1-.32,3.74,13.79,13.79,0,0,1-.86,2.92,10.15,10.15,0,0,1-1.27,2.23A12.94,12.94,0,0,1,149,51.59a11.32,11.32,0,0,1-2.57,1.78,12.39,12.39,0,0,1-2.75,1,16.58,16.58,0,0,1-2.92.43c-1,.06-2,.09-3.1.09Zm6.85,13.4V61.13h8.94v7.15Zm-20.08-.21V60.92h8.95v7.15Zm-14,0V60.92h8.94v7.15Z"/><path class="cls-1" d="M221.57,54.92a27.79,27.79,0,0,1-4.16-.33,7.74,7.74,0,0,1-4-2,10.58,10.58,0,0,1-1.13-1.34,9.82,9.82,0,0,1-1-1.89,14.1,14.1,0,0,1-.73-2.53,17.31,17.31,0,0,1-.28-3.22V37.33c0-1.39,0-3.15,0-5.26s0-4.68,0-7.72a1.86,1.86,0,0,0,0-.58,6.45,6.45,0,0,0-.11-.73,3.91,3.91,0,0,0-.21-.71,1.48,1.48,0,0,0-.31-.53,1.93,1.93,0,0,0-1.22-.52c-.51-.05-1-.08-1.37-.08H206a5.16,5.16,0,0,0-2,.38,3.89,3.89,0,0,0-1.48,1,3.94,3.94,0,0,0-.82,2,18.17,18.17,0,0,0-.15,2.24l-.07,13c0,1.25-.06,2.43-.17,3.55a15.38,15.38,0,0,1-.64,3.16,12.14,12.14,0,0,1-1.27,2.79,10.75,10.75,0,0,1-2.08,2.44,11,11,0,0,1-4.54,2.43,24.85,24.85,0,0,1-6,.63h-7.75a24.71,24.71,0,0,1-6-.63,11,11,0,0,1-4.55-2.43,10.75,10.75,0,0,1-2.08-2.44,12.58,12.58,0,0,1-1.27-2.79,16.07,16.07,0,0,1-.64-3.16c-.11-1.12-.17-2.3-.17-3.55V27.68h9V38.27a23.73,23.73,0,0,0,.31,4.32,6.92,6.92,0,0,0,1.18,2.79,5.56,5.56,0,0,0,3,2.13,16.23,16.23,0,0,0,4.27.49H184a16.15,16.15,0,0,0,4.26-.49,5.55,5.55,0,0,0,3-2.13,6.77,6.77,0,0,0,1.17-2.79,22.73,22.73,0,0,0,.32-4.32l-.11-11.94c0-.72,0-1.5.11-2.32a24,24,0,0,1,.38-2.54,8.72,8.72,0,0,1,2.5-4.65A9.48,9.48,0,0,1,198.35,15a10.17,10.17,0,0,1,4.24-.77l9.73.08c.33,0,.71,0,1.15,0a7.55,7.55,0,0,1,1.32.16,10,10,0,0,1,1.35.43,4.28,4.28,0,0,1,1.24.81A5.22,5.22,0,0,1,219,18.92c.1.62.17,1.17.21,1.63s.06.85.06,1.18V42.5a7.64,7.64,0,0,0,.41,2.82,4.26,4.26,0,0,0,1,1.56,3.39,3.39,0,0,0,2,1,15.25,15.25,0,0,0,2.24.17H226v6.88Z"/><path class="cls-1" d="M225.27,54.88V48h.9a11.84,11.84,0,0,0,4-.56,5.48,5.48,0,0,0,2.47-1.87A7.86,7.86,0,0,0,234,42.39a23.1,23.1,0,0,0,.36-3.71s0-.16,0-.34,0-.62,0-1.34V27.23q0-4.12,0-10.44t0-15.5h8.94V37.67l.19,5.54a5.58,5.58,0,0,0,1.42,2.56,6.86,6.86,0,0,0,2.21,1.46,9.51,9.51,0,0,0,2.62.66,24.39,24.39,0,0,0,2.62.15h1v6.88h-3.66c-.88,0-1.77,0-2.68-.09a18.77,18.77,0,0,1-2.75-.39,12.93,12.93,0,0,1-2.71-.92A9.79,9.79,0,0,1,239,51.85a10.55,10.55,0,0,1-2.49,1.65,13.26,13.26,0,0,1-2.68.92,16.6,16.6,0,0,1-2.84.39c-1,0-2,.07-3,.07Z"/><path class="cls-1" d="M252.33,48h7.3a14,14,0,0,1-1.26-2.85,22.19,22.19,0,0,1-.71-3.1,32.41,32.41,0,0,1-.31-3.33c-.05-1.15-.08-2.35-.08-3.6s0-2.55.08-4a26,26,0,0,1,.52-4.34,21.39,21.39,0,0,1,1.38-4.31,13.57,13.57,0,0,1,2.62-3.87,15.63,15.63,0,0,1,1.59-1.35A13.21,13.21,0,0,1,266,15.89a18.25,18.25,0,0,1,3.56-1.12,22.61,22.61,0,0,1,4.79-.45h17.4V21.2H277.22a13.63,13.63,0,0,0-4,.53,9.9,9.9,0,0,0-2.9,1.4,7.81,7.81,0,0,0-2,2.06,9.06,9.06,0,0,0-1.14,2.45,13.7,13.7,0,0,0-.36,1.95c-.09.74-.16,1.49-.21,2.22s-.08,1.43-.09,2.06,0,1.12,0,1.44c0,.6,0,1.27.06,2s.1,1.51.19,2.29a16.11,16.11,0,0,0,.39,2.24,8,8,0,0,0,.67,1.87A7.08,7.08,0,0,0,269.81,46a8.9,8.9,0,0,0,2.52,1.31,13.41,13.41,0,0,0,2.83.58c1,.08,1.93.13,2.88.13H292.6v6.88H252.33Z"/></g></g></svg>