<svg xmlns="http://www.w3.org/2000/svg" viewBox="0 0 525.02 525.02"><defs><style>.cls-1{fill:#215b9c;}.cls-2{fill:#08bcc0;}</style></defs><g id="Layer_2" data-name="Layer 2"><g id="Layer_1-2" data-name="Layer 1"><path class="cls-1" d="M0,525H127V508.08H16.94V228.64H127V211.7H0Z"/><path class="cls-1" d="M398,211.7v16.94H508.08V508.08H398V525H525V211.7Z"/><path class="cls-1" d="M93.15,254H42.34v50.8H93.15V254ZM76.22,287.91H59.28V271H76.22v16.94Z"/><path class="cls-1" d="M93.15,330.25H42.34v50.81H93.15V330.25ZM76.22,364.12H59.28V347.19H76.22v16.93Z"/><path class="cls-1" d="M42.34,457.26H93.15V406.47H42.34Zm16.94-33.87H76.22v16.95H59.28Z"/><path class="cls-1" d="M482.67,254h-50.8v50.8h50.8Zm-16.93,33.87H448.8V271h16.94Z"/><path class="cls-1" d="M431.87,381.06h50.8V330.25h-50.8Zm16.93-33.87h16.94v16.93H448.8Z"/><path class="cls-1" d="M431.87,457.26h50.8V406.47h-50.8Zm16.93-33.87h16.94v16.95H448.8Z"/><rect class="cls-2" x="118.55" y="67.74" width="287.91" height="457.27"/><path class="cls-1" d="M398,16.94V0H127V16.94H144V76.22h16.93V16.94H364.12V76.22h16.94V16.94Z"/><path class="cls-1" d="M211.7,110.09H160.89v50.8H211.7ZM194.77,144H177.83V127h16.94Z"/><path class="cls-1" d="M287.91,110.09H237.1v50.8h50.81ZM271,144H254V127H271Z"/><path class="cls-1" d="M364.12,110.09H313.31v50.8h50.81ZM347.19,144H330.25V127h16.94Z"/><path class="cls-1" d="M347.19,372.6H152.42v16.92h16.94V525H355.65V389.52h17V372.6Zm-160.9,16.92H254v33.87h-8.47a25.41,25.41,0,0,0,0,50.82H254v33.87H186.29V389.52ZM254,457.26h-8.47a8.46,8.46,0,1,1,0-16.92H254ZM271,440.34h8.47a8.46,8.46,0,1,1,0,16.92H271Zm67.74,67.74H271V474.21h8.47a25.41,25.41,0,0,0,0-50.82H271V389.52h67.74Z"/><path class="cls-1" d="M160.89,237.1H211.7V186.29H160.89Zm16.94-33.87h16.94v16.94H177.83Z"/><path class="cls-1" d="M237.1,237.1h50.81V186.29H237.1ZM254,203.23H271v16.94H254Z"/><path class="cls-1" d="M313.31,237.1h50.81V186.29H313.31Zm16.94-33.87h16.94v16.94H330.25Z"/><path class="cls-1" d="M160.89,313.31H211.7v-50.8H160.89Zm16.94-33.87h16.94v16.94H177.83Z"/><path class="cls-1" d="M237.1,313.31h50.81v-50.8H237.1ZM254,279.44H271v16.94H254Z"/><path class="cls-1" d="M313.31,313.31h50.81v-50.8H313.31Zm16.94-33.87h16.94v16.94H330.25Z"/><rect class="cls-1" x="152.42" y="338.71" width="186.29" height="16.94"/><rect class="cls-1" x="355.65" y="338.71" width="16.94" height="16.94"/></g></g></svg>