<svg xmlns="http://www.w3.org/2000/svg" viewBox="0 0 496 496"><defs><style>.cls-1{fill:#08bcc0;}.cls-2{fill:#215b9c;}</style></defs><g id="Layer_2" data-name="Layer 2"><g id="Layer_1-2" data-name="Layer 1"><path class="cls-1" d="M216,336H184a24,24,0,0,0-24,24v96h80V360a24,24,0,0,0-24-24Z"/><path class="cls-1" d="M120,336H88a24,24,0,0,0-24,24v96h80V360a24,24,0,0,0-24-24Z"/><path class="cls-2" d="M472,448h-8V240a16,16,0,0,0,16-16V192a8,8,0,0,0-8-8H256V104a24,24,0,0,0-16-22.53V16A16,16,0,0,0,224,0H96A16,16,0,0,0,80,16V33.47A24,24,0,0,0,64,56V81.47A24,24,0,0,0,48,104V305.47A24,24,0,0,0,32,328V448H16A16,16,0,0,0,0,464v32H496V472a24,24,0,0,0-24-24Zm-24,0H272V328a24,24,0,0,0-16-22.53V240H448Zm16-248v24H256V200ZM104,16H224V80H208V52.69L187.31,32H96V24a8,8,0,0,1,8-8ZM88,48h92.69L192,59.31V80H80V56a8,8,0,0,1,8-8ZM72,96H240V304H64V104a8,8,0,0,1,8-8ZM48,448V320H256V448Zm432,32H16V464H480Z"/><rect class="cls-1" x="160" y="112" width="64" height="48"/><rect class="cls-1" x="80" y="112" width="64" height="48"/><rect class="cls-1" x="160" y="176" width="64" height="48"/><rect class="cls-1" x="80" y="176" width="64" height="48"/><rect class="cls-1" x="160" y="240" width="64" height="48"/><rect class="cls-1" x="80" y="240" width="64" height="48"/><rect class="cls-1" x="368" y="384" width="64" height="48"/><rect class="cls-1" x="288" y="384" width="64" height="48"/><rect class="cls-1" x="368" y="320" width="64" height="48"/><rect class="cls-1" x="288" y="320" width="64" height="48"/><rect class="cls-1" x="368" y="256" width="64" height="48"/><rect class="cls-1" x="288" y="256" width="64" height="48"/></g></g></svg>