<svg xmlns="http://www.w3.org/2000/svg" viewBox="0 0 549 548.65"><defs><style>.cls-1{fill:#215b9c;}.cls-2{fill:#08bcc0;}</style></defs><g id="Layer_2" data-name="Layer 2"><g id="Layer_1-2" data-name="Layer 1"><path class="cls-1" d="M539.85,475.65H530V411.79a9.14,9.14,0,0,0-9.14-9.14H493V356.79a9.14,9.14,0,0,0-9.14-9.14H457V301.79a9.14,9.14,0,0,0-9.14-9.14H384V9.41A9.23,9.23,0,0,0,376.32.17,9.05,9.05,0,0,0,366,9.22V164.65H347V9.43A9.23,9.23,0,0,0,338.56.09,9.06,9.06,0,0,0,329,9.22V164.65H311V9.34A9.24,9.24,0,0,0,303.31.09,9.06,9.06,0,0,0,293,9.15v466.5H146V9.37A9.25,9.25,0,0,0,137.55,0,9.06,9.06,0,0,0,128,9.15v155.5H110V9.44A9.24,9.24,0,0,0,101.56.09,9.06,9.06,0,0,0,92,9.22V164.65H73V9.36A9.24,9.24,0,0,0,64.55,0,9.06,9.06,0,0,0,55,9.15v466.5H9.14A9.14,9.14,0,0,0,0,484.79V539.5a9.15,9.15,0,0,0,9.14,9.15H539.86a9.14,9.14,0,0,0,9.14-9.14V484.77a9.14,9.14,0,0,0-9.15-9.12Zm-27.89.1H384V420.89H512ZM475.39,402.6H384V366h91.44Zm-36.58-91.43v36.58H384V311.17Zm-128-128h54.86V475.75H310.81Zm-237.72,0H128V475.75H73.09ZM530.24,530.61h-512V494h512Z"/><rect class="cls-2" x="73.09" y="183.17" width="54.86" height="292.58"/><rect class="cls-2" x="310.12" y="183.17" width="55.55" height="292.58"/><rect class="cls-2" x="18.23" y="494.04" width="512.01" height="36.57"/></g></g></svg>