<svg xmlns="http://www.w3.org/2000/svg" xmlns:xlink="http://www.w3.org/1999/xlink" viewBox="0 0 536.84 507.26"><defs><style>.cls-1{fill:none;}.cls-2{fill:#215b9c;}.cls-3{fill:#08bcc0;}.cls-4{clip-path:url(#clip-path);}</style><clipPath id="clip-path" transform="translate(-6.04 -42.34)"><rect class="cls-1" width="549.6" height="549.6"/></clipPath></defs><g id="Layer_2" data-name="Layer 2"><g id="Layer_1-2" data-name="Layer 1"><path class="cls-2" d="M315.78,264.93a40.37,40.37,0,1,0-40.37,40.37,40.38,40.38,0,0,0,40.37-40.37Zm-69.21,0a28.84,28.84,0,1,1,28.84,28.84,28.83,28.83,0,0,1-28.84-28.84Z" transform="translate(-6.04 -42.34)"/><rect class="cls-3" x="277.62" y="290.42" width="164.13" height="113.37"/><rect class="cls-3" x="109.62" y="284.64" width="124.87" height="177.81"/><rect class="cls-3" x="44.75" y="7.85" width="164.13" height="39.91"/><polygon class="cls-3" points="190.9 122.32 70.35 170.8 70.35 50.25 190.9 50.25 190.9 122.32"/><path class="cls-2" d="M452.09,319.12H274.8a8.87,8.87,0,0,0-8.86,8.87v124.1A8.87,8.87,0,0,0,274.8,461H452.09a8.87,8.87,0,0,0,8.87-8.87V328a8.87,8.87,0,0,0-8.87-8.87Zm-8.86,62.06H372.31V336.85h70.92Zm-88.65-44.33v44.33H283.67V336.85Zm-70.91,62.06h70.91v44.32H283.67Zm88.64,44.32V398.91h70.92v44.32Z" transform="translate(-6.04 -42.34)"/><path class="cls-2" d="M274.46,119.49l-69.27,30V103h17.32V42.34H49.33V103H66.65v106.6L6,235.8V324L274.46,207.64,542.88,324V235.8ZM66.65,59.66H205.19v26H66.65ZM84,103h103.9V157L84,202Zm441.6,194.63L274.46,188.76,23.36,297.58v-50.4l251.1-108.81L525.57,247.18Z" transform="translate(-6.04 -42.34)"/><g class="cls-4"><path class="cls-2" d="M496.42,284.18q-8.87.12-17.73.14v212.1H248.21V328a8.87,8.87,0,0,0-8.87-8.87H115.24a8.88,8.88,0,0,0-8.87,8.87V496.42H70.92V287.08c-5.91.1-11.83-.05-17.73.23V496.42H44.32a8.86,8.86,0,0,0-8.86,8.86v35.46a8.86,8.86,0,0,0,8.86,8.86h461a8.86,8.86,0,0,0,8.86-8.86V505.28a8.86,8.86,0,0,0-8.86-8.86h-8.86V284.18ZM124.1,496.42V336.85H230.48V496.42ZM53.19,531.87V514.14H496.42v17.73Z" transform="translate(-6.04 -42.34)"/></g><rect class="cls-2" x="135.79" y="347.7" width="17.73" height="35.46"/></g></g></svg>