<svg xmlns="http://www.w3.org/2000/svg" viewBox="0 0 496 496"><defs><style>.cls-1{fill:#215b9c;}.cls-2{fill:#08bcc0;}</style></defs><g id="Layer_2" data-name="Layer 2"><g id="Layer_1-2" data-name="Layer 1"><rect class="cls-1" x="368" y="248" width="16" height="32"/><path class="cls-1" d="M464,318V474a6,6,0,0,1-6,6H422a6,6,0,0,1-6-6V390a6,6,0,0,0-6-6H326a6,6,0,0,0-6,6V474a6,6,0,0,1-6,6H278a6,6,0,0,1-6-6V318a6,6,0,0,0-6-6H262a6,6,0,0,0-6,6v78.1a6.05,6.05,0,0,1-1.17,3.57l-35.94,49A6,6,0,0,1,208,445.15V254a6,6,0,0,0-6-6h0a6.06,6.06,0,0,1-3.56-1.16h0a6,6,0,0,0-8.42,1.3l-73.12,99.71a6,6,0,0,1-9.72,0L34,248.13a6,6,0,0,0-8.42-1.3h0A6,6,0,0,1,22,248h0a6,6,0,0,0-6,6V490a6,6,0,0,0,6,6H474a6,6,0,0,0,6-6V318a6,6,0,0,0-6-6H470A6,6,0,0,0,464,318ZM342,400H394a6,6,0,0,1,6,6V474a6,6,0,0,1-6,6H342a6,6,0,0,1-6-6V406A6,6,0,0,1,342,400ZM250,480H227.69a6,6,0,0,1-4.86-9.59L245.11,440A6,6,0,0,1,256,443.58V474A6,6,0,0,1,250,480ZM192,290.85v154.3a6,6,0,0,1-10.89,3.56l-56.57-77.15a6,6,0,0,1,0-7.12l56.57-77.15A6,6,0,0,1,192,290.85ZM172.31,480H51.69a6,6,0,0,1-4.86-9.59l60.31-82.25a6,6,0,0,1,9.72,0l60.31,82.25A6,6,0,0,1,172.31,480ZM32,445.15V290.85a6,6,0,0,1,10.89-3.56l56.57,77.15a6,6,0,0,1,0,7.12L42.89,448.71A6,6,0,0,1,32,445.15Z"/><rect class="cls-1" x="48" y="40" width="16" height="176"/><path class="cls-1" d="M432,40V80H320V40h-8l-5.66-5.66L248,92.69,189.66,34.34,184,40h-8v72H56v8l-5.66,5.66L108.69,184,82.34,210.34l11.32,11.32L120,195.31l26.34,26.35,11.32-11.32L131.31,184,176,139.31V216h16V176H304v40h8l5.66,5.66L376,163.31l56,56V280h16V40ZM420.69,96,376,140.69,331.31,96ZM304,59.31v89.38L259.31,104ZM292.69,160H203.31L248,115.31ZM192,148.69V59.31L236.69,104ZM75.31,128h89.38L120,172.69ZM320,196.69V107.31L364.69,152ZM387.31,152,432,107.31v89.38Z"/><path class="cls-2" d="M480,320H240V272H496v32a16,16,0,0,1-16,16Z"/><path class="cls-2" d="M384,256H0V208H400v32a16,16,0,0,1-16,16Z"/><path class="cls-2" d="M448,48H32V0H464V32a16,16,0,0,1-16,16Z"/></g></g></svg>