<svg xmlns="http://www.w3.org/2000/svg" viewBox="0 0 422.64 538.35"><defs><style>.cls-1{fill:#08bcc0;}.cls-2{fill:#215b9c;}</style></defs><g id="Layer_2" data-name="Layer 2"><g id="Layer_1-2" data-name="Layer 1"><rect class="cls-1" x="53.26" y="55.31" width="319.86" height="483.04"/><path class="cls-2" d="M354.42,17.9V0H68.18V17.9h17.9V80.51H104V17.9H318.65V80.51h17.89V17.9Z"/><path class="cls-2" d="M161.6,100H107.93V153.7H161.6Zm-17.88,35.78h-17.9v-17.9h17.9Z"/><path class="cls-2" d="M242.11,100H188.44V153.7h53.67Zm-17.89,35.78H206.33v-17.9h17.89Z"/><path class="cls-2" d="M322.61,100H268.94V153.7h53.67Zm-17.88,35.78h-17.9v-17.9h17.9Z"/><path class="cls-2" d="M304.73,377.34H99v17.88h17.89V538.35H313.67V395.22h17.89V377.34Zm-170,17.88h71.57V431h-9a26.84,26.84,0,1,0,0,53.67h9v35.78H134.76V395.22Zm71.57,71.56h-9a8.94,8.94,0,1,1,0-17.88h9Zm17.89-17.88h8.94a8.94,8.94,0,1,1,0,17.88h-8.94Zm71.55,71.55H224.22V484.67h8.94a26.84,26.84,0,0,0,0-53.67h-8.94V395.22h71.55Z"/><path class="cls-2" d="M107.93,234.21H161.6V180.54H107.93Zm17.89-35.78h17.9v17.9h-17.9Z"/><path class="cls-2" d="M188.44,234.21h53.67V180.54H188.44Zm17.89-35.78h17.89v17.9H206.33Z"/><path class="cls-2" d="M268.94,234.21h53.67V180.54H268.94Zm17.89-35.78h17.9v17.9h-17.9Z"/><path class="cls-2" d="M107.93,314.71H161.6V261.05H107.93Zm17.89-35.78h17.9v17.9h-17.9Z"/><path class="cls-2" d="M188.44,314.71h53.67V261.05H188.44Zm17.89-35.78h17.89v17.9H206.33Z"/><path class="cls-2" d="M268.94,314.71h53.67V261.05H268.94Zm17.89-35.78h17.9v17.9h-17.9Z"/><rect class="cls-2" x="98.99" y="341.55" width="196.79" height="17.9"/><rect class="cls-2" x="313.67" y="341.55" width="17.9" height="17.9"/><path class="cls-2" d="M408.91,69V524.61H13.73V69H408.91m13.73-13.73H0v483H422.64v-483Z"/></g></g></svg>