<svg xmlns="http://www.w3.org/2000/svg" xmlns:xlink="http://www.w3.org/1999/xlink" viewBox="0 0 414.99 306.38"><defs><style>.cls-1{isolation:isolate;}.cls-2{opacity:0.18;}.cls-3,.cls-7{fill:#aabccc;}.cls-4{fill:#f4f7fa;}.cls-5{fill:#bfc8d5;}.cls-12,.cls-15,.cls-16,.cls-6{fill:#96a6b7;}.cls-6{opacity:0.5;}.cls-16,.cls-56,.cls-59,.cls-6,.cls-63,.cls-67,.cls-7{mix-blend-mode:multiply;}.cls-7{opacity:0.2;}.cls-8{fill:#fff;}.cls-9{fill:url(#linear-gradient);}.cls-10{opacity:0.36;}.cls-11{fill:url(#linear-gradient-2);}.cls-12,.cls-14{opacity:0.7;}.cls-13{fill:#333;}.cls-13,.cls-17,.cls-18,.cls-19,.cls-20,.cls-21,.cls-22,.cls-26,.cls-27,.cls-28,.cls-29,.cls-30,.cls-31,.cls-32,.cls-33,.cls-34,.cls-35,.cls-36,.cls-37,.cls-38,.cls-39,.cls-40,.cls-41,.cls-42,.cls-43,.cls-44,.cls-46,.cls-47,.cls-48,.cls-49,.cls-50,.cls-51,.cls-52,.cls-53,.cls-54{fill-rule:evenodd;}.cls-17{fill:#e0dde0;}.cls-18{fill:#c7c5cf;}.cls-19{fill:url(#linear-gradient-3);}.cls-20{fill:#070707;}.cls-21{fill:#0f5c65;}.cls-22{fill:url(#linear-gradient-4);}.cls-23{fill:url(#GradientFill_7);}.cls-24{fill:#a5a8c1;}.cls-25,.cls-29{fill:#222324;}.cls-26{fill:url(#GradientFill_8);}.cls-27{fill:url(#GradientFill_9);}.cls-28{fill:#716e87;}.cls-30{fill:#ebe9f1;}.cls-31{fill:#303030;}.cls-32{fill:#14757d;}.cls-33{fill:#c02026;}.cls-34{fill:#2da3a9;}.cls-35{fill:#247e85;}.cls-36{fill:#2ebec3;}.cls-37{fill:#126d76;}.cls-38{fill:#b2d8e0;}.cls-39{fill:#4e646a;}.cls-40{fill:#12515d;}.cls-41{fill:#1d8088;}.cls-42{fill:#17888c;}.cls-43{fill:#15626b;}.cls-44{fill:#cee9ef;}.cls-45{fill:url(#GradientFill_7-2);}.cls-46{fill:url(#GradientFill_8-2);}.cls-47{fill:url(#GradientFill_9-2);}.cls-48{fill:#57c6cf;}.cls-49{fill:#248389;}.cls-50{fill:#144c58;}.cls-51{fill:#2c9fa6;}.cls-52{fill:#08bcc0;}.cls-53{fill:#132839;}.cls-54{fill:#0f2536;}.cls-55,.cls-56{fill:#d8dee8;}.cls-57{fill:url(#linear-gradient-5);}.cls-58{fill:url(#linear-gradient-6);}.cls-59,.cls-63,.cls-67{opacity:0.3;}.cls-59{fill:url(#linear-gradient-7);}.cls-60{fill:url(#linear-gradient-8);}.cls-61{fill:url(#linear-gradient-9);}.cls-62{fill:url(#linear-gradient-10);}.cls-63{fill:url(#linear-gradient-11);}.cls-64{fill:url(#linear-gradient-12);}.cls-65{fill:url(#linear-gradient-13);}.cls-66{fill:url(#linear-gradient-14);}.cls-67{fill:url(#linear-gradient-15);}.cls-68{fill:url(#linear-gradient-16);}.cls-69{fill:url(#linear-gradient-17);}.cls-70{fill:url(#linear-gradient-18);}.cls-71{fill:url(#linear-gradient-19);}</style><linearGradient id="linear-gradient" x1="-4377.13" y1="216.89" x2="-4325.81" y2="216.89" gradientTransform="translate(4390.94)" gradientUnits="userSpaceOnUse"><stop offset="0.49" stop-color="#eceff2"/><stop offset="1" stop-color="#fff"/></linearGradient><linearGradient id="linear-gradient-2" x1="-3756.21" y1="176.88" x2="-3670.61" y2="176.88" gradientTransform="matrix(-1, 0, 0, 1, -3447.77, 0)" xlink:href="#linear-gradient"/><linearGradient id="linear-gradient-3" x1="111" y1="194.38" x2="310.1" y2="325.66" gradientUnits="userSpaceOnUse"><stop offset="0" stop-color="#0b8ea2"/><stop offset="1" stop-color="#018a91"/></linearGradient><linearGradient id="linear-gradient-4" x1="242.81" y1="220.92" x2="197.02" y2="323.26" gradientUnits="userSpaceOnUse"><stop offset="0" stop-color="#09919a"/><stop offset="1" stop-color="#08bcc0"/></linearGradient><linearGradient id="GradientFill_7" x1="306.68" y1="303.2" x2="306.68" y2="262.5" gradientTransform="translate(223.27 -125.93) rotate(35.78)" gradientUnits="userSpaceOnUse"><stop offset="0" stop-color="#404344"/><stop offset="1" stop-color="#010101"/></linearGradient><radialGradient id="GradientFill_8" cx="-1942.75" cy="2457.04" r="2.37" gradientTransform="translate(6972.83 -8147.99) scale(3.43)" gradientUnits="userSpaceOnUse"><stop offset="0" stop-color="#010101"/><stop offset="0.14" stop-color="#09090b"/><stop offset="0.37" stop-color="#1e1e26"/><stop offset="0.67" stop-color="#404152"/><stop offset="1" stop-color="#6c6e8b"/></radialGradient><radialGradient id="GradientFill_9" cx="-1942.75" cy="2457.04" r="4.4" gradientTransform="translate(6972.83 -8147.99) scale(3.43)" gradientUnits="userSpaceOnUse"><stop offset="0" stop-color="#e7e6ee"/><stop offset="0.22" stop-color="#e4e3eb"/><stop offset="0.38" stop-color="#dbdae2"/><stop offset="0.52" stop-color="#cbcbd2"/><stop offset="0.64" stop-color="#b5b6bc"/><stop offset="0.76" stop-color="#999a9f"/><stop offset="0.88" stop-color="#76797c"/><stop offset="0.98" stop-color="#4e5153"/><stop offset="1" stop-color="#474b4c"/></radialGradient><linearGradient id="GradientFill_7-2" x1="123.97" y1="303.74" x2="123.97" y2="263.03" gradientTransform="translate(236.69 -4.66) rotate(45)" xlink:href="#GradientFill_7"/><radialGradient id="GradientFill_8-2" cx="-1996" cy="2457.2" r="2.37" xlink:href="#GradientFill_8"/><radialGradient id="GradientFill_9-2" cx="-1996" cy="2457.2" r="4.4" xlink:href="#GradientFill_9"/><linearGradient id="linear-gradient-5" x1="951.73" y1="-881.69" x2="967.93" y2="-881.69" gradientTransform="translate(-1105.31 611.68) rotate(19.49)" xlink:href="#linear-gradient"/><linearGradient id="linear-gradient-6" x1="965.46" y1="-867.12" x2="965.46" y2="-890.45" gradientTransform="translate(-1105.31 611.68) rotate(19.49)" gradientUnits="userSpaceOnUse"><stop offset="0" stop-color="#f58f86"/><stop offset="1" stop-color="#ed72ac"/></linearGradient><linearGradient id="linear-gradient-7" x1="964.4" y1="-867.26" x2="964.4" y2="-889.68" xlink:href="#linear-gradient-6"/><linearGradient id="linear-gradient-8" x1="962.45" y1="-882.37" x2="973.58" y2="-882.37" gradientTransform="translate(-1105.31 611.68) rotate(19.49)" xlink:href="#linear-gradient"/><linearGradient id="linear-gradient-9" x1="959.83" y1="-842.71" x2="959.83" y2="-873.61" gradientTransform="translate(-1105.31 611.68) rotate(19.49)" xlink:href="#linear-gradient"/><linearGradient id="linear-gradient-10" x1="965.46" y1="-843.9" x2="965.46" y2="-867.23" gradientTransform="translate(-1105.31 611.68) rotate(19.49)" gradientUnits="userSpaceOnUse"><stop offset="0" stop-color="#fcb149"/><stop offset="0.06" stop-color="#fdbb48"/><stop offset="0.14" stop-color="#ffc346"/><stop offset="0.32" stop-color="#ffc546"/><stop offset="0.48" stop-color="#fdba48"/><stop offset="0.78" stop-color="#f99d4e"/><stop offset="0.87" stop-color="#f79350"/><stop offset="1" stop-color="#f79350"/></linearGradient><linearGradient id="linear-gradient-11" x1="964.4" y1="-844.04" x2="964.4" y2="-866.46" xlink:href="#linear-gradient-10"/><linearGradient id="linear-gradient-12" x1="966.05" y1="-871.18" x2="974.08" y2="-840.5" gradientTransform="translate(-1105.31 611.68) rotate(19.49)" xlink:href="#linear-gradient"/><linearGradient id="linear-gradient-13" x1="959.83" y1="-818.63" x2="959.83" y2="-849.53" gradientTransform="translate(-1105.31 611.68) rotate(19.49)" xlink:href="#linear-gradient"/><linearGradient id="linear-gradient-14" x1="965.46" y1="-819.82" x2="965.46" y2="-843.15" gradientTransform="translate(-1105.31 611.68) rotate(19.49)" gradientUnits="userSpaceOnUse"><stop offset="0" stop-color="#d191c0"/><stop offset="1" stop-color="#8172b4"/></linearGradient><linearGradient id="linear-gradient-15" x1="964.4" y1="-819.96" x2="964.4" y2="-842.38" xlink:href="#linear-gradient-14"/><linearGradient id="linear-gradient-16" x1="966.05" y1="-847.1" x2="974.07" y2="-816.42" gradientTransform="translate(-1105.31 611.68) rotate(19.49)" xlink:href="#linear-gradient"/><linearGradient id="linear-gradient-17" x1="-337.53" y1="458.01" x2="-317.68" y2="521.37" gradientTransform="matrix(0.99, -0.13, 0.13, 0.99, 335.29, -313)" gradientUnits="userSpaceOnUse"><stop offset="0" stop-color="#ffc546"/><stop offset="1" stop-color="#f36f56"/></linearGradient><linearGradient id="linear-gradient-18" x1="34.41" y1="195.8" x2="60.11" y2="277.84" gradientTransform="matrix(1, 0, 0, 1, 0, 0)" xlink:href="#linear-gradient-17"/><linearGradient id="linear-gradient-19" x1="45.32" y1="185.36" x2="61.39" y2="236.67" gradientTransform="matrix(1, 0, 0, 1, 0, 0)" xlink:href="#linear-gradient-17"/></defs><g class="cls-1"><g id="Layer_2" data-name="Layer 2"><g id="Layer_1-2" data-name="Layer 1"><g class="cls-2"><polygon class="cls-3" points="116.57 194.52 116.57 280.05 104.53 277.46 104.53 202.64 115.48 195.26 116.43 194.61 116.57 194.52"/><rect class="cls-4" x="116.57" y="194.44" width="33.45" height="85.61"/><rect class="cls-5" x="122.94" y="203.89" width="4.25" height="70.53"/><rect class="cls-5" x="131.79" y="203.89" width="4.42" height="70.53"/><rect class="cls-5" x="140.64" y="203.89" width="4.42" height="70.53"/><rect class="cls-6" x="125.77" y="203.89" width="1.42" height="70.53"/><rect class="cls-6" x="134.8" y="203.89" width="1.42" height="70.53"/><rect class="cls-6" x="143.83" y="203.89" width="1.42" height="70.53"/><path class="cls-7" d="M150,280H116.57l-12-2.59v-8.7c5.58-9.69,3.74-13.73,5-20.91,1.17-7-1.31-44,6-52.59a5.34,5.34,0,0,1,.83-.82l.12.17.14.2c3.8,5.49,5.54,8.12,6.37,10.9s.75,5.59.88,11.43c.16,7.18.13,13.43,2,17.73a10.69,10.69,0,0,0,1.42,2.45,8.91,8.91,0,0,0,4.6,3.07l.69.19a10.08,10.08,0,0,1,2.32.87,11.47,11.47,0,0,1,1.41.85,19.56,19.56,0,0,1,4.43,4.28,32.55,32.55,0,0,1,3.19,5.1c.43.87.85,1.77,1.23,2.7l.18.43a47.4,47.4,0,0,1,3.34,18.25A14.74,14.74,0,0,0,150,280Z"/><polygon class="cls-3" points="65.13 173.19 65.13 280.78 51.33 277.52 51.33 183.41 65.13 173.19"/><rect class="cls-8" x="65.13" y="173.45" width="43.18" height="107.33"/><rect class="cls-5" x="72.92" y="186.23" width="8.5" height="16.87"/><rect class="cls-5" x="84.6" y="186.23" width="8.67" height="16.87"/><rect class="cls-5" x="96.46" y="186.23" width="8.5" height="16.87"/><rect class="cls-5" x="72.92" y="208.46" width="8.5" height="16.87"/><rect class="cls-5" x="84.6" y="208.46" width="8.67" height="16.87"/><rect class="cls-5" x="96.46" y="208.46" width="8.5" height="16.87"/><rect class="cls-5" x="72.92" y="230.69" width="8.5" height="16.87"/><rect class="cls-5" x="84.6" y="230.69" width="8.67" height="16.87"/><rect class="cls-5" x="96.46" y="230.69" width="8.5" height="16.87"/><rect class="cls-5" x="72.92" y="252.93" width="8.5" height="16.87"/><rect class="cls-5" x="84.6" y="252.93" width="8.67" height="16.87"/><rect class="cls-5" x="96.46" y="252.93" width="8.5" height="16.87"/><rect class="cls-6" x="72.92" y="186.23" width="8.5" height="1.79"/><rect class="cls-6" x="72.92" y="208.46" width="8.5" height="1.79"/><rect class="cls-6" x="72.92" y="230.69" width="8.5" height="1.79"/><rect class="cls-6" x="72.92" y="252.93" width="8.5" height="1.79"/><rect class="cls-6" x="84.69" y="186.23" width="8.5" height="1.79"/><rect class="cls-6" x="84.69" y="208.46" width="8.5" height="1.79"/><rect class="cls-6" x="84.69" y="230.69" width="8.5" height="1.79"/><rect class="cls-6" x="84.69" y="252.93" width="8.5" height="1.79"/><rect class="cls-6" x="96.46" y="186.23" width="8.5" height="1.79"/><rect class="cls-6" x="96.46" y="208.46" width="8.5" height="1.79"/><rect class="cls-6" x="96.46" y="230.69" width="8.5" height="1.79"/><rect class="cls-6" x="96.46" y="252.93" width="8.5" height="1.79"/><path class="cls-7" d="M108.31,279v1.78H65.13l-13.8-3.26V261.59a55,55,0,0,1,3.36-9.43c5.07-10.48,3.42-14.74,4.48-22.41s-1.3-49.23,6-56.3c6.78,11.84,6.31,11.33,6.55,23.94.12,6.74.12,12.7,1.24,17.13,1,3.85,2.8,6.54,6.31,7.57a8.11,8.11,0,0,1,2.18,1c2.29,1.47,4.43,4.13,6.25,7.58a51.52,51.52,0,0,1,5.08,16.87c.24,1.75.4,3.55.48,5.37,0,.6,0,1.21,0,1.82s0,1.05,0,1.58v.55a16.2,16.2,0,0,0,3.19,10.18A19.1,19.1,0,0,0,99,269.79C102.69,273.05,107,275,108.31,279Z"/><rect class="cls-9" x="13.8" y="153.64" width="51.33" height="126.5"/><rect class="cls-5" x="17.7" y="165.65" width="43.54" height="7.92"/><rect class="cls-5" x="17.7" y="179.71" width="43.54" height="7.92"/><rect class="cls-5" x="17.7" y="193.76" width="43.54" height="7.92"/><rect class="cls-5" x="17.7" y="207.82" width="43.54" height="7.92"/><rect class="cls-5" x="17.7" y="221.88" width="43.54" height="7.92"/><rect class="cls-5" x="17.7" y="235.93" width="43.54" height="7.92"/><rect class="cls-5" x="17.7" y="249.99" width="43.54" height="7.92"/><polygon class="cls-3" points="13.8 153.64 13.8 280.14 0 280.14 0 165.65 13.4 153.99 13.75 153.69 13.8 153.64"/><rect class="cls-6" x="17.7" y="165.65" width="43.54" height="1.53"/><rect class="cls-6" x="17.7" y="179.71" width="43.54" height="1.53"/><rect class="cls-6" x="17.7" y="193.76" width="43.54" height="1.53"/><rect class="cls-6" x="17.7" y="207.82" width="43.54" height="1.53"/><rect class="cls-6" x="17.7" y="221.88" width="43.54" height="1.53"/><rect class="cls-6" x="17.7" y="235.93" width="43.54" height="1.53"/><rect class="cls-6" x="17.7" y="249.99" width="43.54" height="1.53"/><path class="cls-7" d="M63.43,280.14H13.8L0,276.31V251.8c.54-1.52,1.13-3,1.75-4.31C7.57,235,5.67,229.92,6.89,220.78S5.47,163.35,13.4,154c.11-.12.21-.24.32-.35l0,.05.05.1c3.14,5.69,4.9,9,5.92,11.86.18.52.34,1,.47,1.54a28.79,28.79,0,0,1,.86,6.38c.07,1.7.1,3.68.14,6.14q0,.73,0,1.53c0,.31,0,.62,0,.94,0,1.87.06,3.69.09,5.45.05,2.14.11,4.19.21,6.13,0,.52.06,1,.1,1.54a48.13,48.13,0,0,0,.81,6.39,17.36,17.36,0,0,0,2.34,6.13A9.27,9.27,0,0,0,26,209.35a9.06,9.06,0,0,0,3.86,2.29,12.55,12.55,0,0,1,5.67,4.1,30.88,30.88,0,0,1,4,6.14c.26.49.5,1,.74,1.53a52.84,52.84,0,0,1,2.45,6.39c.61,1.95,1.16,4,1.61,6.13.11.51.21,1,.31,1.53.4,2.08.72,4.22.94,6.39s.34,4.07.38,6.14c0,.51,0,1,0,1.53,0,.31,0,.63,0,.95a25.92,25.92,0,0,0,.46,5.44C49,270.7,61.37,271.7,63.43,280.14Z"/></g><g class="cls-10"><polygon class="cls-3" points="260.87 0 260.87 282.08 286.4 273.54 286.4 26.79 263.19 2.43 261.17 0.3 260.87 0"/><rect class="cls-8" x="189.93" width="70.94" height="282.36"/><rect class="cls-5" x="238.35" y="31.19" width="9.01" height="232.63"/><rect class="cls-5" x="219.21" y="31.19" width="9.38" height="232.63"/><rect class="cls-5" x="200.44" y="31.19" width="9.38" height="232.63"/><rect class="cls-6" x="238.35" y="31.19" width="3" height="232.63"/><rect class="cls-6" x="219.21" y="31.19" width="3" height="232.63"/><rect class="cls-6" x="200.07" y="31.19" width="3" height="232.63"/><path class="cls-7" d="M189.39,282.35h70.94l25.53-8.54v-28.7c-11.83-32-7.93-45.26-10.49-69C272.88,153,278.14,31.05,262.65,2.71A17.65,17.65,0,0,0,260.88,0l-.25.58-.3.66c-8.06,18.11-11.75,26.76-13.51,36-1.71,9-1.58,18.43-1.86,37.69-.35,23.68-.28,44.29-4.15,58.48a42.11,42.11,0,0,1-3,8.07c-2.34,4.65-5.49,8.09-9.76,10.11a15.41,15.41,0,0,1-1.45.62,18.39,18.39,0,0,0-4.93,2.89,26.56,26.56,0,0,0-3,2.79A58.47,58.47,0,0,0,209.28,172a125.21,125.21,0,0,0-6.75,16.82c-.93,2.85-1.81,5.82-2.63,8.89l-.38,1.43a234.72,234.72,0,0,0-7.08,60.17A72.3,72.3,0,0,1,189.39,282.35Z"/><polygon class="cls-3" points="215.31 139.72 215.31 282.36 235.39 278.04 235.39 153.27 217.13 140.95 215.54 139.88 215.31 139.72"/><rect class="cls-4" x="159.53" y="139.58" width="55.79" height="142.78"/><rect class="cls-5" x="197.6" y="155.35" width="7.08" height="117.63"/><rect class="cls-5" x="182.55" y="155.35" width="7.38" height="117.63"/><rect class="cls-5" x="167.79" y="155.35" width="7.38" height="117.63"/><rect class="cls-6" x="197.6" y="155.35" width="2.36" height="117.63"/><rect class="cls-6" x="182.55" y="155.35" width="2.36" height="117.63"/><rect class="cls-6" x="167.5" y="155.35" width="2.36" height="117.63"/><path class="cls-7" d="M159.53,282.35h55.78L235.39,278V263.53c-9.3-16.16-6.24-22.88-8.25-34.87-2-11.71,2.18-73.38-10-87.71a10.48,10.48,0,0,0-1.38-1.37l-.21.3-.23.33c-6.34,9.16-9.24,13.53-10.62,18.18s-1.25,9.32-1.47,19.06c-.27,12-.21,22.4-3.25,29.57a17.66,17.66,0,0,1-2.37,4.09,14.88,14.88,0,0,1-7.67,5.11c-.37.11-.75.22-1.15.31a17.91,17.91,0,0,0-3.87,1.46,23.31,23.31,0,0,0-2.36,1.41,33,33,0,0,0-7.38,7.15,53.36,53.36,0,0,0-5.31,8.51q-1.1,2.16-2.07,4.49l-.29.72a78.88,78.88,0,0,0-5.57,30.43A24.72,24.72,0,0,1,159.53,282.35Z"/><rect class="cls-11" x="222.84" y="71.39" width="85.6" height="210.97"/><rect class="cls-5" x="229.33" y="91.42" width="72.61" height="13.21"/><rect class="cls-5" x="229.33" y="114.86" width="72.61" height="13.21"/><rect class="cls-5" x="229.33" y="138.3" width="72.61" height="13.21"/><rect class="cls-5" x="229.33" y="161.75" width="72.61" height="13.21"/><rect class="cls-5" x="229.33" y="185.19" width="72.61" height="13.21"/><rect class="cls-5" x="229.33" y="208.63" width="72.61" height="13.21"/><rect class="cls-5" x="229.33" y="232.07" width="72.61" height="13.21"/><polygon class="cls-3" points="308.44 71.39 308.44 282.36 331.46 282.36 331.46 91.42 309.11 71.97 308.53 71.47 308.44 71.39"/><rect class="cls-6" x="229.33" y="91.42" width="72.61" height="2.56"/><rect class="cls-6" x="229.33" y="114.86" width="72.61" height="2.56"/><rect class="cls-6" x="229.33" y="138.3" width="72.61" height="2.56"/><rect class="cls-6" x="229.33" y="161.75" width="72.61" height="2.56"/><rect class="cls-6" x="229.33" y="185.19" width="72.61" height="2.56"/><rect class="cls-6" x="229.33" y="208.63" width="72.61" height="2.56"/><rect class="cls-6" x="229.33" y="232.07" width="72.61" height="2.56"/><path class="cls-7" d="M225.68,282.36h82.76l23-6.39V235.1c-.9-2.55-1.88-5-2.91-7.2-9.71-20.83-6.55-29.3-8.58-44.55-2-15,2.37-95.77-10.86-111.38-.18-.21-.35-.4-.53-.58a.56.56,0,0,1-.05.08l-.09.17c-5.22,9.48-8.17,15-9.86,19.78-.31.87-.57,1.72-.79,2.56a47.33,47.33,0,0,0-1.43,10.65c-.13,2.84-.18,6.14-.24,10.23,0,.82,0,1.67,0,2.56,0,.51,0,1,0,1.57-.05,3.12-.09,6.15-.15,9.09-.07,3.57-.17,7-.34,10.22-.05.87-.11,1.72-.16,2.56A81.48,81.48,0,0,1,294,151.52a28.9,28.9,0,0,1-3.89,10.23,16.18,16.18,0,0,1-2.08,2.55,15.17,15.17,0,0,1-6.45,3.81c-3.28,1-6.48,3.38-9.46,6.85a51.24,51.24,0,0,0-6.65,10.23c-.42.82-.84,1.68-1.24,2.55a92.5,92.5,0,0,0-4.07,10.66c-1,3.25-1.93,6.68-2.7,10.23-.18.84-.35,1.7-.52,2.56-.66,3.45-1.19,7-1.56,10.65-.35,3.36-.57,6.78-.63,10.23,0,.85,0,1.7,0,2.56,0,.52,0,1.05,0,1.57a42.78,42.78,0,0,1-.77,9.08C249.71,266.62,229.11,268.29,225.68,282.36Z"/><polygon class="cls-3" points="391.97 102.93 391.97 282.36 414.99 276.93 414.99 119.97 391.97 102.93"/><rect class="cls-8" x="319.95" y="103.36" width="72.02" height="179.01"/><rect class="cls-5" x="364.82" y="124.67" width="14.17" height="28.13"/><rect class="cls-5" x="345.04" y="124.67" width="14.46" height="28.13"/><rect class="cls-5" x="325.56" y="124.67" width="14.17" height="28.13"/><rect class="cls-5" x="364.82" y="161.75" width="14.17" height="28.13"/><rect class="cls-5" x="345.04" y="161.75" width="14.46" height="28.13"/><rect class="cls-5" x="325.56" y="161.75" width="14.17" height="28.13"/><rect class="cls-5" x="364.82" y="198.83" width="14.17" height="28.13"/><rect class="cls-5" x="345.04" y="198.83" width="14.46" height="28.13"/><rect class="cls-5" x="325.56" y="198.83" width="14.17" height="28.13"/><rect class="cls-5" x="364.82" y="235.91" width="14.17" height="28.13"/><rect class="cls-5" x="345.04" y="235.91" width="14.46" height="28.13"/><rect class="cls-5" x="325.56" y="235.91" width="14.17" height="28.13"/><rect class="cls-6" x="364.82" y="124.67" width="14.17" height="2.98"/><rect class="cls-6" x="364.82" y="161.75" width="14.17" height="2.98"/><rect class="cls-6" x="364.82" y="198.83" width="14.17" height="2.98"/><rect class="cls-6" x="364.82" y="235.91" width="14.17" height="2.98"/><rect class="cls-6" x="345.19" y="124.67" width="14.17" height="2.98"/><rect class="cls-6" x="345.19" y="161.75" width="14.17" height="2.98"/><rect class="cls-6" x="345.19" y="198.83" width="14.17" height="2.98"/><rect class="cls-6" x="345.19" y="235.91" width="14.17" height="2.98"/><rect class="cls-6" x="325.56" y="124.67" width="14.17" height="2.98"/><rect class="cls-6" x="325.56" y="161.75" width="14.17" height="2.98"/><rect class="cls-6" x="325.56" y="198.83" width="14.17" height="2.98"/><rect class="cls-6" x="325.56" y="235.91" width="14.17" height="2.98"/><path class="cls-7" d="M320,279.39v3h72l23-5.44V250.36a93.55,93.55,0,0,0-5.6-15.73c-8.47-17.48-5.71-24.58-7.48-37.37s2.16-82.11-9.94-93.9c-11.31,19.74-10.53,18.89-10.92,39.92-.21,11.25-.2,21.19-2.07,28.58-1.62,6.42-4.67,10.9-10.52,12.62a13.77,13.77,0,0,0-3.64,1.7c-3.81,2.46-7.39,6.88-10.43,12.65A85.74,85.74,0,0,0,345.92,227c-.4,2.92-.66,5.92-.79,8.95-.05,1-.08,2-.09,3s0,1.77,0,2.65c0,.31,0,.62,0,.92-.06,7.64-2.24,12.92-5.31,17a32.88,32.88,0,0,1-4.3,4.57C329.33,269.47,322.17,272.74,320,279.39Z"/></g><path class="cls-12" d="M195.05,124.12c-5-1.36-8.8,3.14-10.65,7.17a10.58,10.58,0,0,0-4.47-.49c-9.4.54-7,11.6-7,11.6-4,5.91.25,6.4,3.64,7.38s8.32-4.88,8.93-7.38,8.17-.18,13.65-1.9S203.71,126.48,195.05,124.12Z"/><path class="cls-13" d="M33.47,304.25c32.47-3.76,62.23-.59,91.81-.1,27.78.46,205.25-1,233.15.93a113.67,113.67,0,0,1,12.79,1.23c-30.12-.54-63.27-2.23-93.09-1C245.43,306.6,66.07,307.22,33.47,304.25Z"/><g class="cls-14"><path class="cls-15" d="M224.71,158.74c-12.43,14.17-39.85,6.62-34.05,19.21s-18.38,16-23.74,16.8,8.09,22.14,2.7,29.54-58.71,43.5-79.25,14.48a74.66,74.66,0,0,1-5.25-11.86c-3.66-10.78-5.4-25.39,10.58-27.93,25.85-4.12,1.08-32.49,36.51-32s15-47.36,46.18-48.42a54.72,54.72,0,0,1,13.91,1.34C217.05,125.51,235.24,146.74,224.71,158.74Z"/><path class="cls-16" d="M192.3,119.94c-15.86,1.07-12,16.07-13.91,19.6-8-1.66-11.35-.17-15.38,18.76s-23.41,29-31.25,26.94-5.33,9.74-19.47,31.07c-7.12,10.75-18.06,12-27.17,10.6-3.66-10.78-5.4-25.39,10.58-27.93,25.85-4.12,1.08-32.49,36.51-32s15-47.36,46.18-48.42A54.72,54.72,0,0,1,192.3,119.94Z"/></g><path class="cls-17" d="M96.84,223.07c.21-5-1.14-10.65,1.38-15,1.75-3,7.22-1.43,9.64-3.91,1.82-1.88,3-5.41,1.65-7.68-2.78-4.87-9.19-6.75-12.49-11.29a9.45,9.45,0,0,1-1.51-8c1.06-3.29,3.39-6.77,6.63-8,2.57-1,5.11,2.16,7.82,2.56,1.46.21,3.45.4,4.37-.75a17.56,17.56,0,0,0,3.61-9.34c.09-1.14-1.57-2.05-2.71-2.1-2.61-.12-5.06,1.49-7.67,1.65-1.06.07-2.61,0-3-1-.47-1.14.56-2.44,1.13-3.53.9-1.72,3-2.9,3.24-4.82.18-1.44-1.21-2.69-2.18-3.76-2.27-2.52-5.67-4-7.45-6.93-2.37-3.8,1.6-11.69,4.81-13.84,3.57-2.39,11.3-2.3,15.2-4.07,4.49-2-.52-7.61,1-12.49,1-3.24,4.58-1.57,6.25-.83-9.24,1.55-1.78,10.87-2.11,14.23-.52,5.36-8.86,6.49-10.23,9-1.22,2.25-1.46,6,.45,7.67,3.14,2.83,7.36-2.38,9.33-2.71,2.8-.46,5.64,3,4.21,5.87-.63,1.29-2.6,1.41-3.46,2.56-1.07,1.44,1.49,2.52,3,2.11,2.29-.62,4.31-3.89,6.47-2.94,12,5.26-.05,29.66-10.38,32-2.14.48-8.51-1.48-10.46,2.56s3.75,8.26,7.22,9.33c2.92.89,6.48-.65,9.11.9,6.74,4,7.77,11.92,1.88,16.26-2.32,1.71-4.46,1.25-6.32,2.56a7.5,7.5,0,0,0-3.16,4.06,10.41,10.41,0,0,0,.6,6.32c.58,1.41,2,2.32,3.31,3.16.69.46,1.91,0,2.41.6s-.45,1.44-.31,2.16c.72,3.67,3.74,7.22,2.87,10.86-2.11,8.85-10.45,5.51-16,5.72-3.85.15-1.34,9.6-5.11,10.39-4.49.93-9.59-2.9-11.93-6.83-2.46-4.13-.48-9.6-.72-14.4C97.11,228.68,96.73,225.88,96.84,223.07Z"/><path class="cls-17" d="M146.62,232.88c-.8-3.61-3.39-7.38-2.44-11.28.65-2.67,4.19,2,6.58-5.65,2.5-8-3.56-13-3-20.17.19-2.37,3.93-.75,5.1-6.17,1.81-8.45-2.37-13.56-6-16.71,2.73,4.92,4.16,8.17,3.24,13.34-.79,4.4-4,2.65-4.78,4-1.61,2.86-1.56,4.37-1.43,7.66.2,5.09,5.91,11.46,2.74,16.48-1,1.51-3.87-1.46-5.35-.45a6.61,6.61,0,0,0-2.78,5.94c.44,3.17,3.93,5.26,4.74,8.35.42,1.59-1.64,3.16-1.28,4.76.21.95,1.66,1.28,2.64,1.26C145.4,234.22,146.8,233.68,146.62,232.88Z"/><path class="cls-18" d="M150.76,216c2.5-8-3.56-13-3-20.17.19-2.37,3.93-.75,5.1-6.17,1.81-8.45-2.37-13.56-6-16.71,3.65,3.15,6.1,8.26,4.28,16.71-1.16,5.42-5,4-5.16,6.4-.57,7.14,6.39,11,3.89,19-2.39,7.62-6.46,3.21-7.11,5.88-.95,3.9,3.07,8.35,3.87,12-.8-3.61-3.39-7.38-2.44-11.28C144.83,218.93,148.37,223.57,150.76,216Z"/><path class="cls-18" d="M114.18,197.09c-2.79-4.87-11.15-8.4-14.45-12.94-12.88-17.72,14.83-10.33,17.16-11.59,3.72-2,3.64-7.51,3.91-10.84.7-8.56-10.84-.74-12.19-4-1-2.38,3.65-5,3.91-7.15.38-3.12-9-8.16-10.83-11.14-2.37-3.81,1.9-8.39,5.11-10.54,3.56-2.38,9.42-2.45,13.32-4.21,4.49-2-1.35-9,.15-13.85-1.5,4.88,3.51,10.46-1,12.49-3.9,1.77-11.63,1.68-15.2,4.07-3.21,2.15-7.18,10-4.81,13.84,1.78,2.89,5.18,4.41,7.45,6.93,1,1.07,2.36,2.32,2.18,3.76-.24,1.92-2.34,3.1-3.24,4.82-.57,1.09-1.6,2.39-1.13,3.53.41,1,2,1.05,3,1,2.61-.16,5.06-1.77,7.67-1.65,1.14,0,2.8,1,2.71,2.1a17.56,17.56,0,0,1-3.61,9.34c-.92,1.15-2.91,1-4.37.75-2.71-.4-5.25-3.52-7.82-2.56-3.24,1.21-5.57,4.69-6.63,8a9.45,9.45,0,0,0,1.51,8c3.3,4.54,9.71,6.42,12.49,11.29,1.3,2.27.17,5.8-1.65,7.68-2.42,2.48-7.89.92-9.64,3.91-2.52,4.34-1.17,10-1.38,15,.21-5,2-6.74,4.54-11.08,1.75-3,7.37-.67,9.79-3.16C113,207,115.48,199.37,114.18,197.09Z"/><path class="cls-18" d="M129.62,230c-.3-.67-.59-1.34-.85-2a15,15,0,0,0-2.25.87c.8.84,1.67,1.63,2.43,2.44v0a2.07,2.07,0,0,1,.66-1.26Zm-6.94-10.17a10.41,10.41,0,0,1-.6-6.32,7.5,7.5,0,0,1,3.16-4.06c1.86-1.31,4-.85,6.32-2.56,5.89-4.34,4.86-12.29-1.88-16.26-2.63-1.55-6.19,0-9.11-.9-3.47-1.07-9.19-5.24-7.22-9.33s8.32-2.08,10.46-2.56c10.33-2.33,22.36-26.73,10.38-32-2.16-1-4.18,2.32-6.47,2.94-1.52.41-4.08-.67-3-2.11.86-1.15,2.83-1.27,3.46-2.56,1.43-2.88-1.41-6.33-4.21-5.87-2,.33-6.19,5.54-9.33,2.71-1.91-1.71-1.67-5.42-.45-7.67,1.37-2.54,9.71-3.67,10.23-9,.33-3.36-7.13-12.68,2.11-14.23-9.24,1.55-3.74,10.12-4.06,13.47-.53,5.37-9.62,7.85-11,10.39-1.22,2.25-.25,7.17,1.65,8.88,3.14,2.82,9-1.78,11-2.11,2.8-.46,3.69.12,2.26,3a46.54,46.54,0,0,1-3.61,4.82c-1.08,1.43,1.34,3.65,5.57,2.11,2.22-.81,3.32-3.51,5.49-2.56,12,5.26-.28,24.76-10.61,27.09-2.14.48-10.85.25-12.8,4.29s5.41,11.8,8.88,12.87c2.92.89,7-.95,9.64.6,6.74,4,6.18,8.15.3,12.49-2.32,1.71-4.16,1.26-6,2.56-14.14,9.88-2.56,16-1.58,16.63,2.71,1.79,1.7.56,3.59,2.8a19.24,19.24,0,0,1,2.87-1.62c-.14-.72.75-1.58.31-2.16s-1.72-.14-2.41-.6C124.72,222.14,123.26,221.23,122.68,219.82Z"/><path class="cls-19" d="M147.85,289.19l135.61,3.45c-2.23-17.72,5.17-32.65,21.32-33.08,9.1-.25,20.47,3.83,23.34,14.21,1.37,4.92,1.22,10.15,1.83,15.22l16.44-.41c.75-8.52,2.12-17,2.24-25.57A90.1,90.1,0,0,0,347,245.14a9.78,9.78,0,0,0-2.64-4.67,7.52,7.52,0,0,0-3.65-2c-9.93-2.39-20.12-3.66-30-6.09a20.65,20.65,0,0,1-5.27-2.54c-1.67-1-3.55-1.76-4.77-3.24-7.26-8.77-13.51-18.33-20.51-27.31a15.53,15.53,0,0,0-3.55-3.55,11.49,11.49,0,0,0-4.87-2c-14.16-1.66-28.4-2.75-42.63-3.55-16.23-.92-32.48-1.54-48.72-1.63a10.41,10.41,0,0,0-5.28,1.32A14,14,0,0,0,171,194c-7.63,10.76-14.45,22.07-22.13,32.79a5.49,5.49,0,0,1-2.84,2c-1.18.33-2.67-.92-3.66-.2-3.06,2.2-9.7-2.61-11,2.35-.34,1.31-1.37-1.48-5-3.25-2.39-1.16-6.8-5.93-7.8-1.3-.28,1.31-6.44,16.26-6.22,11.48.09-2-3.83-24.64-4.62-11.53-.34,5.57-1.64,7.26-4.27,1.57-2.92-6.35-1.87,4.1-5.29,1.39C97.79,229,93,228,93,230,94,251.64,89,227.89,89,242.67c0,5.53,2.22,12-2.53,2.08-.67-1.39-2.18-5.44-.51-6.59,4-2.79,2.63-17-6.92.27-.94,1.69,1.41,7.25-2.69,13.71a4.37,4.37,0,0,0-.14,2.34c1.06,7.58-1.27,6.08,1.76,15,2.2,6.44,3.07,7.91,8.19,15,10.74,14.92,6.6-14,7.68,4.54.16,2.84,7.14.74,6.53-2s.61-26.8,23.14-27.41C136.28,259.21,149.88,272.82,147.85,289.19Z"/><path class="cls-20" d="M283.46,292.64,330,289c2.51-13.32-1-36-28.39-32.66C288.14,258,275.28,274.45,283.46,292.64Z"/><path class="cls-21" d="M98.73,245.15c-.14-.32-.3-.64-.47-1-1.42-2.66.14-2.25.47,1Zm1,3a14.64,14.64,0,0,0-1-3c0,.23,0,.47,0,.73a2.69,2.69,0,0,0,.92,2.27Zm7.89-8.91a10.65,10.65,0,0,1-.87-3.77c.06.07.39,1.75.87,3.77Zm1.43,5c.43-.36.17-1.23-.3-2.37-.33-.78-.76-1.69-1.13-2.65.2.85.42,1.76.67,2.63s.49,1.69.76,2.39Zm-23.08-6.1c3.93-2.71,2.7-16.24-6.15-1.09-.25.43-.51.88-.77,1.36-.39.69-.22,2-.17,3.82.22-.83.8-1.37,1.4-.17a11.92,11.92,0,0,1,.87,3.21c.92,5.41,3.73,1,4.21,4.37.1.72,1.77.51,2.75,3.72.35,1.14,2,.42,3.27,2.14.77,1,1.45,2.84,1.73,6.37.77,9.65,4.71-2.47,3,9.95a43.82,43.82,0,0,0,1.69,4.37,9.18,9.18,0,0,0,1.71-2.47,19.28,19.28,0,0,0,1.85-4.63,2.67,2.67,0,0,0,.06-.51c0-1.54,0-4.89-.18-8.08l-.08,0a1,1,0,0,1-.33-1.31,1,1,0,0,1,.3-.31c-.18-2.37-.49-4.42-1-5.24-.27-.44.15-2.58-.46-5.46.88.66,2.19.58,3.06,1.74a45.86,45.86,0,0,1,.19-5.38,6.43,6.43,0,0,1,.94-3,1.49,1.49,0,0,1,1.42-.63,1.68,1.68,0,0,1,1.23.87c.74,1.23.87,3.56,1,6,0,.24,0,.48,0,.73.21-2.24.07-4,1-4.05a.8.8,0,0,0,.47-.18c.81,2.15,1.69,3.1,2.4.19.15,0,1.52,9.92,5-2.41.69-2.47,3.68-2.31,4.24-6.41,0-.25.06-.53.08-.82.07-1.39,1.38-3.86-.39-7.66a12.12,12.12,0,0,1-.88-2.45,2.76,2.76,0,0,0-.89,1.7c-.28,1.31-6.44,16.26-6.22,11.48a74.31,74.31,0,0,0-1.67-10.15c-.07-.32-.15-.64-.22-.95-1.09-4.48-2.32-7.16-2.73-.43-.34,5.57-1.64,7.26-4.27,1.57-2.92-6.35-1.87,4.1-5.29,1.39C97.79,229,93,228,93,230,94,251.64,89,227.89,89,242.67c0,5.53,2.22,12-2.53,2.08C85.78,243.36,84.27,239.31,85.94,238.16Z"/><path class="cls-22" d="M338.17,288.79c1.32-10.39.26-18.37-2.53-24.45-5.31-11.58-16.94-16.23-30.52-17.43a23.9,23.9,0,0,0-10.92,1.68q-1.31.51-2.55,1.14c-.93.46-1.83,1-2.71,1.51l.69,0-.79,0c-12,7.46-19.85,21.59-19.85,21.59s-18.94,3-41.48,5.06l-1.91.17c-22,1.89-47,2.73-61.06-1.18-.81-.23-1.59-.47-2.33-.73-3.86-1.36-6.62-3.18-7.92-5.55-9.33-17.08-25.91-22-42.07-17.43-1,.27-1.9.57-2.84.9a1.06,1.06,0,0,1-.56.2c-.64.23-1.27.48-1.91.74a18.25,18.25,0,0,0-2,1A16.78,16.78,0,0,0,103,257.3a16.45,16.45,0,0,0-1.65,1.45c-.21.21-.41.43-.61.65A16.78,16.78,0,0,0,99.46,261a19.23,19.23,0,0,0-1.9,3.55,22.48,22.48,0,0,0-1,3.13,31.32,31.32,0,0,0-.89,6.2c0,.1,0,.2.08.3a11.23,11.23,0,0,1,0,4.84c.08,1.16.2,2.28.33,3.32A53.07,53.07,0,0,0,97.57,290a5.44,5.44,0,0,0,2.23-1.37,1.91,1.91,0,0,0,.55-1.69c-.61-2.77.61-26.8,23.14-27.41,12.79-.34,26.39,13.27,24.36,29.64l3.35.09,129,3.28a52.8,52.8,0,0,1,.81-9.5c2.65-14.81,10.88-22.57,17.89-24.88,13.92-4.59,27.09,1.46,30.07,10.2a2.58,2.58,0,0,0-.54.95c-.44,1.31-.05,3-.27,4.44,1.37,4.92,1.22,10.15,1.83,15.22l8.22-.2Z"/><circle class="cls-23" cx="306.68" cy="282.85" r="20.35" transform="translate(-107.5 232.71) rotate(-35.78)"/><circle class="cls-24" cx="306.68" cy="282.85" r="17"/><circle class="cls-25" cx="306.68" cy="282.85" r="15.16" transform="translate(-107.5 232.71) rotate(-35.78)"/><path class="cls-26" d="M306.68,291a8.12,8.12,0,1,0-8.12-8.12A8.14,8.14,0,0,0,306.68,291Z"/><path class="cls-27" d="M306.68,277.6a5.2,5.2,0,0,1,2.16.46l1.17-2.62L312.9,269a15.11,15.11,0,0,1,3.51,2.21l-4.51,5.39-1.85,2.2a5.33,5.33,0,0,1,1.54,2.17l2.68-1,6.59-2.5a15.12,15.12,0,0,1,.92,4l-7,.61-2.86.26c0,.15,0,.31,0,.46a5.12,5.12,0,0,1-.46,2.15l2.62,1.18,6.42,2.89a15.11,15.11,0,0,1-2.21,3.51l-5.39-4.52-2.2-1.84a5.33,5.33,0,0,1-2.17,1.54l1,2.68,2.5,6.58A15.13,15.13,0,0,1,308,298l-.61-7-.26-2.86-.46,0a5.28,5.28,0,0,1-2.15-.46l-1.18,2.62-2.89,6.42a15.11,15.11,0,0,1-3.51-2.21l4.52-5.4,1.84-2.2a5.33,5.33,0,0,1-1.54-2.16l-2.68,1-6.58,2.5a15.13,15.13,0,0,1-.93-4.05l7-.62,2.86-.25c0-.15,0-.31,0-.46a5.36,5.36,0,0,1,.46-2.16l-2.62-1.17-6.42-2.89a15.44,15.44,0,0,1,2.21-3.51l5.4,4.51,2.2,1.85a5.23,5.23,0,0,1,2.16-1.54l-1-2.68-2.5-6.59a15.21,15.21,0,0,1,4.05-.92l.62,7,.25,2.86Z"/><path class="cls-28" d="M306.68,286.69a3.84,3.84,0,1,0-3.84-3.84A3.84,3.84,0,0,0,306.68,286.69Z"/><path class="cls-29" d="M306.68,285.51a2.66,2.66,0,1,0-2.66-2.66A2.67,2.67,0,0,0,306.68,285.51Z"/><path class="cls-30" d="M306.68,284.78a1.93,1.93,0,1,0-1.93-1.93A1.93,1.93,0,0,0,306.68,284.78Z"/><path class="cls-31" d="M327,282.85a20.35,20.35,0,1,0-40.7,0c0,.22,0,.44,0,.65a20.35,20.35,0,0,1,40.68,0C327,283.29,327,283.07,327,282.85Z"/><path class="cls-32" d="M340.91,263.92a4.27,4.27,0,0,0-3.35-.31c-3.08,1.15-6.39,2.37-8.63,4.77-1.23,1.33-.54,3.59-.81,5.39,1.37,4.92,1.22,10.15,1.83,15.22l16.44-.41c.57-6.43,1.48-12.84,1.95-19.28C345.86,267.5,343.62,265.34,340.91,263.92Z"/><path class="cls-33" d="M348.63,263A90.1,90.1,0,0,0,347,245.14a9.78,9.78,0,0,0-2.64-4.67,4.77,4.77,0,0,0-.57-.53c-.45.92-1.24,1.74-1.36,2.76-.84,7-1,14.15-1.52,21.22,2.71,1.42,4.95,3.58,7.43,5.38C348.49,267.2,348.6,265.11,348.63,263Z"/><path class="cls-34" d="M347,245.14a9.78,9.78,0,0,0-2.64-4.67,4.77,4.77,0,0,0-.57-.53c-.45.92-1.24,1.74-1.36,2.76-.39,3.28-.64,6.58-.84,9.87,1.53,3.53,4.37,5.42,7,7.54A91.76,91.76,0,0,0,347,245.14Z"/><path class="cls-35" d="M163,248.26a733,733,0,0,0,126.68,3Z"/><path class="cls-36" d="M179.51,276.6a389.59,389.59,0,0,1,81.14-6.35Z"/><path class="cls-37" d="M175.12,192.16a3.48,3.48,0,0,1,1-.52l0,0a3.91,3.91,0,0,1,1.06-.17l10.16-.18c12.06-.23,24.12-.46,36.17,0,11.25.41,22.45,1.47,33.65,2.53,3.44.33,6.88.65,11.06,1,.54,0,1.08.11,1.66.21h0a7.55,7.55,0,0,1,1.71.54,6.44,6.44,0,0,1,1.42.93,12.05,12.05,0,0,1,1.13,1.13c2.28,2.61,4.51,5.22,6.66,7.8l.05.06c2.21,2.65,4.36,5.29,6.42,7.91s4,5.18,6.05,7.89,3.91,5.35,5.76,8.11a6.52,6.52,0,0,1,.82,1.7,5.77,5.77,0,0,1,.26,1.8,10.74,10.74,0,0,1-1.1,3.87l-.1.24,0,0c-1,2.34-2,4.76-3,7.18-2.94,7.17-5.89,14.35-9.52,21.17a133.69,133.69,0,0,1-10,15.28c-.92,1.29-1.85,2.57-2.65,3.7h0l-.26.38h0a7.7,7.7,0,0,1-3.09,3,10.59,10.59,0,0,1-4.63.51l-1,0q-19.22-.24-38.41-.58h0l-7.89-.14q-23.21-.4-46.34-.91h0a18,18,0,0,1-4.25-.43,4,4,0,0,1-1.16-.55h0a4.56,4.56,0,0,1-1-.9,8.07,8.07,0,0,1-1.18-2.39l-.08-.21h0c-.85-2.3-1.69-4.46-2.53-6.61A152.79,152.79,0,0,1,156.21,259c-1.09-4.16-2-8.36-2.73-12.58s-1.31-8.46-1.76-12.74a13.2,13.2,0,0,1,1.13-5.83l.13-.37c.55-1.54,1.18-3.06,1.86-4.56s1.39-2.93,2.16-4.39c1.12-2.16,2.25-4.31,3.39-6.32s2.42-4.16,3.77-6.16c1.9-2.82,4.08-5.46,6.25-8.11,1-1.19,2-2.38,3-3.72.17-.21.29-.39.42-.56a6.29,6.29,0,0,1,1.27-1.48ZM229,193.41l-1.58,92.34q18.74.31,37.46.56c.38,0,.73,0,1.08,0a9.2,9.2,0,0,0,3.82-.37,6.26,6.26,0,0,0,2.26-2.33h0l.27-.38h0c1-1.35,1.81-2.53,2.66-3.71a132.68,132.68,0,0,0,9.86-15.07c3.61-6.79,6.53-13.9,9.45-21,1-2.38,1.95-4.76,3-7.19l0,0,.1-.24a9.25,9.25,0,0,0,.94-3.17,3.44,3.44,0,0,0-.17-1.18,4.5,4.5,0,0,0-.58-1.21q-2.75-4.08-5.71-8c-1.93-2.59-4-5.21-6-7.83s-4.26-5.33-6.38-7.88l-.05-.05c-2.21-2.66-4.42-5.24-6.63-7.77a8.17,8.17,0,0,0-.93-.93,4.88,4.88,0,0,0-1-.66,5.77,5.77,0,0,0-1.26-.39h0c-.46-.08-1-.13-1.46-.18-3.2-.28-7.14-.65-11.08-1-9.35-.88-18.7-1.76-28.06-2.27Zm-3.49,92.3,1.58-92.4c-1.19-.06-2.37-.11-3.56-.15-12-.44-24.05-.21-36.08,0-3.38.07-6.76.13-10.16.18a1.69,1.69,0,0,0-.5.08h0a1.47,1.47,0,0,0-.41.22,5,5,0,0,0-.89,1.06c-.16.24-.33.47-.47.65-.93,1.19-2,2.47-3.05,3.76-2.13,2.59-4.26,5.18-6.15,8-1.31,2-2.53,4-3.68,6s-2.29,4.21-3.37,6.27c-.73,1.4-1.44,2.82-2.11,4.3s-1.26,2.92-1.79,4.41l-.13.37a11.91,11.91,0,0,0-1,5c.44,4.19,1,8.4,1.75,12.6s1.62,8.34,2.69,12.42a150,150,0,0,0,5.66,16.32c.87,2.25,1.75,4.51,2.54,6.64h0l.07.22a7.06,7.06,0,0,0,.89,1.85,2.67,2.67,0,0,0,.55.51h0a2.12,2.12,0,0,0,.57.27,16.39,16.39,0,0,0,3.8.37h0q23.17.49,46.33.91l7,.12Zm55.42-80.24-.17,1.29A1,1,0,0,0,280.89,205.47Z"/><path class="cls-38" d="M231.64,197.73a2.3,2.3,0,0,1,.35-1.52,1.71,1.71,0,0,1,1.37-.3c2.76.19,5.47.81,8.22,1,4.26.24,8.54,0,12.79.2s8.32.65,12.44,1.27a5.48,5.48,0,0,1,2,.92,10.66,10.66,0,0,1,2.54,1.93c3.83,4.42,7.56,9,11,13.7,3.62,5,6.91,10.19,10.15,15.43.34.55.92,1.33.56,1.87s-1.46.62-2.24.66c-9.56.6-19.14,1.15-28.72,1.27-9.75.13-19.49-.2-29.24-.5a3.21,3.21,0,0,1-1.92-.46,1.9,1.9,0,0,1-.56-1.52C230.63,220.33,231.14,209,231.64,197.73Z"/><path class="cls-38" d="M223,194.74a1.74,1.74,0,0,1,1.37.46,3,3,0,0,1,.5,1.87q.18,16.94-.15,33.86c0,.58-.05,1.38-.56,1.67s-1.38-.14-2.08-.15c-7.51-.13-15,0-22.53-.26-13.1-.48-26.4.42-39.28-2-1.92-.36-1.53-3.73-1.42-5.68a12.28,12.28,0,0,1,2-5.18c2.11-3.69,4.6-7.15,7-10.65,2.72-4,5.48-7.93,8.37-11.78a3.9,3.9,0,0,1,1.68-1.57c.87-.28,1.82.16,2.74.15,6.5,0,13-.2,19.49-.3C207.73,195,215.34,194.72,223,194.74Z"/><path class="cls-39" d="M179.52,218.41c-1.22-.4-1.58-.91-1.4-1.47.35-1.05,3.5-1.93,4.86-2.31.29-.08.39,0,.43-.08a11.82,11.82,0,0,1,4.56-2.94A16.35,16.35,0,0,0,185,211c-.86-.12-1.47-.2-1.63-.56-.22-.52.68-1.1,3.41-2.3,1.14-.49,1.49-.76,1.43-.9s-.89-.49-1.66-.73-1.76-.57-2-1.08h0c-.19-.48.18-1,1.55-1.56a1.36,1.36,0,0,1,0-.3,2.76,2.76,0,0,1,.25-1.06,2.37,2.37,0,0,0,.3-1.23.08.08,0,0,0-.08-.07,1.3,1.3,0,0,0-.58.12,9.41,9.41,0,0,0-2,1.18c-2.15,2.24-3.13,2.75-3.55,2.34s-.15-1.29.11-2.34a13,13,0,0,0,.4-1.9c-.75-.52-1.06-.22-1.26,0a.76.76,0,0,1-.41.26h0c-.58.09-.81-.78-1.63-5a4.92,4.92,0,0,0-1,1.06h0l-.13.17,0,0c-1.45,1.92-2.85,3.86-4.23,5.8s-2.73,3.91-4.11,5.93l-1.31,1.9c-1.85,2.67-4.06,5.8-5.7,8.6.92,0,1.59,0,2.16.72a9.11,9.11,0,0,1,1.38,2.64,7.8,7.8,0,0,1,.17,2.68,5.33,5.33,0,0,1-.42,2.08,9.17,9.17,0,0,1-1.29,2.13l-.54.65-.08.1c8,1.18,17.26,1.21,25.45,1.26,3.86,0,7.71,0,11.54.19l1.26.05h.6c-.09-.11-.21-.23-.34-.37a23.36,23.36,0,0,0-1.95-1.7c-1.53-.68-1.38-1.39-1.11-2.72a9.9,9.9,0,0,0,.24-2.8s-3.11-.23-6-.49-5.58-.49-5.56-1,0-.82.07-1.15.07-.5.11-.7l-.41-.44-.6-.7a.38.38,0,0,1-.08-.35h0c.09-.3-.09-.47-.42-.56a10.41,10.41,0,0,0-2.46-.15,11.23,11.23,0,0,1-3.33-.28Zm-.67-1.23c0,.11.21.28.91.5a11.17,11.17,0,0,0,3.09.25,10.62,10.62,0,0,1,2.66.17c.72.2,1.13.59,1,1.3l.46.53.52.56a.36.36,0,0,1,.11.37,8.06,8.06,0,0,0-.14.82c0,.31-.06.67-.07,1.08,0,.17,2.35,0,4.86.27,3.23.28,6.69.59,6.73,1.21a10.94,10.94,0,0,1-.26,3c-.2.95-.3,1.45.67,1.88h0a23.76,23.76,0,0,1,2.18,1.87,2.43,2.43,0,0,1,.83,1.29h0v0a.37.37,0,0,1-.39.37l-1.26,0-1.26,0c-3.84-.14-7.68-.17-11.52-.19-8.45,0-17.95-.29-26.27-1.59h0a.34.34,0,0,1-.19-.09c-.16-.14-.16-.18,0-.33l.53-.61.52-.64a7.81,7.81,0,0,0,1.18-1.94,4.22,4.22,0,0,0,.36-1.77A7,7,0,0,0,164,223a8.37,8.37,0,0,0-1.25-2.41c-.39-.5-1-.44-1.79-.43l-.08-.43h0a.45.45,0,0,1-.19-.05.39.39,0,0,1-.14-.53c1.73-3,3.72-5.91,5.71-8.79.4-.57.8-1.15,1.3-1.89,1.34-2,2.7-3.92,4.13-5.94s2.8-3.91,4.24-5.82l0,0,.12-.17h0a3.87,3.87,0,0,1,1.72-1.53l.07,0a.38.38,0,0,1,.44.31c.79,4,.78,4.86.86,4.85s0,0,0-.07c.39-.36,1-1,2.4.1a.39.39,0,0,1,.16.33,12.42,12.42,0,0,1-.43,2.26,6.4,6.4,0,0,0-.33,1.6c.08.08.72-.49,2.47-2.32a10.49,10.49,0,0,1,2.31-1.37,2,2,0,0,1,.95-.16.78.78,0,0,1,.73.67,3,3,0,0,1-.34,1.68,2,2,0,0,0-.19.76h0c0,.08,0,.12,0,.14a.39.39,0,0,1,.19.21.39.39,0,0,1-.22.49l-.22.09h0c-1,.4-1.39.59-1.36.67h0a4.15,4.15,0,0,0,1.48.62c.93.29,1.89.6,2.13,1.16s-.16,1.18-1.82,1.91c-2.22,1-3,1.26-3,1.28s.42,0,1,.11a17.77,17.77,0,0,1,3.09.64,10.7,10.7,0,0,0,1.42.39.15.15,0,0,1,.16,0c.52.09.69.2.13.66h0a.36.36,0,0,1-.27.08h0c-.35,0-2.7.1-5.71,3a2.3,2.3,0,0,1-.76.28C181.94,215.71,179.07,216.51,178.85,217.18Z"/><path class="cls-39" d="M200.77,230a.48.48,0,0,1-.48-.48.49.49,0,0,1,.48-.48c.46,0,3.86,0,6.68-.1,1.09,0,2.13-.08,2.9-.15.49,0,.81.46.8.24h0a.48.48,0,0,1,.48-.48.47.47,0,0,1,.48.48h0c0,.42-.65.64-1.68.73-.75.06-1.81.11-3,.15-2.92.09-6.26.1-6.71.1Zm-14.11-26.9a.48.48,0,0,1-.41-.55.48.48,0,0,1,.55-.4,7.07,7.07,0,0,0,3.88-.46,8.7,8.7,0,0,0,3.32-2.61.48.48,0,0,1,.67-.08.49.49,0,0,1,.08.68,9.66,9.66,0,0,1-3.7,2.89,8,8,0,0,1-4.39.53Zm2.79-2.66a2,2,0,0,1,1-1.06,2.78,2.78,0,0,1,1.75-.25.47.47,0,0,0,.57-.36.47.47,0,0,0-.36-.57,3.74,3.74,0,0,0-2.38.31,2.94,2.94,0,0,0-1.53,1.63.47.47,0,0,0,.3.6.48.48,0,0,0,.61-.3Zm.66,7.94a23.11,23.11,0,0,0,5.51-1.84c1.68-.75,3.07-1.61,3.1-2.27,0-1,.28-1,.81-1h.33a.49.49,0,0,0,.48-.48.48.48,0,0,0-.48-.48h-.32c-1.17,0-1.69,0-1.78,1.88a7.25,7.25,0,0,1-2.53,1.44,22.78,22.78,0,0,1-5.12,1.75.49.49,0,0,0-.48.48.48.48,0,0,0,.48.48Zm-2.77,3.1a.47.47,0,0,1-.25-.62.47.47,0,0,1,.63-.25c.12.05.4-.17.75-.43a3.39,3.39,0,0,1,3.17-.91c1.57.41,2.07,0,2.57-.36a3,3,0,0,1,2.09-.78.48.48,0,0,1,.48.48.47.47,0,0,1-.48.48,2.13,2.13,0,0,0-1.5.58c-.7.53-1.37,1.05-3.4.52a2.66,2.66,0,0,0-2.35.74c-.59.46-1.07.83-1.71.55ZM199,208.45a.48.48,0,1,1-.46-.84,13.07,13.07,0,0,0,1.12-.71,11.7,11.7,0,0,1,2.85-1.56.47.47,0,0,1,.58.35.49.49,0,0,1-.35.58,11.4,11.4,0,0,0-2.55,1.43c-.46.31-.87.58-1.19.75Zm-12.1,4.29c1.19.81,3.19,3.64,4.36,5.29l.48.67a1.47,1.47,0,0,0-.15,1h0c0,.07-.44,0-1,.1-.76.18-1.69.32-2.39.41-.48.07-.84.1-1,.11a.49.49,0,0,0-.46.5.49.49,0,0,0,.5.46c.15,0,.54-.05,1.05-.12.73-.09,1.71-.24,2.49-.42,1-.23,1.74-.58,1.72-1.09v0h0v-.15a.3.3,0,0,0,.26,0,.37.37,0,0,0,.2-.36H193a8.34,8.34,0,0,1,1.34,0,7.76,7.76,0,0,0,3.75-.51,40,40,0,0,1,1.82,3.81.5.5,0,0,0,0,.07h-.07a46.47,46.47,0,0,0-5.53-.43.47.47,0,0,0-.48.48.48.48,0,0,0,.48.48,44.79,44.79,0,0,1,5.42.42l1,.11c.24.29.49.58.71.82h-.06l-1.28,0a.49.49,0,0,0-.48.48.48.48,0,0,0,.48.48l1.3,0,1.09,0c.29.18.47.19.5,0,2.7,0,6.37,0,8.52.65.71.54,1.5,1.06,1.81,1.26l.14.08h0a.55.55,0,0,0,.38,0,.48.48,0,0,0,.24-.63,3.18,3.18,0,0,0-2-1.45c-.26-.2-.51-.4-.72-.59a1.53,1.53,0,0,1-.18-.18c1,0,4.14,0,4.66-.6.28-.31.27-.64-.13-1a.47.47,0,0,0-.25-.11l-.51-.07a.47.47,0,0,0-.53.41.46.46,0,0,0,.06.31,32.54,32.54,0,0,1-3.52.09H211a1.07,1.07,0,0,0-.65.17h0c-.34.27-.34.61-.09,1l0,.07a43,43,0,0,0-7.45-.38v0h0a3.16,3.16,0,0,0-.33-.54l0-.07c1.28.12,2.63.21,4.11.21h.25l.22.24a.49.49,0,0,0,.68,0,.47.47,0,0,0,0-.67,1.92,1.92,0,0,0-.49-.45h0a1.29,1.29,0,0,0-.65-.11,46.68,46.68,0,0,1-5.28-.33,4.83,4.83,0,0,1-.41-.52c-.21-.62-1-2.26-1.95-4.05a2.91,2.91,0,0,0,.31-.3,14.42,14.42,0,0,1,2.65-.92l.16,0a.49.49,0,0,0,.33-.6.47.47,0,0,0-.59-.32l-.16,0a11.09,11.09,0,0,0-3.11,1.21l-.05,0-.62-1.2.67-.29a11.23,11.23,0,0,0,2.82-1.56,1.77,1.77,0,0,1,1.13-.44c.78-.06,1.38-.11,2.47-2.46.17-.37.58-.45,1.11-.55a5.52,5.52,0,0,0,2.77-1.18.48.48,0,0,0,.06-.67.47.47,0,0,0-.67-.07,4.73,4.73,0,0,1-2.33,1c-.81.15-1.43.27-1.81,1.09-.85,1.84-1.21,1.87-1.67,1.91a2.63,2.63,0,0,0-1.65.63,10.41,10.41,0,0,1-2.6,1.44l-.75.33-.43-.82c-.68-1.28-1.18-2-1.17-2.12a.48.48,0,0,0-.46-.5.47.47,0,0,0-.5.45,17.92,17.92,0,0,0,1.28,2.61l.42.79c-.42.22-.88.47-1.38.79a.47.47,0,0,0-.14.66.48.48,0,0,0,.66.15,12.42,12.42,0,0,1,1.3-.75c.24.44.48.9.71,1.35a7,7,0,0,1-3.27.4h-.17l-.09-.08-.47-.31h0l-.3-.2h0a6.62,6.62,0,0,0-.54-.7,24.39,24.39,0,0,0-2.14-2.25.42.42,0,0,0-.1-.17.49.49,0,0,0-.63-.08.08.08,0,0,0,0,0h0a.36.36,0,0,0-.11.14,13.21,13.21,0,0,0-2.38-2.5.48.48,0,1,0-.54.79Zm3.66,2.28h0c.08-.07.13,0,.2.11-.2,0-.36,0-.2-.12Zm2.81,2.45Zm0,0Zm11.32.89a.49.49,0,0,1-.51-.45.48.48,0,0,1,.45-.51c.38,0,.62-.41.89-.85a3.23,3.23,0,0,1,2.48-1.87h0s.21-.08.57-.22c.91-.35,2.53-1,3.33-1.22a.45.45,0,0,1,.25-.35.49.49,0,0,1,.65.2v0a.58.58,0,0,1,.09.21h0c.08.33,0,.61-.5.75h0c-.55.14-2.47.87-3.49,1.26l-.65.25-.11,0h0a2.43,2.43,0,0,0-1.8,1.42C205.9,217.71,205.54,218.3,204.66,218.36Z"/><path class="cls-39" d="M248.43,210.29c1.69-.79,3.1-1.33,3.67-1.21l.06,0a.48.48,0,0,1,.33.59.49.49,0,0,1-.6.33h0c-.58-.15-3.48,1.29-6.25,2.78s-5.29,2.87-5.31,2.89a3.08,3.08,0,0,1-.16.38,4.72,4.72,0,0,0-.45,1.31.49.49,0,0,1-.57.37.48.48,0,0,1-.37-.57,5.77,5.77,0,0,1,.53-1.54,1.78,1.78,0,0,0,.1-.21v0c0-.07,2.83-1.85,5.77-3.43.83-.44,1.68-.89,2.49-1.28l.76-.37Zm-9,5.13h0Zm15.67,8.78a4.4,4.4,0,0,0-3.26,1.26,6.49,6.49,0,0,1-4.2,1.63,6.38,6.38,0,0,0-.82-.67l0,0a1.75,1.75,0,0,1-.44-.37,18.22,18.22,0,0,0-2.87-4.52,5.77,5.77,0,0,0,.67-1.56c.43-1.37,1-3.08,3.59-3.32a.48.48,0,0,0-.09-.95c-3.23.29-3.89,2.34-4.41,4a8,8,0,0,1-.39,1l-.19-.23c-.49-.62-.94-1.19-1.28-1.65a.48.48,0,1,0-.77.56c.34.47.8,1.05,1.3,1.68l.18.23a15.08,15.08,0,0,0-3.15,2.15,26.65,26.65,0,0,1-4.14,2.9,6.33,6.33,0,0,0-.58-.7,4.92,4.92,0,0,0-2.13-1.32.48.48,0,0,0-.26.92,3.85,3.85,0,0,1,1.7,1.07c.13.14.26.28.38.43a4.83,4.83,0,0,1-1.23.31,11.51,11.51,0,0,0-2.05,1.88l-.49.5a.48.48,0,0,0,.69.67l.48-.5c.69-.7,1.35-1.59,1.46-1.6a6,6,0,0,0,1.68-.44,7.61,7.61,0,0,1,.39.82v0l.07.17a16.72,16.72,0,0,0,1,2.18c-.15,0-.31.06-.47.09-.88.14-1.75.28-2.11,1.68a2.66,2.66,0,0,1-.2.59h0s0,0-.07,0a.47.47,0,0,0-.19.93.94.94,0,0,0,1.07-.43h0a2.72,2.72,0,0,0,.33-.88c.21-.8.77-.89,1.34-1a5.08,5.08,0,0,0,.86-.19,2.35,2.35,0,0,0,1.84,1.17.48.48,0,0,0,0-1c-.36,0-.71-.29-1-.72a2.1,2.1,0,0,0,.34-.53c.91-1.92,3.37-2.37,5.7-2.46a4,4,0,0,1,.52,1.46,1.49,1.49,0,0,0,0,.21c-.64-.33-1-.25-1.17.09-.3.58,1.38,2.42,1.75,2.82l0,0a.48.48,0,1,0,.7-.65l0,0h0l-1-1a5,5,0,0,0,.61.26.48.48,0,0,0,.55,0h0v0h0c.32-.33.15-.54-.12-.85a1.78,1.78,0,0,1-.49-.83,4.22,4.22,0,0,0-.42-1.44h1.9c.36,0,.7,0,1,0a3.7,3.7,0,0,1,.69,2.16h0a.87.87,0,0,0,.23.59.57.57,0,0,0,.36.16.52.52,0,0,0,.43-.2h0a.79.79,0,0,0,.15-.58.5.5,0,0,0-.24-.37,4.72,4.72,0,0,0-.53-1.87,7,7,0,0,0,4.13-1.78,3.62,3.62,0,0,1,2.65-1,.47.47,0,0,0,.48-.48.48.48,0,0,0-.48-.48Zm-19-5a17.49,17.49,0,0,1-.82-2.07c1.48-.26,1.71-1.37,2-2.55a7.28,7.28,0,0,1,.23-.92,13.36,13.36,0,0,1,.48,1.6.48.48,0,1,0,.93-.22,10,10,0,0,0-.8-2.35,2.7,2.7,0,0,1,1.78-.51c2.2,0,2.58-.52,3.12-1.26a3.61,3.61,0,0,1,1-1l.56.61c.38.42,1.52.31,2.51.22l.69-.05h.3a.48.48,0,0,0,.46-.36.5.5,0,0,0,0-.12.48.48,0,0,0-.48-.48c-.27,0-.66,0-1.08.07a8.28,8.28,0,0,1-1.71.08l-.41-.44a8.47,8.47,0,0,0,1.3-.82,12.52,12.52,0,0,0,1.42-1.22.49.49,0,0,0,0-.68.48.48,0,0,0-.68,0,12.6,12.6,0,0,1-1.32,1.14,8.64,8.64,0,0,1-1.25.77l-.16.08c-2.65-2.79-3.45-2.89-6.9-2.86.41-.46.84-.9,1.29-1.33a41.41,41.41,0,0,1,5-4,.48.48,0,1,0-.55-.78,42.82,42.82,0,0,0-5.11,4.06,26.47,26.47,0,0,0-1.9,2h-.83a.47.47,0,0,0-.48.48.48.48,0,0,0,.48.48h.06q-.69.9-1.38,2a1.28,1.28,0,0,1-.75.51,1.39,1.39,0,0,0-.46.08l-.05,0,0,0a1.9,1.9,0,0,0-1.65,1.32c0,.09-.05.16-.07.21h0a.48.48,0,0,0-.07.67l0,0a.46.46,0,0,0-.14.21.47.47,0,0,0,.3.6c1.83.63,2.54,2.44,3.2,4.34a11.94,11.94,0,0,0-.76,1c-.66.92-1.47,2-2.68,2.22a.48.48,0,0,0,.16,1c1.59-.27,2.53-1.55,3.29-2.6l.35-.48c.22.61.45,1.22.72,1.79a.48.48,0,0,0,.64.22.48.48,0,0,0,.23-.64Zm-4.62-7.58a.75.75,0,0,0,.27-.46,1.3,1.3,0,0,0,0-.13,1.15,1.15,0,0,1,1-.72h.12l.3-.06h.06a.3.3,0,0,1,.19.14v0c.57,1.53,1.33,1.59,2.15,1.65h0a1.54,1.54,0,0,1,1.24.54,6.27,6.27,0,0,0-.56,1.78c-.17.86-.34,1.66-1.18,1.81l-.14,0c-.69-2-1.48-3.8-3.49-4.6Zm2.72-1.85.1.17s0,.07.05.1h0v0c.35,1,.81,1,1.31,1h0a2.34,2.34,0,0,1,1.82.73,3.8,3.8,0,0,1,2.35-.62c1.71,0,2-.36,2.34-.87a4.8,4.8,0,0,1,1.13-1.17c-2.36-2.44-3.1-2.44-6.47-2.4h-.41c-.6.75-1.2,1.57-1.81,2.49a2.32,2.32,0,0,1-.43.49Zm14,4.54h.4c1,0,3.16.1,3.56-.23a.48.48,0,0,0,.06-.77.48.48,0,0,0-.67-.06.6.6,0,0,0-.11.12c-.42.06-2,0-2.81,0h-.43a.48.48,0,1,0,0,1Zm-5.48,7.79a17.66,17.66,0,0,1,2.72,4.25,1.68,1.68,0,0,0,.75.8h-2.39l-.14-.23a19.5,19.5,0,0,0-2.43-3.18.48.48,0,0,0-.68.68,17.55,17.55,0,0,1,2.15,2.77c-2.44.15-5,.75-6,3l0,.05c-.36-.71-.66-1.48-.85-2l-.07-.18v0a7.05,7.05,0,0,0-.41-.89,29.12,29.12,0,0,0,4.22-3,12.51,12.51,0,0,1,3-2.06l.14,0Zm.75,8.22Z"/><path class="cls-40" d="M208.41,240.53a1,1,0,0,1-.34-1.31.94.94,0,0,1,1.3-.34c2.44,1.43,3.1,1.38,4.71,1.28.62,0,1.37-.1,2.32-.1a1,1,0,1,1,0,1.92c-.94,0-1.62.05-2.19.09C212.18,242.2,211.36,242.26,208.41,240.53Z"/><path class="cls-40" d="M280.75,238.84a1,1,0,1,1,0-1.92c1.28,0,2.37,0,3.46,0,1.28,0,2.57-.05,3.55-.05a1,1,0,1,1,0,1.91c-1.31,0-2.41,0-3.51.05C283,238.81,281.71,238.84,280.75,238.84Z"/><path class="cls-37" d="M231.16,197.71h0v-.18h0a2.37,2.37,0,0,1,.47-1.65l0,0a1.52,1.52,0,0,1,.87-.4,3.41,3.41,0,0,1,.84,0c1.34.09,2.66.28,4,.47s2.82.42,4.23.49c2.1.12,4.2.11,6.29.1s4.35,0,6.5.11,4.17.28,6.25.49,4.18.47,6.23.78a3.89,3.89,0,0,1,1.19.4,10.9,10.9,0,0,1,1,.58l.13.08a10.47,10.47,0,0,1,2.52,1.94c1.92,2.23,3.82,4.47,5.66,6.75s3.65,4.62,5.38,7,3.54,5,5.23,7.64,3.31,5.19,4.93,7.81h0l.11.18h0c.42.65.94,1.47.45,2.22a2.72,2.72,0,0,1-2.33.86h-.28c-4.77.3-9.55.58-14.36.81s-9.58.4-14.39.46c-9.11.12-18.21-.16-27.31-.45l-1.94-.06a6.87,6.87,0,0,1-1.09-.09,2.47,2.47,0,0,1-1.12-.47,1.82,1.82,0,0,1-.57-.82v0a3,3,0,0,1-.16-1.05c.21-11.13.7-22.24,1.19-33.33l0-.59Zm-8.2-3.45a3.42,3.42,0,0,1,.88.11h0a1.69,1.69,0,0,1,.85.53,2.67,2.67,0,0,1,.5,1.08,5,5,0,0,1,.11,1.09q.09,8.46.05,16.93t-.2,16.93a5,5,0,0,1-.11,1.06,1.5,1.5,0,0,1-.69,1,2.06,2.06,0,0,1-1.65,0,3.07,3.07,0,0,0-.67-.12c-2.93-.05-5.86-.06-8.78-.07-4.59,0-9.19,0-13.77-.19-3.83-.14-7.67-.16-11.51-.19-9.34-.06-18.69-.18-27.84-1.85-2.18-.41-2-3.53-1.84-5.68h0l0-.49v0a12.3,12.3,0,0,1,2-5.21l.08-.15c1.74-3,3.73-5.92,5.72-8.8l1.3-1.89c1.34-2,2.7-3.93,4.13-5.94s2.82-3.93,4.26-5.85h0l.13-.16,0,0a3.85,3.85,0,0,1,1.76-1.55,3.74,3.74,0,0,1,1.91,0,7.17,7.17,0,0,0,1,.11c4.65,0,9.31-.12,14-.2l5.51-.1c2.65,0,5.33-.11,8-.18,5-.12,9.9-.24,14.86-.23ZM224.41,214q0-8.46,0-16.92a4.5,4.5,0,0,0-.1-.89,1.61,1.61,0,0,0-.31-.69.67.67,0,0,0-.35-.21h0a2.19,2.19,0,0,0-.62-.07c-4.94,0-9.89.11-14.83.23-2.67.06-5.33.13-8,.17l-5.51.1c-4.65.09-9.31.18-14,.21a7.23,7.23,0,0,1-1.15-.13,2.1,2.1,0,0,0-2.74,1.16l0,0-.12.17h0c-1.45,1.92-2.86,3.87-4.25,5.83s-2.73,3.91-4.12,5.93l-1.3,1.89c-2,2.86-4,5.72-5.67,8.73l-.09.15a11.68,11.68,0,0,0-1.89,4.81l0,.51c-.11,1.81-.28,4.43,1.06,4.68,9.08,1.72,18.38,1.78,27.67,1.84,3.86,0,7.72.05,11.55.19,4.58.17,9.16.18,13.73.19,2.93,0,5.87,0,8.79.06a4.34,4.34,0,0,1,.9.15,1.44,1.44,0,0,0,.94.07.69.69,0,0,0,.24-.43,4,4,0,0,0,.07-.84c.12-5.65.18-11.29.21-16.92Zm7.71-16.44v.18h0l0,.59c-.49,11.11-1,22.22-1.19,33.3a1.93,1.93,0,0,0,.1.72v0a.9.9,0,0,0,.26.4,1.5,1.5,0,0,0,.7.28,6,6,0,0,0,.95.08l1.94.06c9.09.28,18.19.56,27.27.45,4.78-.07,9.56-.24,14.35-.46s9.56-.52,14.36-.81h0l.29,0h0c.61,0,1.33-.06,1.57-.43s-.19-.76-.46-1.18h0l-.11-.18h0c-1.61-2.61-3.24-5.22-4.93-7.8s-3.39-5.11-5.2-7.6-3.51-4.68-5.34-6.95-3.74-4.52-5.65-6.72a9.52,9.52,0,0,0-2.29-1.75l-.13-.09c-.32-.19-.63-.39-.94-.54a3,3,0,0,0-.91-.3q-3.11-.47-6.18-.78c-2.06-.21-4.14-.37-6.21-.49s-4.3-.11-6.44-.1-4.25,0-6.35-.1c-1.46-.08-2.89-.29-4.32-.5s-2.61-.38-3.91-.47a3.43,3.43,0,0,0-.64,0,.67.67,0,0,0-.33.13l0,0a1.7,1.7,0,0,0-.22,1Z"/><path class="cls-41" d="M160.84,219.3c1,0,2.25-.16,2.84.61a9.53,9.53,0,0,1,1.83,5.48,6.41,6.41,0,0,1-1.63,4,21.89,21.89,0,0,1-5.68,5.18,5.42,5.42,0,0,1-4,.61c-1.21-.31-2.93-1.08-2.94-2.34,0-2.8,1.49-5.46,2.84-7.91a17.84,17.84,0,0,1,4.26-5A3.87,3.87,0,0,1,160.84,219.3Z"/><path class="cls-42" d="M160.08,220.11c.51,0,1.18-.08,1.49.32.73.95.07,3.67-.7,4.64a8.57,8.57,0,0,1-2.47,2.44c-.73.45-3.3.63-3.31-.33a8.84,8.84,0,0,1,1.49-4.14,9.3,9.3,0,0,1,2.23-2.61A2,2,0,0,1,160.08,220.11Z"/><path class="cls-43" d="M157.19,233a5.44,5.44,0,0,1-4,.6c-.19,0-.38-.1-.58-.16a6.22,6.22,0,0,1-1.35-.65v.05c0,.79.68,1.38,1.48,1.8a7.92,7.92,0,0,0,1.46.54,5.42,5.42,0,0,0,4-.61,20.58,20.58,0,0,0,4.62-3.92c.37-.41.72-.83,1.06-1.26a6.41,6.41,0,0,0,1.63-4,9.53,9.53,0,0,0-1.83-5.48,1.14,1.14,0,0,0-.15-.16,10,10,0,0,1,1,4.07,6.46,6.46,0,0,1-1.62,4,27.23,27.23,0,0,1-2.22,2.46A19.65,19.65,0,0,1,157.19,233Z"/><path class="cls-44" d="M220.3,211.6c-1.19.63-7.6,3.54-7.79,4-1.18,3-2.1,1.26-3.86,3.15.62.25,6.76.12,8,.49-.21,3.34,2.13,3.06.81,6-1.19,2.68,2.72,2.31,4.13,3.54s.41-.53.41-3.27c0-4.82-4-6.91-1.19-11.26.16-.25,0-3-.54-2.69Zm55.59-4.33c-2.78,1.14-3.13,6.17-8.46,6.88-6.16.81,1.31,2.79-5.67,9.77-1,1,1.55,2.56-5.44,5.37-2.62,1.05-7.29,3.36-5.16,4.3,3,0,5.94.06,8.92,0a.72.72,0,0,0,.12-.23c.2-.78,1.94-4.83,2.81-5.32,3.64-2,11.19-7.52,11-11.94,0-.39,3.45-3.69,4.92-5-1-1.29-2-2.57-3.08-3.87Zm-11.43-5.69c.79-.58.53,0,2,.47,2.7.89,2.79,1,3.07,2.83.52,3.35-1.3,2.45-3.67,2.61-1.37.09-4.78,4.08-4.78,4.19.06,3-1.24,2.06-1.42,3.72-.26,2.39-4.76.68-8.15,2.32-8.87,4.31-2-.84-1.13-1,4.3-.7,1-5.63,5.81-6.2,2.87-.34-1.18-2.13-1.75-3.15-.43-.76,2.26-1.44,3-1.54a69.48,69.48,0,0,0,7-4.27Zm-16-1.91a41,41,0,0,0-5.73,4.62c-.44.52-1.57,1.26.49.28,5.28-2.51,5.4-1.46,10.67-2.79,2-.52,8.84-1.08,1.49-1.52-.19,0-6.87-.62-6.92-.59Zm-9.85-.61c-.75,1-4.78,5.34-4.82,4.49a42.08,42.08,0,0,1,1.37-4.34c.56-1.06,3.47-.17,3.45-.15Zm-38.77-1.72c-.42,3.33-9.86,6.15-9.34,8.13,1.12.48,7.72-3.24,9.05-4.27,1.56-1.21,3.82-.71,5.7-1s-3.36,1.95-3.58,2.17c-1.26,1.29-2.32,1,1.92.77,7.56-.35,4.16-.07,11.23-3.22,1.65-.74.67-1.05,3.64-1.05,2.16,0,4.81-.44.42-.69-2.18-.13-3.09-.53-6-.53a83.8,83.8,0,0,1-11.58-.42,7.31,7.31,0,0,0-1.46.07Zm17.56,6.29c3.72,1.13,1.63,2,3.06,2.48s-3.25,4.2-6.09,4.07c-4.94-.23-5.6,1.78-8.06,2.32-5.41,1.2.87-1.47,1.3-2.09C207.65,210.37,216.65,203.4,217.41,203.63Z"/><path class="cls-20" d="M100.35,287l47.5,2.23c4.75-9.12-2.58-31.83-22.3-32.86C112.35,255.65,93.53,267,100.35,287Z"/><circle class="cls-45" cx="123.97" cy="283.39" r="20.35" transform="translate(-164.07 170.66) rotate(-45)"/><circle class="cls-24" cx="123.97" cy="283.39" r="17" transform="translate(-43.79 23.52) rotate(-9.22)"/><circle class="cls-25" cx="123.97" cy="283.39" r="15.16" transform="translate(-164.07 170.66) rotate(-45)"/><path class="cls-46" d="M124,291.5a8.12,8.12,0,1,0-8.12-8.11A8.13,8.13,0,0,0,124,291.5Z"/><path class="cls-47" d="M124,278.14a5.2,5.2,0,0,1,2.16.46L127.3,276l2.89-6.42a15.11,15.11,0,0,1,3.51,2.21l-4.51,5.39-1.85,2.2a5.3,5.3,0,0,1,1.54,2.16l2.68-1,6.59-2.49a15,15,0,0,1,.92,4l-7,.62-2.86.25c0,.16,0,.31,0,.47a5.19,5.19,0,0,1-.46,2.15l2.62,1.18,6.42,2.89a15.32,15.32,0,0,1-2.21,3.51l-5.39-4.52-2.2-1.84a5.43,5.43,0,0,1-2.17,1.54l1,2.68,2.5,6.58a15.12,15.12,0,0,1-4,.92l-.61-7-.26-2.85-.46,0a5.28,5.28,0,0,1-2.15-.46l-1.18,2.61-2.89,6.42a14.78,14.78,0,0,1-3.51-2.21l4.52-5.39,1.84-2.2a5.3,5.3,0,0,1-1.54-2.16l-2.68,1-6.58,2.49a15.06,15.06,0,0,1-.93-4l7-.62,2.86-.25c0-.16,0-.31,0-.46a5.36,5.36,0,0,1,.46-2.16l-2.62-1.18-6.42-2.88a15.16,15.16,0,0,1,2.21-3.52l5.4,4.52L120,280a5.21,5.21,0,0,1,2.16-1.53l-1-2.69-2.5-6.58a15.21,15.21,0,0,1,4-.92l.62,7,.25,2.86A3.54,3.54,0,0,1,124,278.14Z"/><path class="cls-28" d="M124,287.23a3.85,3.85,0,1,0-3.84-3.84A3.85,3.85,0,0,0,124,287.23Z"/><path class="cls-29" d="M124,286a2.66,2.66,0,1,0-2.66-2.65A2.66,2.66,0,0,0,124,286Z"/><path class="cls-30" d="M124,285.32a1.94,1.94,0,1,0-1.93-1.93A1.93,1.93,0,0,0,124,285.32Z"/><path class="cls-31" d="M144.32,283.39a20.35,20.35,0,1,0-40.7,0c0,.22,0,.43,0,.65a20.35,20.35,0,0,1,40.68,0C144.32,283.82,144.32,283.61,144.32,283.39Z"/><path class="cls-40" d="M127.86,217.33c-.46-.67-.93-1.55-1.73-1.73a4.66,4.66,0,0,0-2.84.71c-3.88,1.86-8.18,3.21-11.37,6.09a5.32,5.32,0,0,0-1.48,4.38c.07.31.15.63.22.95.43,1.17,1.07-2.37,2.08-3.09a18.77,18.77,0,0,1,6.19-2.85c1.11-.29,2.3.44,3.45.31,1.77-.21,3.51-1.95,5.17-1.32,1,.39-.21,2.31.21,3.35a6.21,6.21,0,0,0,2.23,2.64,24.37,24.37,0,0,0,4.17,1.85,18.71,18.71,0,0,1,3.8.39c-.94-1.25-1.58-2.79-2.81-3.77-.79-.63-2.24-.06-2.93-.81C130.34,222.39,129.44,219.62,127.86,217.33Z"/><path class="cls-48" d="M93.64,285.08c-.12-4.24.29-2.37,0,0Zm-5.56-10.76a10.57,10.57,0,0,1-.9-2.19,10.3,10.3,0,0,1-.36-2.94c0-2,.58-2.92-.28-1.83l-1,1.25c-2.45,3.18-4.3,3.62-5.56,3.15a3.72,3.72,0,0,1-1.9-1.85c.54,1.59,1,2.87,1.5,4a26,26,0,0,0,1.19,2.49,58.23,58.23,0,0,0,4.11,6.33c.38.53.78,1.1,1.22,1.7a26.56,26.56,0,0,0,1.66,2.11c4.21,4.74,5.5,1.29,5.84-1.48,0,1,.08,2.25.18,3.91.13,2.21,4.4,1.43,6-.34-2.52,1.24-2.86-2.77-3.6-3.36-4-3.11.67-7.09-.48-11.08-2.62-9.11,0-7.26-4.83-4.59C88.79,270.79,89.79,277.43,88.08,274.32Z"/><path class="cls-49" d="M132.7,256.45c-2.75-1.3-8.25-1.66-10.86-2-6-.79-9.42.58-13.66,5.66a3.59,3.59,0,0,1-1.42,1c-2.26.91-5.34.16-5.34,4.09,0,.63,0,1.71,0,2.21-.2,5.65-1.94,1.31-2.51,4.14-.36,1.77.43,3.83.17,4.35a.93.93,0,0,0-.08.2c-.82,3.11-1.62,5.53-1.4,8.11l0,0c.28.22.29,1.07.34,2a13,13,0,0,0,1.11,2.59,1.56,1.56,0,0,0,.68-.19,1.91,1.91,0,0,0,.55-1.69c-.61-2.77.61-26.8,23.14-27.41,12.79-.34,26.39,13.27,24.36,29.64l3.35.09c.13-5.15.65-11.51-1.42-15.85A35.14,35.14,0,0,0,132.7,256.45Z"/><path class="cls-50" d="M283.46,292.64c-2.23-17.72,5.17-32.65,21.32-33.08,9.1-.25,20.47,3.83,23.34,14.21.22-1.42-.17-3.13.27-4.44a2.58,2.58,0,0,1,.54-.95c-3-8.74-15.74-16.21-29.67-11.62-7,2.31-15.64,11.49-18.29,26.3a52.8,52.8,0,0,0-.81,9.5Z"/><path class="cls-51" d="M121.41,226.17c4.64,4.23,1.53,6.07,1.53,10.84,0,3.8-1.83,2-3.86,6.15-2.44,5-.94,2.93,2.15,1.68,4.91-2,3-8.42,3.62-9.07,1.86-2.12,1.58-2.16,1-5.25-.53-2.93-1.38-3.07-3.61-4.46-.35-.22-.81.15-.85.11ZM144.15,230c-1.22.11-3.27,1.22-3.69,2.86s2.3-.84,3.1,1.43c-.93,1.31,4.74,4.45,4.56,1.59-.09-1.43-2.18-1.29-1.73-3.93s-1.3-2-2.24-1.95Zm-10-1.4-.12,1c.62-.28.51.33,1.21,1,5.23,4.87-1.2,4,2.52,7.69,1.68,1.68,2.73,4.65,2,6.8-4.51,0-1.62-1.93-3.29-3-2-1.3-1.34-1.14-3-2.93-1-1.07-2.5-4.22-1.27-5.13C133.86,232.74,133.72,230.53,134.16,228.62Z"/><path class="cls-52" d="M104.31,263.37c1.68.07,5.34-3.62,8.43-4.33,2.76-.64,3.11-3.29,8.06-3.29,2.34,0,1.58.74,3.6.21,3-.8,6.54.63,7.1,2.5-.58,1-5.8.32-12.52-.07-1.65-.09-3.47,2.79-7.54,2.54-1.24-.07-7.49,7.4-7.49,4C104,264.23,103.77,263.34,104.31,263.37Z"/><path class="cls-53" d="M94.57,254.2c-.27-3.56-1.12-1-2.69-5.86-.23-.72-1.89-10.43-1.67-10.74-.69-.48-1.23.22-1.23,5.07,0,5.53,2.22,12-2.53,2.08a15.11,15.11,0,0,1-1.12-3.32c1.28,8.24,1.18,6.28,7,12.35a11.75,11.75,0,0,0,1.52,1.11c.49.41.8,1.09.8,3,0-1.7,0-2.87-.09-3.71Zm11.76-18.54c0-1.66,1.93-2,1.93-6.88,0-.65-.41-3.36-.55-2.43-.32,5.32-1.53,7.1-3.93,2.28,0,1.42,1.69,2.63,1.73,6.11,0,.09.92,4.94.82.92Zm-4.91-1c.41-.81-.56-3.48-.46-5a2.94,2.94,0,0,0-.21-1.77c-.49,1.32-1.13,2.58-2.6,1.42a8.08,8.08,0,0,0-2.83-.54c5.05,4.39,2.38,3.69,4.58,8.87,1.16,2.76,1.14,2,1.19,3.68,0,.38,0,.88,0,1.57.14,3.08.78,2.13.52-.26a11.53,11.53,0,0,0-.22-1.29C100.93,239,100,237.46,101.42,234.68Z"/><path class="cls-54" d="M150.48,290.89a6.58,6.58,0,0,1,0-1.86A6.77,6.77,0,0,1,150.48,290.89Zm0,0c0-.14,0-.27,0-.4a5.77,5.77,0,0,0,0-1.46,6.58,6.58,0,0,0,0,1.86Zm-.2-2.31a5.52,5.52,0,0,1-.94-2l0,.05a.7.7,0,0,0-.12.35.47.47,0,0,0,0,.18.72.72,0,0,1-.28,1,.71.71,0,0,1-1-.28,1.64,1.64,0,0,1-.14-1.1,2.2,2.2,0,0,1,.45-1c.57-.66.56-.73.55-.83a2,2,0,0,1,.05-.86,5,5,0,0,1-.9,1.83c-1.31,1.4-.21,2.79-1.39,2.86h-.39a3.66,3.66,0,0,1-2.14-.33,17.68,17.68,0,0,1-1.59-1.56c.45.68,1,1.43,1.6,2.3l.9,1.27q.68.92,1.23,1.56c3.12,3.51,4.08.95,4.33-1.1,0,.71.06,1.66.14,2.9,0,.71.66,1,1.45,1-.09-.23-.39-1-.5-1.23C150.62,291.44,151.31,290.16,150.28,288.58Z"/><path class="cls-55" d="M85.48,162l-20.6,63.84,7.36,4.43a5.24,5.24,0,0,1,2.35,3.32,5.71,5.71,0,0,1-.63,4.15l-6.87,11.62,17,46.41a5.53,5.53,0,0,1-2,6.47,4.92,4.92,0,0,1-.68.37,4.51,4.51,0,0,1-1.78.37,4.83,4.83,0,0,1-4.47-3.3L57.25,250.75a5.7,5.7,0,0,1,.43-4.82l1.07-1.8,3.39-5.66,1-1.69-.19-.16-1.79-1.15h0l-4.36-2.55a5.51,5.51,0,0,1-2.28-6.36l19-58.93,2.93-9.13a4.69,4.69,0,0,1,6.11-3.2A5.4,5.4,0,0,1,85.48,162Z"/><path class="cls-56" d="M60.92,235.47l-4.24-2.55a5.5,5.5,0,0,1-2.22-6.36l19-58.93,3.93-8.21s2.67,7.21-1.18,12.07.25,17.61-6.25,27.33S55.94,226.56,60.92,235.47Z"/><path class="cls-56" d="M82.06,302.25a4.92,4.92,0,0,1-.68.37,4.51,4.51,0,0,1-1.78.37,4.83,4.83,0,0,1-4.47-3.3L57.25,250.75a5.7,5.7,0,0,1,.43-4.82l1.07-1.8c.81,3.4,3,6.63,4.7,9.15,3,4.66,8.08,19.84,7.79,25.51C71,283.67,80.24,294.84,82.06,302.25Z"/><path class="cls-56" d="M64.88,237.9c-.65.13-1.76.39-2.74.57l1-1.69-.25-.16s6.88-3.53,7.09-2.32S66.91,237.49,64.88,237.9Z"/><path class="cls-55" d="M68.75,164.62a4.54,4.54,0,0,1-3.26-6.25L88.35,93.76a6.3,6.3,0,0,1,6.94-4.14l23.39,4.89a4.56,4.56,0,0,1,3.27,6.26L99.11,165.31a6.33,6.33,0,0,1-7,4.14Z"/><path class="cls-8" d="M67.08,164a4.58,4.58,0,0,1-3.31-6.27L86.64,93.15a6.33,6.33,0,0,1,7-4.12L117,93.91a4.54,4.54,0,0,1,3.25,6.25L97.39,164.7a6.3,6.3,0,0,1-6.93,4.15Z"/><path class="cls-16" d="M116.37,97.55,92.92,92.64A2.2,2.2,0,0,0,90.51,94L67.64,158.65a1.58,1.58,0,0,0,1.16,2.13l23.46,4.86a2.19,2.19,0,0,0,2.4-1.39L117.5,99.69A1.57,1.57,0,0,0,116.37,97.55Z"/><path class="cls-55" d="M115.81,97.36,92.36,92.44a2.19,2.19,0,0,0-2.42,1.39L67.07,158.45a1.59,1.59,0,0,0,1.18,2.13l23.44,4.86a2.16,2.16,0,0,0,2.39-1.4l22.85-64.55A1.55,1.55,0,0,0,115.81,97.36Z"/><path class="cls-15" d="M109,109a11.22,11.22,0,0,1-13.82,6.69,9.77,9.77,0,0,1-6.37-13.38,11.29,11.29,0,0,1,14-5.85A9.82,9.82,0,0,1,109,109Z"/><path class="cls-57" d="M99.09,91.7S95.46,88.26,92,90.58s-5.62,1.87-4.8,8.14,3.06,12,7.71,14,8-16.73,8-16.73Z"/><path class="cls-58" d="M105.37,107.68a8.48,8.48,0,0,1-3.89,4.63,7.48,7.48,0,0,1-6.16.56,8,8,0,0,1-4.55-10.35,8.26,8.26,0,0,1,7-5.59,7.31,7.31,0,0,1,3,.4A8,8,0,0,1,105.37,107.68Z"/><path class="cls-59" d="M101.48,112.31a7.48,7.48,0,0,1-6.16.56,8,8,0,0,1-4.55-10.35,8.26,8.26,0,0,1,7-5.59s-6.54,2.45-2.65,7.48C97.55,107.54,100.38,110.05,101.48,112.31Z"/><path class="cls-60" d="M106.52,105.5c1-3.29-.32-6.18-7-13.39,2.14,3.26,1.57,20.42,1.57,20.42C103.74,111.8,105.48,108.86,106.52,105.5Z"/><path class="cls-15" d="M101.2,130.84a11.21,11.21,0,0,1-13.81,6.69A9.76,9.76,0,0,1,81,124.15a11.28,11.28,0,0,1,14-5.85A9.82,9.82,0,0,1,101.2,130.84Z"/><path class="cls-61" d="M91.34,113.59s-3.63-3.44-7.08-1.11-5.63,1.86-4.81,8.13,3.06,12,7.72,14,8-16.74,8-16.74Z"/><path class="cls-62" d="M97.62,129.57a8.44,8.44,0,0,1-3.89,4.63,7.48,7.48,0,0,1-6.16.56A8,8,0,0,1,83,124.41a8.26,8.26,0,0,1,7-5.59,7.29,7.29,0,0,1,3,.4A8,8,0,0,1,97.62,129.57Z"/><path class="cls-63" d="M93.73,134.2a7.48,7.48,0,0,1-6.16.56A8,8,0,0,1,83,124.41a8.26,8.26,0,0,1,7-5.59s-6.54,2.45-2.65,7.48C89.8,129.44,92.63,131.94,93.73,134.2Z"/><path class="cls-64" d="M98.77,127.39c1-3.29-.31-6.17-7-13.39,2.14,3.26,1.58,20.42,1.58,20.42C96,133.69,97.73,130.75,98.77,127.39Z"/><path class="cls-15" d="M93.17,153.54a11.22,11.22,0,0,1-13.82,6.69A9.77,9.77,0,0,1,73,146.86,11.28,11.28,0,0,1,87,141,9.82,9.82,0,0,1,93.17,153.54Z"/><path class="cls-65" d="M83.3,136.29s-3.62-3.44-7.08-1.11-5.62,1.86-4.8,8.13,3.06,12,7.71,14,8-16.74,8-16.74Z"/><path class="cls-66" d="M89.58,152.27a8.46,8.46,0,0,1-3.88,4.63,7.48,7.48,0,0,1-6.16.56A8,8,0,0,1,75,147.11a8.27,8.27,0,0,1,7-5.58,7.14,7.14,0,0,1,3.05.39A8,8,0,0,1,89.58,152.27Z"/><path class="cls-67" d="M85.7,156.9a7.48,7.48,0,0,1-6.16.56A8,8,0,0,1,75,147.11a8.27,8.27,0,0,1,7-5.58S75.45,144,79.34,149C81.77,152.14,84.59,154.64,85.7,156.9Z"/><path class="cls-68" d="M90.73,150.1c1-3.3-.31-6.18-7-13.39,2.15,3.26,1.58,20.41,1.58,20.41C88,156.39,89.7,153.45,90.73,150.1Z"/><polygon class="cls-69" points="71.55 224.17 75.38 217.96 77.23 219.07 81.1 213.19 85.05 215.97 77.72 222.65 75.6 221.41 71.55 224.17"/><polygon class="cls-70" points="54.19 238.47 47.6 234.13 49.4 230.09 41.02 220.96 38.18 228.3 45.21 232.64 43.56 238.02 54.19 238.47"/><polygon class="cls-71" points="51.24 214.68 49.27 209.25 50.96 208.88 49.65 201.96 54.05 201.96 53.77 210.47 51.33 210.66 51.24 214.68"/></g></g></g></svg>