<svg xmlns="http://www.w3.org/2000/svg" xmlns:xlink="http://www.w3.org/1999/xlink" viewBox="0 0 549.05 407.67"><defs><style>.cls-1{fill:url(#linear-gradient);}.cls-2{fill:url(#linear-gradient-2);}.cls-3{fill:none;}.cls-4{isolation:isolate;}.cls-5{clip-path:url(#clip-path);}.cls-6{opacity:0.5;}.cls-7{mask:url(#mask);}.cls-8{mix-blend-mode:multiply;}.cls-10,.cls-11,.cls-12,.cls-13,.cls-14,.cls-15,.cls-16,.cls-17,.cls-18,.cls-19,.cls-20,.cls-21,.cls-22,.cls-23,.cls-9{fill:#e9e8e8;}.cls-28,.cls-9{opacity:0.21;}.cls-10,.cls-29{opacity:0.54;}.cls-11,.cls-36{opacity:0.16;}.cls-12,.cls-37{opacity:0.25;}.cls-13,.cls-27{opacity:0.36;}.cls-14,.cls-44{opacity:0.6;}.cls-15,.cls-45{opacity:0.47;}.cls-16,.cls-46{opacity:0.69;}.cls-17,.cls-47{opacity:0.84;}.cls-18,.cls-48{opacity:0.71;}.cls-19,.cls-52{opacity:0.99;}.cls-20,.cls-53{opacity:0.06;}.cls-21,.cls-54{opacity:0.41;}.cls-22,.cls-55{opacity:0.68;}.cls-23,.cls-56{opacity:0.88;}.cls-24{mask:url(#mask-2);}.cls-25,.cls-26,.cls-27,.cls-28,.cls-29,.cls-30,.cls-31,.cls-32,.cls-33,.cls-34,.cls-35,.cls-36,.cls-37,.cls-38,.cls-39,.cls-40,.cls-41,.cls-42,.cls-43,.cls-44,.cls-45,.cls-46,.cls-47,.cls-48,.cls-49,.cls-50,.cls-51,.cls-52,.cls-53,.cls-54,.cls-55,.cls-56,.cls-57,.cls-58,.cls-59{fill:#cadedd;}.cls-25{opacity:0.7;}.cls-26{opacity:0.22;}.cls-30{opacity:0.27;}.cls-31{opacity:0.08;}.cls-32{opacity:0.59;}.cls-33{opacity:0.14;}.cls-34{opacity:0.26;}.cls-35{opacity:0.81;}.cls-38{opacity:0.37;}.cls-39{opacity:0.79;}.cls-40{opacity:0.64;}.cls-41{opacity:0.52;}.cls-42{opacity:0.1;}.cls-43{opacity:0.77;}.cls-49{opacity:0.24;}.cls-50{opacity:0.19;}.cls-51{opacity:0.96;}.cls-57{opacity:0.13;}.cls-58{opacity:0.78;}.cls-59{opacity:0.58;}</style><linearGradient id="linear-gradient" x1="-9068.79" y1="2203.97" x2="-9068.79" y2="2384.68" gradientTransform="translate(9526.85 -2087.57)" gradientUnits="userSpaceOnUse"><stop offset="0.11" stop-color="#fff"/><stop offset="0.2" stop-color="#d0d0d0"/><stop offset="0.32" stop-color="#9a9a9a"/><stop offset="0.44" stop-color="#6b6b6b"/><stop offset="0.55" stop-color="#454545"/><stop offset="0.67" stop-color="#272727"/><stop offset="0.78" stop-color="#121212"/><stop offset="0.89" stop-color="#050505"/><stop offset="1" stop-color="#010101"/></linearGradient><linearGradient id="linear-gradient-2" x1="-8972.62" y1="2198.94" x2="-8972.62" y2="2308.41" gradientTransform="translate(9345.62 -2045.21)" xlink:href="#linear-gradient"/><clipPath id="clip-path" transform="translate(-63.05 55.62)"><rect class="cls-3" width="540" height="216"/></clipPath><mask id="mask" x="-106.94" y="-268.05" width="1003.28" height="840.84" maskUnits="userSpaceOnUse"><g transform="translate(-63.05 55.62)"><rect class="cls-1" x="12.53" y="-134.98" width="890.44" height="463.46" transform="translate(904.05 -43.64) rotate(150.61)"/></g></mask><mask id="mask-2" x="5.76" y="-57.36" width="607.77" height="509.37" maskUnits="userSpaceOnUse"><g transform="translate(-63.05 55.62)"><rect class="cls-2" x="102.98" y="1.32" width="539.41" height="280.75" transform="translate(766.95 82.23) rotate(150.61)"/></g></mask></defs><g class="cls-4"><g id="Layer_2" data-name="Layer 2"><g id="Layer_1-2" data-name="Layer 1"><g class="cls-5"><g class="cls-6"><g class="cls-7"><g class="cls-8"><rect class="cls-9" x="542.52" y="174.15" width="61.91" height="61.91" rx="9.79" transform="translate(-89.89 363.51) rotate(-29.39)"/><rect class="cls-10" x="471.43" y="214.2" width="61.91" height="61.91" rx="9.79" transform="translate(-118.7 333.77) rotate(-29.39)"/><rect class="cls-11" x="503.75" y="105.32" width="61.91" height="61.91" rx="9.79" transform="translate(-61.1 335.61) rotate(-29.39)"/><rect class="cls-12" x="432.65" y="145.38" width="61.91" height="61.91" rx="9.79" transform="translate(-89.91 305.87) rotate(-29.39)"/><rect class="cls-13" x="361.55" y="185.43" width="61.91" height="61.91" rx="9.79" transform="translate(-118.72 276.13) rotate(-29.39)"/><rect class="cls-14" x="464.97" y="36.5" width="61.91" height="61.91" rx="9.79" transform="translate(-32.31 307.72) rotate(-29.39)"/><rect class="cls-15" x="393.88" y="76.55" width="61.91" height="61.91" rx="9.79" transform="translate(-61.12 277.98) rotate(-29.39)"/><rect class="cls-16" x="322.78" y="116.6" width="61.91" height="61.91" rx="9.79" transform="translate(-89.93 248.24) rotate(-29.39)"/><rect class="cls-17" x="251.68" y="156.65" width="61.91" height="61.91" rx="9.79" transform="matrix(0.87, -0.49, 0.49, 0.87, -118.74, 218.5)"/><rect class="cls-18" x="180.58" y="196.71" width="61.91" height="61.91" rx="9.79" transform="translate(-147.56 188.76) rotate(-29.39)"/><rect class="cls-19" x="426.2" y="-32.33" width="61.91" height="61.91" rx="9.79" transform="translate(-3.52 279.83) rotate(-29.39)"/><rect class="cls-20" x="355.1" y="7.72" width="61.91" height="61.91" rx="9.79" transform="translate(-32.33 250.09) rotate(-29.39)"/><rect class="cls-21" x="284" y="47.77" width="61.91" height="61.91" rx="9.79" transform="translate(-61.14 220.35) rotate(-29.39)"/><rect class="cls-10" x="212.91" y="87.83" width="61.91" height="61.91" rx="9.79" transform="translate(-89.95 190.61) rotate(-29.39)"/><rect class="cls-22" x="141.81" y="127.88" width="61.91" height="61.91" rx="9.79" transform="translate(-118.77 160.87) rotate(-29.39)"/><rect class="cls-23" x="70.71" y="167.93" width="61.91" height="61.91" rx="9.79" transform="translate(-147.58 131.13) rotate(-29.39)"/></g></g></g><g class="cls-24"><rect class="cls-25" x="553.25" y="115.8" width="37.5" height="37.5" rx="5.93" transform="translate(-55.45 353.7) rotate(-29.4)"/><rect class="cls-26" x="510.18" y="140.06" width="37.5" height="37.5" rx="5.93" transform="translate(-72.9 335.69) rotate(-29.39)"/><rect class="cls-27" x="467.12" y="164.32" width="37.5" height="37.5" rx="5.93" transform="translate(-90.35 317.67) rotate(-29.39)"/><rect class="cls-28" x="424.05" y="188.59" width="37.5" height="37.5" rx="5.93" transform="translate(-107.81 299.65) rotate(-29.4)"/><rect class="cls-29" x="380.98" y="212.85" width="37.5" height="37.5" rx="5.93" transform="translate(-125.26 281.64) rotate(-29.39)"/><rect class="cls-30" x="337.91" y="237.12" width="37.5" height="37.5" rx="5.93" transform="translate(-142.72 263.62) rotate(-29.4)"/><rect class="cls-31" x="294.84" y="261.38" width="37.5" height="37.5" rx="5.93" transform="translate(-160.17 245.61) rotate(-29.39)"/><rect class="cls-32" x="251.77" y="285.64" width="37.5" height="37.5" rx="5.93" transform="translate(-177.62 227.59) rotate(-29.39)"/><rect class="cls-33" x="208.7" y="309.91" width="37.5" height="37.5" rx="5.93" transform="translate(-195.08 209.57) rotate(-29.4)"/><rect class="cls-34" x="529.77" y="74.1" width="37.5" height="37.5" rx="5.93" transform="translate(-38 336.81) rotate(-29.4)"/><rect class="cls-35" x="486.7" y="98.37" width="37.5" height="37.5" rx="5.93" transform="translate(-55.46 318.79) rotate(-29.39)"/><rect class="cls-25" x="443.63" y="122.63" width="37.5" height="37.5" rx="5.93" transform="translate(-72.91 300.77) rotate(-29.39)"/><rect class="cls-36" x="400.56" y="146.89" width="37.5" height="37.5" rx="5.93" transform="matrix(0.87, -0.49, 0.49, 0.87, -90.37, 282.76)"/><rect class="cls-37" x="357.49" y="171.16" width="37.5" height="37.5" rx="5.93" transform="translate(-107.82 264.74) rotate(-29.39)"/><rect class="cls-27" x="314.42" y="195.42" width="37.5" height="37.5" rx="5.93" transform="translate(-125.28 246.73) rotate(-29.4)"/><rect class="cls-38" x="271.35" y="219.68" width="37.5" height="37.5" rx="5.93" transform="translate(-142.73 228.71) rotate(-29.39)"/><rect class="cls-39" x="228.28" y="243.95" width="37.5" height="37.5" rx="5.93" transform="translate(-160.18 210.69) rotate(-29.39)"/><rect class="cls-40" x="185.21" y="268.21" width="37.5" height="37.5" rx="5.93" transform="translate(-177.64 192.68) rotate(-29.39)"/><rect class="cls-41" x="506.28" y="32.41" width="37.5" height="37.5" rx="5.93" transform="translate(-20.56 319.91) rotate(-29.39)"/><rect class="cls-42" x="463.21" y="56.67" width="37.5" height="37.5" rx="5.93" transform="translate(-38.02 301.89) rotate(-29.39)"/><rect class="cls-43" x="420.14" y="80.94" width="37.5" height="37.5" rx="5.93" transform="translate(-55.47 283.87) rotate(-29.39)"/><rect class="cls-44" x="377.07" y="105.2" width="37.5" height="37.5" rx="5.93" transform="translate(-72.93 265.86) rotate(-29.39)"/><rect class="cls-45" x="334" y="129.46" width="37.5" height="37.5" rx="5.93" transform="translate(-90.38 247.84) rotate(-29.39)"/><rect class="cls-46" x="290.93" y="153.73" width="37.5" height="37.5" rx="5.93" transform="translate(-107.83 229.83) rotate(-29.39)"/><rect class="cls-47" x="247.86" y="177.99" width="37.5" height="37.5" rx="5.93" transform="translate(-125.29 211.81) rotate(-29.39)"/><rect class="cls-48" x="204.79" y="202.25" width="37.5" height="37.5" rx="5.93" transform="translate(-142.74 193.79) rotate(-29.39)"/><rect class="cls-49" x="161.72" y="226.52" width="37.5" height="37.5" rx="5.93" transform="translate(-160.2 175.78) rotate(-29.39)"/><rect class="cls-29" x="482.79" y="-9.29" width="37.5" height="37.5" rx="5.93" transform="translate(-3.12 303.01) rotate(-29.39)"/><rect class="cls-50" x="439.72" y="14.98" width="37.5" height="37.5" rx="5.93" transform="translate(-20.58 284.99) rotate(-29.39)"/><rect class="cls-51" x="396.65" y="39.24" width="37.5" height="37.5" rx="5.93" transform="translate(-38.03 266.98) rotate(-29.39)"/><rect class="cls-52" x="353.58" y="63.5" width="37.5" height="37.5" rx="5.93" transform="matrix(0.87, -0.49, 0.49, 0.87, -55.49, 248.96)"/><rect class="cls-53" x="310.51" y="87.77" width="37.5" height="37.5" rx="5.93" transform="translate(-72.94 230.95) rotate(-29.39)"/><rect class="cls-54" x="267.44" y="112.03" width="37.5" height="37.5" rx="5.93" transform="translate(-90.39 212.93) rotate(-29.39)"/><rect class="cls-29" x="224.37" y="136.29" width="37.5" height="37.5" rx="5.93" transform="translate(-107.85 194.91) rotate(-29.39)"/><rect class="cls-55" x="181.3" y="160.56" width="37.5" height="37.5" rx="5.93" transform="translate(-125.3 176.9) rotate(-29.39)"/><rect class="cls-56" x="138.23" y="184.82" width="37.5" height="37.5" rx="5.93" transform="translate(-142.76 158.88) rotate(-29.39)"/><rect class="cls-49" x="459.3" y="-50.98" width="37.5" height="37.5" rx="5.93" transform="translate(14.32 286.11) rotate(-29.39)"/><rect class="cls-48" x="416.23" y="-26.72" width="37.5" height="37.5" rx="5.93" transform="translate(-3.14 268.1) rotate(-29.39)"/><rect class="cls-57" x="373.16" y="-2.45" width="37.5" height="37.5" rx="5.93" transform="translate(-20.59 250.08) rotate(-29.39)"/><rect class="cls-26" x="330.09" y="21.81" width="37.5" height="37.5" rx="5.93" transform="translate(-38.04 232.07) rotate(-29.39)"/><rect class="cls-35" x="287.02" y="46.07" width="37.5" height="37.5" rx="5.93" transform="translate(-55.5 214.05) rotate(-29.39)"/><rect class="cls-50" x="243.95" y="70.34" width="37.5" height="37.5" rx="5.93" transform="translate(-72.95 196.03) rotate(-29.39)"/><rect class="cls-58" x="200.88" y="94.6" width="37.5" height="37.5" rx="5.93" transform="translate(-90.41 178.02) rotate(-29.39)"/><rect class="cls-59" x="157.81" y="118.86" width="37.5" height="37.5" rx="5.93" transform="translate(-107.86 160) rotate(-29.39)"/><rect class="cls-25" x="114.74" y="143.13" width="37.5" height="37.5" rx="5.93" transform="translate(-125.32 141.99) rotate(-29.39)"/></g></g></g></g></g></svg>