<?xml version="1.0" encoding="iso-8859-1"?>
<!-- Generator: Adobe Illustrator 19.0.0, SVG Export Plug-In . SVG Version: 6.00 Build 0)  -->
<svg version="1.1" id="Capa_1" xmlns="http://www.w3.org/2000/svg" xmlns:xlink="http://www.w3.org/1999/xlink" x="0px" y="0px"
	 viewBox="0 0 512 512" style="enable-background:new 0 0 512 512;" xml:space="preserve">
<rect x="27.488" y="227.281" style="fill:#2A2E2F;" width="18.992" height="35.472"/>
<g>
	<path style="fill:#231F20;" d="M360.944,321.665h18.176h122.768v-15.648l-16.352-18.336l0,0c0-9.824-1.616-19.568-4.784-28.864
		l-2.672-7.824l-66.336-4.288l-23.104,9.36l-27.696,35.44l-9.296,26.624L360.944,321.665z"/>
	<polygon style="fill:#231F20;" points="66.704,307.585 83.392,252.721 162.128,250.337 205.472,319.121 190.544,326.673 
		178.032,329.457 	"/>
</g>
<path style="fill:#FFD93B;" d="M42.336,278.305v-51.296H203.36v-85.52l76.832,4.32c8.96,0.496,17.024,5.536,21.424,13.344l26,46.176
	l128.112,17.376c14.72,2,26.592,13.024,29.648,27.568c0.048,0.224,0.096,0.432,0.144,0.656l-75.808-3.984l-21.088,9.12
	l-29.072,45.04l-6.272,11.968l-148.784-2.848l-27.936-39.328l-15.968-17.104l-27.36-5.136l-47.312,0.576l-14.816,41.04
	l-28.784-1.712v-10.256H42.336z"/>
<path style="fill:#3F4347;" d="M42.336,226.993l8.48-72.576c0.992-8.48,8.224-14.832,16.768-14.72l135.776,1.808v85.504H42.336
	V226.993z"/>
<path style="fill:#2A2E2F;" d="M182.256,212.945H75.472c-4.752,0-8.528-4-8.24-8.752l2.464-41.088
	c0.256-4.352,3.856-7.744,8.224-7.744h104.336c4.56,0,8.256,3.696,8.256,8.256v41.088
	C190.512,209.249,186.816,212.945,182.256,212.945z"/>
<path style="fill:#F4C534;" d="M203.376,226.993v-73.36l79.44,3.184c4.112,0.16,7.792,2.576,9.584,6.272l27.424,56.416v75.872
	H204.992L203.376,226.993z"/>
<g>
	<path style="fill:#2A2E2F;" d="M306.272,214.209l-23.728-45.312c-0.56-1.36-1.728-2.256-3.04-2.32l-61.024-2.928
		c-2-0.096-3.664,1.728-3.664,4.016v48.24c0,2.224,1.568,4.016,3.52,4.016h84.736C305.664,219.921,307.36,216.865,306.272,214.209z"
		/>
	<path style="fill:#2A2E2F;" d="M196.72,308.433c-2.56,0-5.024-1.456-6.176-3.92c-8.512-18.16-28.736-42.512-28.928-42.752
		c-0.016-0.016-0.032-0.032-0.032-0.048c-2.88-3.52-7.104-5.68-11.664-5.68H97.536c-4.448,0-8.592,2.592-10.544,6.592L76.4,284.337
		c-1.648,3.376-5.728,4.784-9.104,3.136s-8.816,1.68-7.168-1.696l14.624-29.12c4.224-8.656,13.168-14.24,22.784-14.24h53.952
		c8.32,0,16.064,4.048,20.816,10.864c2.368,2.848,27.488,35.36,36.368,54.304c1.6,3.408-5.632-1.392-9.04,0.208
		C198.672,308.241,197.696,308.433,196.72,308.433z"/>
	<path style="fill:#2A2E2F;" d="M478.336,267.137h13.648c-0.368-13.696-11.616-24.736-25.392-24.736h-62.768
		c-9.104,0-17.808,3.872-23.888,10.624c-9.472,10.512-23.104,28-34.288,51.632c-1.616,3.408-0.16,7.456,3.248,9.072
		c0.944,0.448,1.936,0.656,2.912,0.656c2.56,0,5.008-1.44,6.16-3.904c10.48-22.144,23.232-38.512,32.096-48.352
		c3.504-3.888,8.512-6.112,13.76-6.112h62.768C472.848,256.049,477.968,260.961,478.336,267.137z"/>
	<rect x="190.544" y="304.449" style="fill:#2A2E2F;" width="170.384" height="22.16"/>
</g>
<circle style="fill:#3F4347;" cx="128.64" cy="321.729" r="50.576"/>
<circle style="fill:#939799;" cx="128.64" cy="321.729" r="30.16"/>
<circle style="fill:#3F4347;" cx="424.96" cy="321.729" r="50.576"/>
<circle style="fill:#939799;" cx="424.96" cy="321.729" r="30.16"/>
<path style="fill:#2A2E2F;" d="M494.896,308.849h-11.072v-34.208h11.072c9.44,0,17.104,7.664,17.104,17.104l0,0
	C512,301.185,504.336,308.849,494.896,308.849z"/>
<path style="fill:#3F4347;" d="M24.176,289.889H8.816c-4.864,0-8.816-3.936-8.816-8.816v-84.64c0-4.864,3.952-8.816,8.816-8.816
	h15.36c4.88,0,8.816,3.952,8.816,8.816v84.64C33.008,285.953,29.056,289.889,24.176,289.889z"/>
<g>
	<path style="fill:#2A2E2F;" d="M38.464,281.345h39.392l-11.152,26.24h-28.24c-2.144,0-3.888-1.744-3.888-3.888v-18.448
		C34.576,283.089,36.32,281.345,38.464,281.345z"/>
	<polyline style="fill:#2A2E2F;" points="478.336,266.785 478.336,308.849 491.968,308.849 491.968,266.785 	"/>
</g>
<g>
</g>
<g>
</g>
<g>
</g>
<g>
</g>
<g>
</g>
<g>
</g>
<g>
</g>
<g>
</g>
<g>
</g>
<g>
</g>
<g>
</g>
<g>
</g>
<g>
</g>
<g>
</g>
<g>
</g>
</svg>
