<svg xmlns="http://www.w3.org/2000/svg" viewBox="0 0 301.2 150.24"><defs><style>.cls-1{fill:none;stroke:#ffc107;stroke-linecap:round;stroke-linejoin:round;stroke-width:7.94px;}.cls-2{fill:#ffc107;}.cls-3{font-size:48px;fill:#fff;font-family:ISOCPEUR;}</style></defs><g id="Layer_2" data-name="Layer 2"><g id="Layer_1-2" data-name="Layer 1"><path class="cls-1" d="M281.62,12.33s8.69,32.35-1.57,41.51c-4.49,4-13.92,7.43-22.83,6.32-10-1.25-14.91-11.09-6-46.82,0,0-56.38,14.14-68.78,53.68-4.23,13.51,14.42,14.11,23,6,12.05-11.38,9.57-28.74-24.22-59.14-2.6,16.67-10.85,46.25-27.72,46.25-14.23,0-16.44-16.33-6-35.86,0,0-45,30.76-99.34,25.59C-8.35,44.5,16.64,6.11,23.79,5.45S52.92,17,48.6,51.06c-4.05,32-34.51,24-43.48,19.49"/><circle class="cls-2" cx="243.06" cy="80.53" r="7.1"/><circle class="cls-2" cx="226.4" cy="80.53" r="7.1"/><circle class="cls-2" cx="153.68" cy="80.53" r="7.1"/><circle class="cls-2" cx="137.01" cy="80.53" r="7.1"/><circle class="cls-2" cx="90.3" cy="22.32" r="7.1"/><circle class="cls-2" cx="73.64" cy="22.32" r="7.1"/><circle class="cls-2" cx="81.97" cy="7.1" r="7.1"/><circle class="cls-2" cx="267.73" cy="80.53" r="7.1"/><text class="cls-3" transform="translate(0 137.87)">alibime.ir</text></g></g></svg>